<?xml version="1.0" encoding="UTF-8" standalone="no"?>
<!DOCTYPE svg PUBLIC "-//W3C//DTD SVG 1.1//EN" "http://www.w3.org/Graphics/SVG/1.1/DTD/svg11.dtd">
<svg width="100%" height="100%" viewBox="0 0 32 32" version="1.1" xmlns="http://www.w3.org/2000/svg" xmlns:xlink="http://www.w3.org/1999/xlink" xml:space="preserve" xmlns:serif="http://www.serif.com/" style="fill-rule:evenodd;clip-rule:evenodd;stroke-linejoin:round;stroke-miterlimit:2;">
    <g id="Backup">
        <g transform="matrix(0.711533,0.711533,-0.711533,0.711533,15.3762,6.55085)">
            <circle cx="5.54" cy="23.377" r="1.683" style="fill:white;"/>
        </g>
        <g transform="matrix(-0.673202,-0.673202,0.504825,-0.504825,7.55413,45.6001)">
            <path d="M19.02,24C18.67,23.569 16.658,21.555 16,21.555C15.342,21.555 13.33,23.569 12.98,24C12.258,24.889 13.333,29.333 13.333,29.333L18.667,29.333C18.667,29.333 19.742,24.889 19.02,24Z" style="fill:white;"/>
        </g>
        <g transform="matrix(0.911111,0.911111,-0.911111,0.911111,24.5137,1.77069)">
            <circle cx="5.54" cy="23.377" r="1.683" style="fill:white;"/>
        </g>
        <g transform="matrix(0.911111,0.911111,-0.911111,0.911111,18.6996,-15.8163)">
            <path d="M9.645,18.403C9.645,18.403 7.468,18.575 7.056,19.403C6.624,20.269 7.056,23.596 7.056,23.596L10.645,21.596L9.645,18.403Z" style="fill:white;"/>
        </g>
        <g transform="matrix(0.911111,0.911111,-0.911111,0.911111,32.1913,-2.32464)">
            <path d="M9.645,19.403C9.232,18.575 7.056,18.403 7.056,18.403L6.056,21.596L9.645,23.596C9.645,23.596 10.076,20.269 9.645,19.403Z" style="fill:white;"/>
        </g>
        <path d="M14.03,8.257C14.601,9.711 16.056,11.75 18.04,13.734C19.9,15.594 21.809,16.99 23.238,17.627C19.791,20.043 15.502,22.162 15.502,22.162L9.428,16.088C9.428,16.088 11.587,11.721 14.03,8.257ZM14.859,7.136C15.606,6.175 16.36,5.35 17.069,4.803C17.98,4.102 19.01,3.578 20.111,3.159C22.001,5.22 26.493,9.718 28.434,11.476C28.014,12.578 27.49,13.61 26.788,14.521C26.242,15.23 25.419,15.982 24.46,16.728C22.35,14.433 16.97,9.049 14.859,7.136ZM22.053,2.531C24.485,1.856 27.096,1.461 29.426,0.684C29.846,0.544 30.31,0.653 30.624,0.967C30.937,1.281 31.047,1.744 30.906,2.165C30.121,4.522 29.725,7.166 29.037,9.621C28.42,8.405 27.329,6.942 25.918,5.531C24.593,4.206 23.222,3.163 22.053,2.531Z" style="fill:white;"/>
    </g>
</svg>
