<?xml version="1.0" encoding="utf-8"?>
<!-- Generator: Adobe Illustrator 24.0.0, SVG Export Plug-In . SVG Version: 6.00 Build 0)  -->
<svg version="1.1" xmlns="http://www.w3.org/2000/svg" xmlns:xlink="http://www.w3.org/1999/xlink" x="0px" y="0px"
	 viewBox="0 0 880 480" style="enable-background:new 0 0 880 480;" xml:space="preserve">
<style type="text/css">
	.st0{display:none;}
	.st1{display:inline;fill:#FFFFFF;stroke:#003064;stroke-width:5;stroke-miterlimit:10;}
	.st2{fill:#EEEEEE;}
	.st3{fill:none;stroke:#003064;stroke-width:5;stroke-miterlimit:10;}
	.st4{fill:#00A2AB;}
	.st5{fill:#003064;}
	.st6{fill:#FFFFFF;stroke:#003064;stroke-width:5;stroke-miterlimit:10;}
	.st7{fill:#EEEEEE;stroke:#003064;stroke-width:5;stroke-miterlimit:10;}
	.st8{display:inline;fill:#003064;}
	.st9{display:inline;fill:#EEEEEE;stroke:#003064;stroke-width:5;stroke-miterlimit:10;}
	.st10{display:inline;}
	.st11{fill:#FFFFFF;}
	.st12{fill:#00A1AA;}
	.st13{display:none;opacity:0.7;}
	.st14{display:inline;enable-background:new    ;}
	.st15{font-family:'ArchitectsDaughter-Regular';}
	.st16{font-size:50px;}
</style>
<g id="Ebene_7" class="st0">
	<path class="st1" d="M259.5,108.5h-100c-49.7,0-90,40.3-90,90v58c0,49.7,40.3,90,90,90h41v44.2c-48.5,3.4-89,36-104.1,80.2
		c29.9,23.2,67.5,36.9,108.2,36.9c43.9,0,84.1-16,115-42.5c-16.6-41.8-56.2-71.9-103.2-74.8v-44.1h43c49.7,0,90-40.3,90-90v-58
		C349.5,148.8,309.2,108.5,259.5,108.5z"/>
</g>
<g id="Ebene_12">
</g>
<g id="kreise">
</g>
<g id="leib" class="st0">
	<path class="st1" d="M199.9,507.4c42.3,0,81.2-14.9,111.7-39.7c-16.8-45.4-60.4-77.8-111.7-77.8h0c-51.2,0-94.9,32.4-111.7,77.8
		C118.7,492.6,157.5,507.4,199.9,507.4z"/>
</g>
<g id="ohren">
</g>
<g id="verbunden">
</g>
<g id="aussenkopf" class="st0">
	<path class="st1" d="M249.6,330.3h-100c-49.7,0-90-40.3-90-90v-58c0-49.7,40.3-90,90-90h100c49.7,0,90,40.3,90,90v58
		C339.6,290,299.3,330.3,249.6,330.3z"/>
</g>
<g id="innenkopf">
</g>
<g id="hals" class="st0">
	<rect x="186.5" y="323.9" class="st1" width="28" height="81.6"/>
</g>
<g id="gesicht">
	<g>
		<g>
			
				<image style="overflow:visible;opacity:0.75;" width="288" height="386" xlink:href="63269632.png"  transform="matrix(1 0 0 1 5 -2)">
			</image>
			<g>
				<path class="st2" d="M264,188.7c4.2-5.3,6.7-11.8,6.7-18.7c0-13.3-9.1-24.8-22.3-30.2v-7.5c0-35.4-28.7-64.1-64.1-64.1h-31.9
					L163,40.8c0.8,0.2,1.7,0.3,2.6,0.3c6.9,0,12.5-5.6,12.5-12.5c0-6.9-5.6-12.5-12.5-12.5c-6.9,0-12.5,5.6-12.5,12.5
					c0,4.3,2.2,8.2,5.6,10.4l-11.1,28.8l1.2,0.5h-35.7c-35.4,0-64.1,28.7-64.1,64.1v7.4c-13.3,5.3-22.5,16.9-22.5,30.2
					c0,7.2,2.7,13.8,7.1,19.2C26.8,204.8,23,222,23,240.1c0,69.6,56.4,126,126,126s126-56.4,126-126
					C275,221.8,271.1,204.4,264,188.7z"/>
				<path class="st3" d="M264,188.7c4.2-5.3,6.7-11.8,6.7-18.7c0-13.3-9.1-24.8-22.3-30.2v-7.5c0-35.4-28.7-64.1-64.1-64.1h-31.9
					L163,40.8c0.8,0.2,1.7,0.3,2.6,0.3c6.9,0,12.5-5.6,12.5-12.5c0-6.9-5.6-12.5-12.5-12.5c-6.9,0-12.5,5.6-12.5,12.5
					c0,4.3,2.2,8.2,5.6,10.4l-11.1,28.8l1.2,0.5h-35.7c-35.4,0-64.1,28.7-64.1,64.1v7.4c-13.3,5.3-22.5,16.9-22.5,30.2
					c0,7.2,2.7,13.8,7.1,19.2C26.8,204.8,23,222,23,240.1c0,69.6,56.4,126,126,126s126-56.4,126-126
					C275,221.8,271.1,204.4,264,188.7z"/>
			</g>
		</g>
		<g>
			<circle class="st4" cx="149" cy="240.3" r="123.5"/>
			<path class="st5" d="M149,119.3c32.3,0,62.7,12.6,85.6,35.4S270,208,270,240.3s-12.6,62.7-35.4,85.6
				c-22.9,22.9-53.2,35.4-85.6,35.4s-62.7-12.6-85.6-35.4C40.6,303,28,272.6,28,240.3s12.6-62.7,35.4-85.6S116.7,119.3,149,119.3
				 M149,114.3c-69.6,0-126,56.4-126,126s56.4,126,126,126s126-56.4,126-126S218.6,114.3,149,114.3L149,114.3z"/>
		</g>
		<path class="st6" d="M65.6,203.5c-21.6,0-39.1-14.9-39.1-33.4s17.5-33.4,39.1-33.4"/>
		<path class="st6" d="M231.7,136.8c21.6,0,39.1,14.9,39.1,33.4s-17.5,33.4-39.1,33.4"/>
		<path class="st6" d="M184.3,68.4h-71.2c-35.4,0-64.1,28.7-64.1,64.1v41.3c0,35.4,28.7,64.1,64.1,64.1h26.3v43
			c-32.3,3.6-59.1,25.4-70,54.9c21.7,17.7,49.4,28.3,79.5,28.3s57.8-10.6,79.5-28.3c-10.8-29.2-37.2-50.8-69.1-54.8v-43.1h25
			c35.4,0,64.1-28.7,64.1-64.1v-41.3C248.4,97.1,219.7,68.4,184.3,68.4z"/>
		<path class="st7" d="M175.3,225.7h-54.1c-30.9,0-55.9-25-55.9-55.9v0c0-30.9,25-55.9,55.9-55.9h54.1c30.9,0,55.9,25,55.9,55.9v0
			C231.2,200.7,206.2,225.7,175.3,225.7z"/>
		<ellipse class="st5" cx="197.8" cy="152.4" rx="18.1" ry="12.5"/>
		<ellipse class="st5" cx="98.8" cy="152.4" rx="18.1" ry="12.5"/>
		<g>
			<g>
				<path class="st5" d="M164.3,184.8c-0.3,8.1-6.6,14.9-14.9,14.9c-8.3,0-14.7-6.8-14.9-14.9c-0.2-6.4-10.2-6.4-10,0
					c0.5,13.6,11,24.9,24.9,24.9c13.9,0,24.5-11.4,24.9-24.9C174.5,178.3,164.5,178.3,164.3,184.8L164.3,184.8z"/>
			</g>
		</g>
	</g>
</g>
<g id="antenne" class="st0">
	
		<rect x="209.5" y="27.3" transform="matrix(0.9336 0.3584 -0.3584 0.9336 35.5547 -72.2721)" class="st8" width="6.5" height="65"/>
	<circle class="st9" cx="223.3" cy="33.8" r="17.5"/>
</g>
<g id="bubble" class="st0">
	<g id="Ebene_1_1_" class="st10">
		
			<image style="overflow:visible;opacity:0.75;" width="507" height="463" xlink:href="63269636.png"  transform="matrix(1 0 0 1 371 25)">
		</image>
		<g>
			<g>
				<g transform="matrix(1, 0, 0, 1, 0, 0)">
					<g id="Sprechblase-2_9_" transform="translate(72.68 60.84) rotate(7)">
						<path class="st11" d="M474.8,280.8c-9.4-3.9-16.8-10.1-22.8-18.7c-16.5-23.6-29-63.9-34.4-110.8l-0.8-6.5l-3.8-0.4l-53.7-6.8
							l51-41.5l4.4-3.7l0.5-8.2c0.8-14.2,2.4-26.6,4.8-37C440.8-40.2,580.5-115.5,689.8-70c4,1.7,8,3.6,12.1,5.6
							c110.7,57.3,109,176.1,87.9,265.7c-2.1,8.9-3.9,17.6-5.6,26.4c-11.8,58.9-20.4,101.6-133.1,86.7
							c-25.5,1.4-79.3-12.9-80.6-13.2l0,0c-0.5-0.2-4.3-1.8-6.2-2.6c-17.7-7.4-34.8-8.9-51.1-10.4C499,286.7,486,285.5,474.8,280.8
							L474.8,280.8z"/>
						<path class="st12" d="M477.5,269.4c10.8,4.5,23.5,5.6,37.1,7.1c15.9,1.6,34,3.3,52.2,10.9c1.8,0.8,5.2,2.2,6.2,2.6
							c4.7,1.1,55.1,14.3,78.5,13.2l0.6,0l0.5,0.2C759.7,317.2,767,281.2,778,226.5c1.8-8.7,3.6-17.7,5.7-26.9
							c19.9-84.5,21.3-197.1-85-251.9c-3.8-1.9-7.8-3.8-11.7-5.4c-103.6-44-241.8,25.8-261,107.6c-2.1,8.9-3.5,20.3-4.3,33
							l-0.8,16.4l-8.8,7.2l-27.4,22.3l30.5,3.8l7.5,0.9l1.5,12.9c5.2,44.8,17.1,83.5,32.7,105.9C462,260.5,468.8,265.8,477.5,269.4
							L477.5,269.4 M472.2,292.3c-9.2-3.8-17.7-9.9-24.8-20.4c-19.1-27.2-31-71.4-36.1-115.9l-76.9-9.5L409,85.9
							c0.9-15.2,2.7-29,5.4-40.7c23.1-98.5,169.7-171.5,278-126.4c4.2,1.7,8.3,3.7,12.2,5.7c109.2,56.3,114.8,176.8,90.7,279.4
							C778.2,277.3,783.4,343.5,649,326c-25.9,1.2-81-13.6-81-13.6s-4.4-1.8-6.8-2.8C529,296.1,497.1,302.7,472.2,292.3z"/>
					</g>
				</g>
				<g id="sprechblase_text_9_" transform="translate(232.485 181.187) rotate(-3)" class="st13">
					<g class="st14">
						<path d="M414.6,25.6l1.1,0.3c0.4,0.1,0.8,0.2,1.3,0.6c0.3,0.3,0.4,0.9,0.2,1.7c-0.5,2-1.4,2.9-2.8,2.3c-0.4-0.1-0.8-0.2-1-0.5
							c-0.3-0.1-0.5-0.1-0.8-0.2c-0.3-0.1-0.4,0.2-0.4,0.4c-0.2,1.6-0.4,3.1-0.7,4.9c-0.3,1.8-0.5,3.7-0.7,5.5
							c-0.4,4.5-0.5,7.9-0.4,10.1c-0.7,0.9-1.6,1.8-2.4,2.1c-0.8,0.6-1.3,0.8-1.3,0.8l-0.1,0l1.5-23l-12.4,2.3l-1.4,2.9
							c-2.6,5.3-4.7,9.1-6.3,11.1c-0.3,0.5-0.7,0.4-1,0c-0.6-0.7-0.9-1.3-0.7-1.8c0,0,0.8-1.4,2.2-4s2.9-5.2,4.3-7.8
							c1.4-2.6,3.1-5.4,4.6-8.3c1.6-2.8,3.1-5.7,4.6-8.3c1.4-2.6,2.8-5,3.9-7.1c1.1-2.1,2-3.5,2.5-4.5s0.9-1.9,1.3-2.6
							c0.2-0.7,0.6-1.5,0.9-1.9c0.6-0.9,1.5-1.5,2.6-1.2c0.7,1.5,1.1,3.2,1.1,5.1c0,2.2-0.2,4.3-0.3,6.4c-0.3,2.3-0.6,4.4-0.7,6.8
							c-0.3,2.3-0.4,4.5-0.2,6.4c0,0.8,0.2,1.1,0.8,1.3S414.2,25.5,414.6,25.6z M409.8,7.5c-1.2,2.9-2.6,5.8-4.5,8.9
							c-1.6,2.8-3.1,5.2-4.1,6.8c-1,1.6-1.9,3-2.6,4.5c1.8,0.4,4.4,0,7.6-1.4c0.8-0.3,1.7-0.7,2.4-1C410.4,15.1,410.9,9.1,409.8,7.5
							z"/>
						<path d="M430.1,57.1c-0.5,0.7-1.2,1-2.3,0.8c-0.9-0.2-1.2-1.1-0.8-2.4c1.9-5.7,3.1-9.7,3.7-11.7c1.3-4.8,1.7-7.4,0.9-7.8
							c-1.6-1.2-3.2-1.9-4.3-2.1c-1.2-0.3-2.4,0.2-3.6,1.3c-1.2,1-2.5,3.2-3.9,6.3c-1.4,2.9-3.1,7.3-5.1,12.7l-3.1-0.8
							c0.9-2.7,1.8-5.2,2.6-7.7s1.7-5.2,2.6-8.5c1-3.2,2.1-7,3.3-10.7c1.3-4.5,2.5-8.3,3.6-11.5c1-3,2.1-5.9,3-8.4
							c0.6-0.9,1.2-1.3,1.6-1.2c0.5,0.1,0.9,0.8,1.1,1.6c0.2,0.8,0.1,1.6-0.2,2.4l-4,11.9c-1.5,4.5-2.4,8-2.9,10.3
							c3.4-2.4,6.3-3.3,8.7-2.7c0.8,0.2,1.8,0.4,2.5,0.9c1.4,2.5,1.9,4.8,2,6.9c-0.1,1.1-0.2,2.4-0.6,3.6c-0.3,1.3-0.8,2.8-1.2,4.3
							C431.9,50.3,430.8,54.3,430.1,57.1z"/>
						<path d="M436.8,44.8c1.9-5.7,4.7-10.1,8.6-13c3-2.2,6.2-3.3,9.3-3.1c0.1,0,0.5,0.1,1.1,0.3c0.5,0.1,1.3,0.6,2,1.6
							c1.8,1.8,2.4,4.6,2.1,8.3c-0.1,1.3-0.3,2.6-0.6,3.6c-0.3,1-0.5,1.5-0.6,2c-1.9,6-4.8,10.7-8.4,13.5c-3.3,2.7-6.8,3.4-10.2,2.6
							c-2.6-0.6-4.1-2.1-4.6-4.6C434.6,53.7,435.1,50,436.8,44.8z M438.8,47.4c-1,3-1.2,5.1-0.7,6.6c0.4,0.9,1.3,1.7,3,2.1
							c1.6,0.4,3,0.5,4.3,0.2c1.4-0.2,2.7-0.7,3.8-1.5c2.7-1.7,4.9-5.3,6.5-10.2c1-3,1.3-5.3,1.1-7.5c-0.3-2.2-1.2-3.5-2.7-3.9
							c-1.2,0-2.3,0.2-3.4,0.2c-1.2,0.2-2.4,0.7-3.7,1.5C444.4,37,441.6,41.1,438.8,47.4z"/>
						<path d="M468.2,20c0.6-1.7,1.3-2.4,2.4-2.1c0.7,0.2,1.3,0.6,1.4,1.4c0,0.5-0.2,1-0.3,1.5c-0.2,0.5-0.5,1-0.8,1.4
							c-0.4,0.4-0.8,0.6-1.2,0.5c-0.4-0.1-0.7-0.4-1.1-0.8C468.4,21.1,468.2,20.5,468.2,20z M468.7,30.6c-2.6,9.3-5.7,19.9-9.4,31.8
							c-0.6,1.5-1.5,2-2.6,1.8c-0.3-0.1-0.5-0.1-0.9-0.5c-0.2-0.3-0.4-0.6-0.2-1.1l10.6-32.6L468.7,30.6z"/>
						<path d="M484.7,0.6c-0.5,1.2-3.3,9.2-7.9,23.6c-4.7,14.5-7.5,22.9-8.7,25l-2.7-0.7c1.6-5,3.8-11.2,6.4-18.9
							c5.2-14.6,8.4-24.3,10.1-29.5L484.7,0.6z M463.2,61.2c1.1,0.3,1.7,0.7,1.9,1c0.1,0.6,0.2,0.8,0,1.3c-0.9,1.9-2,3-3,3
							c-0.1,0-0.3-0.1-0.5-0.1c-0.1,0-0.4-0.1-0.6-0.4c-0.2-0.3-0.4-0.6-0.4-1.2C460.7,63.6,461.5,62.4,463.2,61.2z"/>
						<path d="M260.1,112.1c0.1-0.2,0.2-0.5,0.5-1c0.2-0.5,0.6-1.5,1.1-3c0.5-1.5,1.3-3.5,2-5.7c0.7-2.2,1.7-4.7,2.6-7.4
							s1.9-5.4,2.8-8.2c0.9-2.7,1.9-5.4,2.8-8.2c0.9-2.7,1.8-5.2,2.7-7.4c1.9-4.9,3-7.6,3.8-8.5c0.6-0.9,1.5-1.5,2.7-1.2l0.5,0.1
							c-0.6,1.7-2,5.7-4.1,11.6c-2.2,5.9-3.5,9.4-3.8,10.4c2.2-1.1,4.4-2.4,6.7-4c2.3-1.6,4.2-2.7,6.1-4.1c1.8-1.2,3.7-2.3,5.1-3.1
							c1.4-0.7,2.5-1,3-0.9c0.9,0.2,1.1,1.1,0.7,2.3c-0.3,1-1.1,2.1-2.3,3.2c-1.2,1-2.7,2-4.4,3.2c-1.6,0.9-3.6,2.1-5.5,3
							s-3.7,2-5.5,3c-1.6,0.9-3.1,1.9-4.3,3c-1.1,0.8-1.9,1.7-2.2,2.7c0.4,0.6,0.8,1.5,1.6,2.8s1.6,2.6,2.7,3.9
							c0.9,1.6,2.1,2.9,3,4.8c1.1,1.6,2,3.2,2.8,5c1.7,3.7,2.4,6.2,1.7,8.2c-0.2,0.7-0.6,0.9-1.1,1.1c-0.1,0-0.5,0.1-0.6,0.1
							l-0.4-0.1c-1.2-0.3-2.3-1.1-2.9-2.6c-0.8-1.3-1.5-3.1-2.2-4.9c-0.7-1.8-1.6-3.9-2.6-5.8c-1.1-2.1-2.5-3.9-4.3-5.6l-4.8,14.7
							c-0.1,0.2-0.4,0.4-0.9,0.6c-0.6,0.1-1.4,0.2-2,0C260.2,113.2,259.9,112.9,260.1,112.1z"/>
						<path d="M303,110.8c-3.9,5.2-7.6,8.1-11.4,8.8c-0.9,0-1.6,0.1-2.2,0c-0.7-0.2-1.1-0.3-1.5-0.4c-0.4-0.1-0.7-0.4-1.3-0.6
							c-0.5-0.4-0.8-0.7-1-1.3c-0.6-1.2-0.7-2.9-0.1-4.6c0.2-1,0.4-1.8,0.8-3c0.3-1,0.9-2.5,1.8-4.1c0.8-1.7,2-3.5,3.3-5.4
							c1.3-1.8,2.8-3.6,4.4-5.1c3.2-3.2,6.2-4.9,9.1-5.6c0.8-0.1,1.5-0.2,2.2,0c0.5,0.1,1.1,0.3,1.5,0.6c1.5,0.4,1.9,2.6,1.2,6.5
							c-0.4,2.6-1.3,5.9-2.6,10.4c-1.4,4.2-2.4,7.8-3.1,10c-0.7,2.2-1.2,4.6-1.6,6.6l-2.3-0.6c0.3-1.3,0.7-2.5,0.9-3.6
							c0.3-1,0.5-2,0.8-2.8C302.4,114.2,302.8,112.4,303,110.8z M306.6,99.3c0.9-2.7,0.6-4.4-0.9-4.8c-0.1,0-0.4-0.1-0.5-0.1
							c-1.9-0.5-4.5,0.8-7.8,3.7c-1.4,1.3-2.9,2.8-4.3,4.6c-2,2.5-3.3,4.8-4,7.1c-1,3-0.5,4.7,1,5.9c2.4,0.6,5.2-0.9,8.7-4.3
							c1.5-1.5,2.7-3.1,4.1-4.9C304.7,103.7,305.9,101.3,306.6,99.3z"/>
						<path d="M324.8,111.9c1.9-5.7,3.1-10,3.6-12.8c0.5-0.7,0.2-1-0.6-1.2c-0.9-0.2-2.2,0-3.9,0.4c-1.7,0.4-3.1,1.1-4.3,1.6
							c-2.8,1.5-4.6,2.9-5.3,4.6l-6.4,19.9l-2.7-0.7c0.2-1.8,1.5-6.4,4-14.1c2.2-6.7,3.9-11.7,5.1-14.9c1.2-3.2,1.9-4.9,2-5.4
							c0.9-0.6,1.6-0.9,2-0.8c0.7,0.2,0.5,1.7-0.4,4.5c-0.3,1-0.7,2.2-1.2,3.2c-0.3,1-0.7,1.7-0.9,2.2c6.2-4.7,10.4-6.9,12.8-6.3
							c2.7,0.7,2.9,5,0.7,13.1c-0.8,2.8-1.9,6.8-3.4,11.5l-1.9,5.7c-0.7,2.2-1.4,4.2-1.9,6.3c-0.4,0.2-0.7,0.4-0.8,0.3
							s-0.3-0.1-0.5-0.4c-0.3-0.1-0.5-0.4-1-0.5c0.4-2.1,0.9-4.1,1.5-6.1s1.3-4,1.8-5.5L324.8,111.9z"/>
						<path d="M345,116.9c1.9-5.7,3.1-10,3.6-12.8c0.5-0.7,0.2-1-0.6-1.2c-0.9-0.2-2.2,0-3.9,0.4c-1.7,0.4-3.1,1.1-4.3,1.6
							c-2.8,1.5-4.6,2.9-5.3,4.6l-6.4,19.9l-2.7-0.7c0.2-1.8,1.5-6.4,4-14.1c2.2-6.7,3.9-11.7,5.1-14.9s1.9-4.9,2-5.4
							c0.9-0.6,1.6-0.9,2-0.8c0.7,0.2,0.5,1.7-0.4,4.5c-0.3,1-0.7,2.2-1.2,3.2c-0.3,1-0.7,1.7-0.9,2.2c6.2-4.7,10.4-6.9,12.8-6.3
							c2.7,0.7,2.9,5,0.7,13.1c-0.8,2.8-1.9,6.8-3.4,11.5l-1.9,5.7c-0.7,2.2-1.4,4.2-1.9,6.3c-0.4,0.2-0.7,0.4-0.8,0.3
							s-0.3-0.1-0.5-0.4c-0.3-0.1-0.6-0.4-1-0.5c0.4-2.1,0.9-4.1,1.5-6.1c0.6-2,1.3-4,1.8-5.5L345,116.9z"/>
						<path d="M375,93.9c0.6-1.7,1.3-2.4,2.4-2.1c0.7,0.2,1.3,0.6,1.4,1.4c0,0.5-0.2,1-0.3,1.5s-0.5,1-0.8,1.4s-0.8,0.6-1.2,0.5
							s-0.7-0.4-1.1-0.8C375.2,95,375.1,94.4,375,93.9z M375.5,104.5c-2.6,9.3-5.7,19.9-9.4,31.8c-0.6,1.5-1.5,2-2.6,1.8
							c-0.3-0.1-0.5-0.1-0.9-0.5c-0.2-0.3-0.4-0.6-0.2-1.1l10.6-32.6L375.5,104.5z"/>
						<path d="M385.5,135.7c1.3-0.5,2.6-1,3.8-1.5c1.3-0.5,2.3-0.5,3.3-0.3c0.9,0.2,1.2,0.8,0.9,1.8c-0.1,0.2-0.2,0.5-0.5,1.2
							c-0.2,0.5-0.7,0.9-1.6,1.5c-0.9,0.6-2,1.1-3.1,1.4c-1.2,0.5-2.4,0.7-3.7,1c-1.2,0.2-2.5,0.5-3.7,0.7c-2.4,0.2-4.2,0.3-5.1,0.1
							c-0.9-0.2-1.8-0.7-2.8-1.2c-0.9-0.8-1.7-1.5-2.3-2.7c-1.5-2.5-1.6-5.8-0.3-9.8c0.1-0.2,0.3-1,0.6-1.7c0.3-1,0.9-2.2,1.7-3.6
							c1-1.6,2-3,3.4-4.6s2.8-2.8,4.3-3.8c3.1-2.5,6.1-3.6,8.9-4c0.9,0,1.6-0.1,2.3,0c0.5,0.1,1.1,0.3,1.3,0.3
							c0.4,0.1,0.8,0.2,1,0.5c0.4,0.1,0.6,0.4,0.9,0.8c0.4,0.9,0.4,2.3-0.1,4c-0.4,1.2-1.1,2.1-2.5,3.2c-0.4,0.2-0.6,0.4-0.9,0.6
							c0.2-1,0.4-2.1,0.3-2.9c0-0.8-0.3-1.4-0.9-1.6c-3.5,0.5-6.8,1.6-9.7,3.5c-3.4,2.1-5.6,4.8-6.6,7.8c-0.1,0.2-0.2,0.7-0.3,1
							c-1,3.2-1,5.4-0.3,7.2c0.6,1.2,1.8,2.1,3.3,2.4c1.5,0.4,2.9,0.4,4.4,0C382.9,136.7,384.2,136.2,385.5,135.7z"/>
						<path d="M411.5,149.4c-0.5,0.7-1.2,1-2.3,0.8c-1.1-0.3-1.2-1.1-0.8-2.4c1.9-5.7,3.1-9.7,3.7-11.7c1.3-4.8,1.7-7.4,0.9-7.8
							c-1.6-1.2-3.2-1.9-4.3-2.1c-1.2-0.3-2.4,0.2-3.6,1.3s-2.5,3.2-3.9,6.3c-1.4,2.9-3.1,7.3-5.1,12.7l-3.1-0.8
							c0.9-2.7,1.8-5.2,2.6-7.7c0.8-2.5,1.7-5.2,2.6-8.5c1-3.2,2.1-7,3.3-10.7c1.3-4.5,2.5-8.3,3.6-11.5c1-3,2.1-5.9,3-8.4
							c0.6-0.9,1.2-1.3,1.7-1.2c0.5,0.1,0.9,0.8,1.1,1.6s0.1,1.6-0.2,2.4l-4,11.9c-1.5,4.5-2.4,8-2.9,10.3c3.4-2.4,6.3-3.3,8.7-2.7
							c0.8,0.2,1.6,0.4,2.5,0.9c1.4,2.5,1.9,4.8,2,6.9c-0.1,1.1-0.2,2.4-0.6,3.6c-0.3,1.3-0.8,2.8-1.2,4.3
							C413.3,142.6,412.1,146.6,411.5,149.4z"/>
						<path d="M447.6,158.3c-0.5,0.7-1.2,1-2.3,0.8c-0.9-0.2-1.2-1.1-0.8-2.4c1.9-5.7,3.1-9.7,3.7-11.7c1.3-4.8,1.7-7.4,0.9-7.8
							c-1.6-1.2-3.2-1.9-4.3-2.1c-1.2-0.3-2.4,0.2-3.6,1.3c-1.2,1-2.5,3.2-3.9,6.3c-1.4,2.9-3.1,7.3-5.1,12.7l-3.1-0.8
							c1.1-3,1.9-5.4,2.7-7.9c0.8-2.5,1.7-5.2,2.6-8.5c1-3.2,2.1-7,3.3-10.7c1.3-4.5,2.5-8.3,3.6-11.5c1-3,2.1-5.9,3-8.4
							c0.6-0.9,1.2-1.3,1.6-1.2c0.5,0.1,0.9,0.8,1.1,1.6s0.1,1.6-0.2,2.4l-4,11.9c-1.5,4.5-2.4,8-2.9,10.3c3.4-2.4,6.3-3.3,8.7-2.7
							c0.8,0.2,1.6,0.4,2.5,0.9c1.4,2.5,1.9,4.8,2,6.9c-0.1,1.1-0.2,2.4-0.6,3.6c-0.3,1.3-0.8,2.8-1.2,4.3
							C449.4,151.5,448.4,155.5,447.6,158.3z"/>
						<path d="M458.5,156.7c2.3,0.6,6.4-0.6,12.4-3.1c0.3,0.1,0.5,0.4,0.5,0.7s0,0.8-0.1,1.3c-2.1,3-5,5-8.6,6.2
							c-3.5,1-6.5,0.8-8.7-1.1c-2.5-2.2-3.3-5.6-2.4-10.5c0.3-1,0.6-2.3,1.1-3.8c0.5-1.5,1.5-3.7,2.7-6.1c1.2-2.4,2.8-4.7,4.6-6.7
							c1.8-2,3.6-3.4,5.5-4.6c1.9-0.9,3.6-1.3,5.2-0.9c1.5,0.4,2.9,1.8,4.2,4.3c0.6,1.2,1,2.4,1.1,3.8c0.1,1.4,0.1,2.4-0.3,3.7
							c-0.1,0.2-0.2,0.7-0.3,1c-1,3-2.3,4.5-4.1,5.2c-0.8,0.1-1.6,0.1-2.5-0.1l-5.6-1.9c-1.9-0.5-3.6-0.1-5,1.2
							c-0.8,0.6-1.6,1.8-2.4,3.4C454.8,153.3,455.8,156,458.5,156.7z M472.8,135.7c-0.3-0.9-0.8-1.5-1.3-2.2
							c-0.6-0.4-1.1-0.8-1.5-0.9c-0.4-0.1-1.2,0-2.3,0.2c-1.1,0.3-2.1,0.6-3.1,1.1c-2.2,1.1-3.7,2.6-4.3,4.3
							c2.1,0.8,3.5,1.4,4.6,1.7c3,0.7,5,0.7,6.4,0c0.8-0.3,1.3-0.8,1.5-1.5C473.2,137.7,473.3,136.6,472.8,135.7z"/>
						<path d="M480.6,136.8c0.9-2.7,1.5-5,2.1-7c0.6-2,1-3.5,1.3-4.5c0.3-1,0.9-3.6,1.7-7.4c0.4-0.4,0.8-1.1,1.2-1.6
							c0.4-0.4,0.8-0.6,1.2-0.5c0.9,0.2-0.7,7.6-4.8,22c-2.4,8.3-5,16.8-7.7,25c-0.7,2.2-1.9,3-3.6,2.6l-0.3-0.1
							c0.8-2.5,1.9-5.7,3-9.8s2.3-7.5,3.2-10.3C479,142.3,479.8,139.6,480.6,136.8z"/>
						<path d="M507.7,147.8c0.1,0-0.1,0.8-0.5,2c-0.4,1.2-0.7,2.2-0.8,2.8l-14.4-0.3l-4.6,16.4l-3.2-1c1.5-4.5,2.8-9.5,4-15.2
							l-6.3,2.5c-0.4-0.1-0.6-0.4-0.5-1.2c0-1.3,0.1-2.7,0.5-3.7l7.4-2.5c2.2-8.6,4.1-15.4,5.8-20.6c1.7-5.2,3.3-9.2,4.6-12
							c1.5-2.9,2.8-4.7,4-5.5c1.3-0.8,2.4-1,3.4-0.8c1.1,0.3,1.9,1,2.7,2s1.4,2.5,2.1,4c0.5,1.5,0.9,3.2,1.1,4.8
							c0.2,1.7,0,3.5-0.5,5c-0.4,1.2-0.6,2-0.9,2.5c-0.2-3-0.6-5.8-1.4-8.2c-0.9-2.9-2.3-4.6-3.8-5c-1.5-0.4-3.2,1.4-4.9,5.3
							c-0.9,1.9-2,4.9-3.2,8.6c-1.2,3.7-2.3,7.2-3.2,10.3s-1.6,6.3-2,9.5c1.6,0.4,3.6,0.6,5.8,0.6
							C502.8,147.4,505.9,147.4,507.7,147.8z"/>
						<path d="M510.8,169.6c2.3,0.6,6.4-0.6,12.4-3.1c0.3,0.1,0.5,0.4,0.5,0.7c0.1,0.3,0,0.8-0.1,1.3c-2.1,3-5,5.2-8.6,6.2
							s-6.5,0.8-8.7-1.1c-2.5-2.2-3.3-5.6-2.4-10.5c0.3-1,0.6-2.3,1.1-3.8c0.5-1.5,1.5-3.7,2.7-6.1c1.2-2.4,2.8-4.7,4.6-6.7
							c1.8-2,3.6-3.4,5.5-4.6c1.9-0.9,3.6-1.3,5.2-0.9c1.5,0.4,2.9,1.8,4.2,4.3c0.6,1.2,1,2.4,1.1,3.8c0.1,1.4,0.1,2.4-0.3,3.7
							c-0.1,0.2-0.2,0.7-0.3,1c-1,3-2.3,4.5-4.1,5.2c-0.8,0.1-1.6,0.1-2.5-0.1l-5.5-1.9c-1.9-0.5-3.6-0.1-5,1.2
							c-0.8,0.6-1.6,1.8-2.4,3.4C507.1,166.2,508.1,168.9,510.8,169.6z M525.2,148.6c-0.3-0.9-0.8-1.5-1.3-2.2
							c-0.6-0.4-1.1-0.8-1.5-0.9c-0.4-0.1-1.2,0-2.3,0.2c-1.1,0.3-2.1,0.6-3.1,1.1c-2.2,1.1-3.7,2.6-4.3,4.3
							c2.1,0.8,3.5,1.4,4.6,1.7c3,0.7,5,0.7,6.4,0c0.8-0.3,1.3-0.8,1.5-1.5C525.5,150.6,525.5,149.5,525.2,148.6z"/>
						<path d="M543.5,165.8c1.9-5.7,3.1-10,3.6-12.8c0.5-0.7,0.2-1-0.6-1.2c-0.9-0.2-2.2,0-3.9,0.4s-3.1,1.1-4.3,1.6
							c-2.8,1.5-4.6,2.9-5.3,4.6l-6.4,19.9l-2.7-0.7c0.2-1.8,1.5-6.4,4-14.1c2.2-6.7,3.9-11.7,5.1-14.9c1.2-3.2,1.9-4.9,2-5.4
							c0.9-0.6,1.6-0.9,2-0.8c0.7,0.2,0.5,1.7-0.4,4.5c-0.3,1-0.7,2.2-1.2,3.2c-0.3,1-0.7,1.7-0.9,2.2c6.2-4.7,10.4-6.9,12.8-6.3
							c2.7,0.7,2.9,5,0.7,13.1c-0.8,2.8-1.9,6.8-3.4,11.5l-1.9,5.7c-0.7,2.2-1.4,4.2-1.9,6.3c-0.4,0.2-0.7,0.4-0.8,0.3
							c-0.1,0-0.3-0.1-0.5-0.4c-0.3-0.1-0.6-0.4-1-0.5c0.4-2.1,0.9-4.1,1.5-6.1c0.6-2,1.3-4,1.8-5.5L543.5,165.8z"/>
						<path d="M559.6,165.4c-4.2-1-5.8-2.8-5-5.3c0.2-0.5,0.2-0.7,0.5-1.2c4.6-2.6,7.7-4.6,9.2-5.5c4.7-3.2,7.5-6,8.3-8.7
							c0.7-2.2-0.1-4.3-2.5-6.3c-1.1-0.3-2.6-0.4-4.6-0.3c-1.9,0.1-3.3,0.3-4.3,0.3c-1,0-1.9,0.1-2.9-0.2c-0.3-0.1-0.6-0.4-0.6-1.2
							c-0.2-0.8-0.1-1.6,0.1-2.4c4-1.2,7.4-1.4,10.5-0.6c2.2,0.5,3.9,1.5,4.9,2.8c2.3,2.4,2.9,5.5,1.7,9.3c-1,3.2-3.7,6.6-8,9.9
							c-2.3,1.8-5,3.3-8.3,5l3.8,3.6l-0.6,1.7C561.5,165.9,560.7,165.7,559.6,165.4z M553.1,185.6c-0.9-0.2-1.2-1.1-0.7-2.9
							c0.6-1.7,1.3-2.4,2.3-2.1c0.1,0,0.5-0.1,0.8-0.1c0.3,0.1,0.3,0.3,0.4,0.9c0.1,0.6,0,1.3-0.2,2.1c-0.2,0.7-0.6,1.5-1,1.9
							c-0.4,0.4-0.6,0.6-0.9,0.6C553.5,185.7,553.2,185.6,553.1,185.6z"/>
					</g>
				</g>
			</g>
		</g>
	</g>
	<text transform="matrix(0.9696 0.2449 -0.2449 0.9696 553.6078 126.2207)" class="st10"><tspan x="0" y="0" class="st15 st16">Zu welchen </tspan><tspan x="47.2" y="60" class="st15 st16">Themen </tspan><tspan x="-12.7" y="120" class="st15 st16">möchtest Du </tspan><tspan x="75" y="180" class="st15 st16">mehr </tspan><tspan x="24.5" y="240" class="st15 st16">erfahren?</tspan></text>
</g>
<g id="Ebene_13">
	<g id="Ebene_1_2_">
		
			<image style="overflow:visible;opacity:0.75;" width="595" height="468" xlink:href="63269631.png"  transform="matrix(1 0 0 1 283 10)">
		</image>
		<g>
			<g>
				<g transform="matrix(1, 0, 0, 1, 0, 0)">
					<g id="Sprechblase-2_11_" transform="translate(72.68 60.84) rotate(7)">
						<path class="st11" d="M416,263.5c-11.4-4.2-20.4-10.6-27.9-19.3c-20.5-23.9-37-64.3-45.1-110.9l-1.2-6.4l-4.5-0.6l-64.5-8.6
							l59.6-39.3l5.2-3.5l0.3-8.1c0.4-14,1.9-26.3,4.5-36.5c21.5-86,186-155.7,318.4-106.7c4.9,1.8,9.7,3.9,14.7,6
							C810-9.8,812.1,107.9,790.1,195.9c-2.2,8.7-4,17.3-5.8,25.9c-12.1,57.9-20.8,99.9-156.2,81.2c-30.4,0.5-95.3-15.6-96.9-16l0,0
							c-0.6-0.2-5.2-1.9-7.6-2.8c-21.4-7.9-41.9-10.1-61.5-12.1C445.2,270.2,429.6,268.5,416,263.5L416,263.5z"/>
						<path class="st12" d="M418.9,252.3c13.1,4.8,28.4,6.4,44.6,8.3c19.1,2.2,40.7,4.4,62.8,12.6c2.2,0.8,6.3,2.3,7.6,2.8
							c5.7,1.3,66.4,16.1,94.4,15.8l0.7,0l0.6,0.2c128.6,17.6,136-17.8,147.2-71.7c1.8-8.6,3.7-17.4,5.9-26.4
							c20.7-83,18.5-194.5-110.6-252.6c-4.7-2-9.5-4.1-14.2-5.8c-125.5-47.2-288.4,17-308.5,97.3c-2.2,8.7-3.4,20-4,32.6l-0.4,16.2
							l-10.3,6.8l-32,21.1l36.7,4.8l9,1.2l2.3,12.8c7.8,44.6,23.4,83.3,42.9,106C400,242.9,408.3,248.4,418.9,252.3L418.9,252.3
							 M413.2,274.7c-11.2-4.1-21.5-10.4-30.4-21c-23.8-27.6-39.6-71.8-47.3-116.1l-92.4-12.1l87.2-57.4c0.5-15.1,2.2-28.6,5-40.1
							c24.2-96.7,197-163.9,328.1-115.4c5,1.9,10,4,14.9,6C811.1-21.6,822,97.9,796.8,198.6c-18,72.1-9.5,137.9-170.8,115.8
							c-30.9,0.3-97.3-16.4-97.3-16.4s-5.4-2-8.2-3C481.4,280.6,443.5,285.9,413.2,274.7z"/>
					</g>
				</g>
				<g id="sprechblase_text_11_" transform="translate(232.485 181.187) rotate(-3)" class="st13">
					<g class="st14">
						<path d="M372.2,6.7l1.3,0.3c0.5,0.1,1,0.3,1.5,0.7c0.4,0.4,0.6,1,0.3,1.7c-0.5,2-1.4,2.8-3.1,2.1c-0.5-0.1-1-0.3-1.2-0.6
							c-0.3-0.1-0.6-0.2-1-0.3c-0.3-0.1-0.4,0.2-0.5,0.4c-0.1,1.6-0.3,3.1-0.5,4.9c-0.2,1.8-0.3,3.7-0.5,5.5
							c-0.2,4.5-0.1,8,0.3,10.2c-0.8,0.9-1.8,1.7-2.7,1.9c-0.9,0.6-1.4,0.7-1.4,0.7l-0.2,0l0.2-23.1l-14.4,1.5l-1.4,2.8
							c-2.7,5.2-4.9,8.8-6.7,10.7c-0.3,0.4-0.8,0.3-1.2-0.1c-0.8-0.7-1.1-1.4-1-1.9c0,0,0.8-1.4,2.3-3.9c1.5-2.5,3-5.1,4.5-7.6
							c1.5-2.5,3.2-5.3,4.8-8.1c1.7-2.7,3.3-5.5,4.8-8.1c1.5-2.5,2.9-4.8,4.1-6.9c1.2-2.1,2.1-3.4,2.6-4.4c0.5-0.9,0.9-1.9,1.3-2.6
							c0.2-0.7,0.6-1.4,0.9-1.9c0.6-0.9,1.7-1.4,3-1.1c0.9,1.6,1.6,3.3,1.7,5.2c0.2,2.2,0,4.3,0.1,6.4c-0.2,2.3-0.4,4.4-0.4,6.8
							c-0.2,2.3-0.2,4.5,0.2,6.5c0.1,0.8,0.3,1.2,1,1.3S371.7,6.5,372.2,6.7z M365.3-11.9c-1.3,2.9-2.7,5.7-4.7,8.6
							c-1.7,2.7-3.3,5-4.4,6.6c-1,1.6-2,2.9-2.8,4.3c2.1,0.6,5.1,0.3,8.8-0.9c1-0.3,1.9-0.6,2.7-0.9
							C366.5-4.2,366.7-10.2,365.3-11.9z"/>
						<path d="M392.7,39.6c-0.6,0.7-1.4,1-2.6,0.6c-1.1-0.3-1.5-1.2-1.1-2.4c1.8-5.7,3-9.6,3.5-11.6c1.2-4.8,1.5-7.3,0.6-7.8
							c-2-1.3-3.9-2.1-5.2-2.4c-1.4-0.4-2.8,0.1-4.2,1c-1.4,1-2.7,3-4.2,6.1c-1.4,2.8-3.1,7.2-5.2,12.5l-3.7-1
							c0.9-2.7,1.8-5.1,2.6-7.6s1.6-5.2,2.5-8.4c1-3.2,2-6.9,3.2-10.6c1.2-4.5,2.4-8.2,3.4-11.4c0.9-3,2-5.9,3-8.3
							c0.6-0.9,1.3-1.3,1.8-1.1c0.6,0.2,1.1,0.8,1.4,1.7c0.2,0.9,0.2,1.6-0.1,2.4L384.4,3c-1.4,4.4-2.3,7.9-2.7,10.2
							c3.8-2.2,7.2-2.9,10.1-2.1c1,0.3,2.1,0.6,3,1.1c1.8,2.6,2.6,5,2.8,7.1c0,1.1-0.1,2.4-0.4,3.6c-0.2,1.3-0.7,2.7-1.2,4.2
							C394.3,32.8,393.2,36.8,392.7,39.6z"/>
						<path d="M399.6,27.5c1.8-5.7,4.9-9.9,9.2-12.5c3.4-2,7-2.9,10.7-2.5c0.2,0,0.6,0.2,1.3,0.3c0.6,0.2,1.5,0.7,2.4,1.7
							c2.2,1.9,3.2,4.8,3.1,8.5c-0.1,1.3-0.1,2.6-0.4,3.6s-0.5,1.5-0.6,2c-1.9,5.9-4.9,10.4-9,13.1c-3.8,2.5-7.8,3-11.8,1.9
							c-3.1-0.8-5-2.4-5.8-5C397.7,36.4,398,32.7,399.6,27.5z M402.2,30.4c-0.9,3-1.1,5-0.3,6.6c0.6,1,1.7,1.8,3.6,2.3
							s3.6,0.7,5.1,0.5c1.6-0.1,3.1-0.5,4.4-1.2c3.1-1.6,5.4-5,7-9.9c0.9-3,1.2-5.3,0.8-7.5c-0.5-2.3-1.6-3.6-3.4-4.1
							c-1.4-0.1-2.7,0.1-4,0c-1.4,0.1-2.8,0.6-4.2,1.3C408.1,20.2,405,24.2,402.2,30.4z"/>
						<path d="M435,4.7c0.5-1.7,1.4-2.3,2.7-1.9c0.8,0.2,1.5,0.7,1.8,1.5c0,0.5-0.2,1-0.3,1.5c-0.2,0.5-0.5,0.9-0.8,1.4
							c-0.5,0.4-0.9,0.6-1.4,0.4c-0.5-0.1-0.9-0.5-1.3-0.9C435.3,5.8,435,5.2,435,4.7z M436.3,15.4c-2.4,9.2-5.3,19.6-8.9,31.5
							c-0.6,1.4-1.7,2-3,1.6c-0.3-0.1-0.6-0.2-1-0.5c-0.2-0.3-0.5-0.7-0.3-1.2l10.2-32.2L436.3,15.4z"/>
						<path d="M453-13.7c-0.6,1.2-3.2,9-7.7,23.3s-7.3,22.6-8.5,24.7l-3.2-0.9c1.6-4.9,3.7-11,6.2-18.6c5.1-14.4,8.3-23.9,9.9-29.1
							L453-13.7z M431.9,46c1.3,0.3,2,0.8,2.3,1.1c0.2,0.6,0.2,0.9,0.1,1.4c-0.9,1.9-2.1,2.9-3.3,2.8c-0.2,0-0.3-0.1-0.6-0.2
							c-0.2,0-0.5-0.1-0.7-0.5c-0.2-0.3-0.5-0.7-0.5-1.2C429.1,48.2,429.9,47.1,431.9,46z"/>
						<path d="M196.1,83.4c0.1-0.2,0.2-0.5,0.5-0.9c0.2-0.5,0.6-1.4,1.1-2.9c0.5-1.5,1.3-3.4,2-5.6c0.7-2.2,1.6-4.6,2.5-7.3
							c0.9-2.7,1.9-5.4,2.7-8.1c0.9-2.7,1.9-5.4,2.7-8.1c0.9-2.7,1.8-5.1,2.7-7.3c1.9-4.8,3.1-7.5,3.9-8.3c0.6-0.9,1.7-1.4,3.1-1
							l0.6,0.2c-0.5,1.7-2,5.6-4,11.5c-2.2,5.8-3.4,9.2-3.8,10.2c2.6-0.9,5-2.1,7.6-3.6c2.6-1.5,4.8-2.5,7-3.8
							c2.1-1,4.2-2.1,5.8-2.7c1.6-0.6,2.9-0.8,3.5-0.7c1.1,0.3,1.4,1.2,1,2.4c-0.3,1-1.2,2.1-2.5,3.1c-1.4,1-3,1.9-5,3
							c-1.8,0.8-4.1,1.9-6.2,2.6c-2.2,0.8-4.2,1.8-6.2,2.6c-1.8,0.8-3.5,1.7-4.9,2.7c-1.3,0.7-2.1,1.6-2.4,2.6
							c0.5,0.7,1.1,1.6,2,2.9c1,1.3,2.1,2.7,3.4,4.1c1.2,1.7,2.7,3.1,3.8,5c1.4,1.7,2.6,3.4,3.6,5.2c2.3,3.8,3.2,6.4,2.6,8.4
							c-0.2,0.7-0.6,0.9-1.2,1c-0.2,0-0.6,0.1-0.7,0.1l-0.5-0.1c-1.4-0.4-2.7-1.3-3.6-2.8c-1-1.3-2-3.2-2.9-5c-1-1.9-2.2-4.1-3.5-6
							c-1.4-2.2-3.3-4.1-5.4-6l-4.6,14.5c-0.1,0.2-0.5,0.4-1,0.5c-0.7,0.1-1.6,0.1-2.4-0.1C196.3,84.5,195.9,84.1,196.1,83.4z"/>
						<path d="M246.6,85c-4.2,5-8.4,7.6-12.9,8.1c-1,0-1.9,0-2.6-0.1c-0.8-0.2-1.3-0.3-1.8-0.5c-0.5-0.1-0.9-0.5-1.5-0.7
							c-0.6-0.4-1-0.8-1.3-1.4c-0.8-1.3-1-2.9-0.4-4.7c0.2-1,0.4-1.8,0.8-3c0.3-1,0.9-2.4,1.8-4.1c0.9-1.6,2.1-3.4,3.6-5.2
							s3-3.5,4.9-4.8c3.6-3,7-4.5,10.3-5c0.9,0,1.8-0.1,2.6,0.1c0.6,0.2,1.3,0.3,1.9,0.8c1.8,0.5,2.4,2.8,1.9,6.6
							c-0.3,2.6-1.1,5.8-2.4,10.3c-1.3,4.2-2.3,7.7-3,9.9c-0.7,2.2-1.1,4.5-1.4,6.6l-2.7-0.7c0.2-1.3,0.6-2.5,0.8-3.5
							c0.3-1,0.5-2,0.7-2.7C246.1,88.4,246.5,86.6,246.6,85z M250,73.7c0.9-2.7,0.4-4.4-1.4-4.9c-0.2,0-0.5-0.1-0.6-0.2
							c-2.3-0.6-5.2,0.5-8.9,3.2c-1.6,1.2-3.3,2.6-4.7,4.4c-2.1,2.4-3.6,4.7-4.3,6.9c-0.9,3-0.3,4.7,1.6,6c2.9,0.8,6.1-0.5,9.9-3.8
							c1.7-1.4,3-2.9,4.5-4.7C248.1,78,249.4,75.7,250,73.7z"/>
						<path d="M272.3,87.6c1.8-5.7,3-9.9,3.3-12.7c0.6-0.7,0.2-1-0.8-1.3c-1.1-0.3-2.6-0.1-4.6,0.1s-3.6,0.9-5,1.3
							c-3.2,1.3-5.2,2.6-5.9,4.3L253.2,99l-3.2-0.9c0.1-1.8,1.3-6.3,3.7-13.9c2.1-6.6,3.8-11.5,5-14.7c1.2-3.2,1.9-4.8,2-5.3
							c1-0.5,1.8-0.8,2.3-0.7c0.8,0.2,0.7,1.8-0.2,4.5c-0.3,1-0.7,2.2-1.2,3.2c-0.3,1-0.7,1.7-0.9,2.2c6.9-4.3,11.7-6.2,14.6-5.4
							c3.2,0.9,3.7,5.3,1.7,13.3c-0.7,2.7-1.8,6.7-3.3,11.4l-1.8,5.7c-0.7,2.2-1.3,4.2-1.8,6.2c-0.4,0.2-0.8,0.3-1,0.3
							c-0.2,0-0.3-0.1-0.6-0.4c-0.3-0.1-0.6-0.4-1.2-0.6c0.3-2.1,0.8-4.1,1.4-6s1.2-3.9,1.7-5.4L272.3,87.6z"/>
						<path d="M296.5,94c1.8-5.7,3-9.9,3.3-12.7c0.6-0.7,0.2-1-0.8-1.3c-1.1-0.3-2.6-0.1-4.6,0.1c-2,0.3-3.6,0.9-5,1.3
							c-3.2,1.3-5.2,2.6-5.9,4.3l-6.2,19.7l-3.2-0.9c0.1-1.8,1.3-6.3,3.7-13.9c2.1-6.6,3.8-11.5,5-14.7c1.2-3.2,1.9-4.8,2-5.3
							c1-0.5,1.8-0.8,2.3-0.7c0.8,0.2,0.7,1.8-0.2,4.5c-0.3,1-0.7,2.2-1.2,3.2c-0.3,1-0.7,1.7-0.9,2.2c6.9-4.3,11.7-6.2,14.6-5.4
							c3.2,0.9,3.7,5.3,1.7,13.3c-0.7,2.7-1.8,6.7-3.3,11.4l-1.8,5.7c-0.7,2.2-1.3,4.2-1.8,6.2c-0.4,0.2-0.8,0.3-1,0.3
							c-0.2,0-0.3-0.1-0.6-0.4c-0.3-0.1-0.7-0.5-1.2-0.6c0.3-2.1,0.8-4.1,1.4-6s1.2-3.9,1.7-5.4L296.5,94z"/>
						<path d="M330.3,72.9c0.5-1.7,1.4-2.3,2.7-1.9c0.8,0.2,1.5,0.7,1.8,1.5c0,0.5-0.2,1-0.3,1.5c-0.2,0.5-0.5,0.9-0.8,1.4
							c-0.3,0.4-0.9,0.6-1.4,0.4c-0.5-0.1-0.9-0.5-1.3-0.9C330.6,74,330.4,73.4,330.3,72.9z M331.6,83.6c-2.4,9.2-5.3,19.6-8.9,31.5
							c-0.6,1.4-1.7,2-3,1.6c-0.3-0.1-0.6-0.2-1-0.5c-0.2-0.3-0.5-0.7-0.3-1.2l10.2-32.2L331.6,83.6z"/>
						<path d="M345.5,115.8c1.5-0.4,3-0.8,4.4-1.2c1.5-0.4,2.7-0.3,3.9,0s1.5,0.9,1.1,1.9c-0.1,0.2-0.2,0.5-0.6,1.2
							c-0.2,0.5-0.8,0.9-1.8,1.4c-1,0.5-2.2,1-3.5,1.2c-1.4,0.4-2.8,0.6-4.3,0.7s-2.9,0.3-4.3,0.4c-2.8,0.1-4.9,0-6-0.3
							s-2.2-0.8-3.4-1.4c-1.1-0.8-2.1-1.6-2.9-2.9c-2-2.7-2.3-5.9-1.1-9.9c0.1-0.2,0.3-1,0.5-1.7c0.3-1,0.9-2.2,1.8-3.5
							c1-1.6,2.1-2.9,3.7-4.4c1.5-1.5,3.1-2.6,4.8-3.5c3.5-2.3,7-3.2,10.2-3.4c1,0,1.9,0,2.7,0.2c0.6,0.2,1.3,0.3,1.6,0.4
							c0.5,0.1,1,0.3,1.2,0.6c0.5,0.1,0.7,0.5,1.1,0.8c0.6,1,0.7,2.3,0.1,4c-0.4,1.2-1.2,2.1-2.7,3c-0.4,0.2-0.6,0.4-1,0.5
							c0.2-1,0.3-2.1,0.2-2.9c-0.1-0.8-0.4-1.4-1.2-1.7c-4.1,0.2-7.9,1.1-11.2,2.9c-3.9,1.9-6.3,4.5-7.2,7.4c-0.1,0.2-0.2,0.7-0.3,1
							c-1,3.2-0.8,5.4,0.2,7.2c0.8,1.3,2.3,2.2,4,2.7s3.5,0.7,5.1,0.3C342.4,116.6,344,116.2,345.5,115.8z"/>
						<path d="M377,131.4c-0.6,0.7-1.4,1-2.6,0.6c-1.3-0.3-1.5-1.2-1.1-2.4c1.8-5.7,3-9.6,3.5-11.6c1.2-4.8,1.5-7.3,0.6-7.8
							c-2-1.3-3.9-2.1-5.2-2.4c-1.4-0.4-2.8,0.1-4.2,1c-1.4,1-2.7,3-4.2,6.1c-1.4,2.8-3.1,7.2-5.2,12.5l-3.7-1
							c0.9-2.7,1.8-5.1,2.6-7.6c0.8-2.5,1.6-5.2,2.5-8.4c1-3.2,2-6.9,3.2-10.6c1.2-4.5,2.4-8.2,3.4-11.4c0.9-3,2-5.9,3-8.3
							c0.6-0.9,1.3-1.3,1.9-1.1c0.6,0.2,1.1,0.8,1.4,1.7s0.2,1.6-0.1,2.4l-3.9,11.8c-1.4,4.4-2.3,7.9-2.7,10.2
							c3.8-2.2,7.2-2.9,10.1-2.1c1,0.3,1.9,0.5,3,1.1c1.8,2.6,2.6,5,2.8,7.1c0,1.1-0.1,2.4-0.4,3.6c-0.2,1.3-0.7,2.7-1.2,4.2
							C378.7,124.6,377.6,128.6,377,131.4z"/>
						<path d="M420.2,142.8c-0.6,0.7-1.4,1-2.6,0.6c-1.1-0.3-1.5-1.2-1.1-2.4c1.8-5.7,3-9.6,3.5-11.6c1.2-4.8,1.5-7.3,0.6-7.8
							c-2-1.3-3.9-2.1-5.2-2.4c-1.4-0.4-2.8,0.1-4.2,1c-1.4,1-2.7,3-4.2,6.1c-1.4,2.8-3.1,7.2-5.2,12.5l-3.7-1
							c1.1-2.9,1.9-5.4,2.7-7.8c0.8-2.5,1.6-5.2,2.5-8.4c1-3.2,2-6.9,3.2-10.6c1.2-4.5,2.4-8.2,3.4-11.4c0.9-3,2-5.9,3-8.3
							c0.6-0.9,1.3-1.3,1.8-1.1c0.6,0.2,1.1,0.8,1.4,1.7c0.2,0.9,0.2,1.6-0.1,2.4L412,106c-1.4,4.4-2.3,7.9-2.7,10.2
							c3.8-2.2,7.2-2.9,10.1-2.1c1,0.3,1.9,0.5,3,1.1c1.8,2.6,2.6,5,2.8,7.1c0,1.1-0.1,2.4-0.4,3.6c-0.2,1.3-0.7,2.7-1.2,4.2
							C421.8,136.1,420.9,140.1,420.2,142.8z"/>
						<path d="M432.9,141.9c2.7,0.7,7.6-0.1,14.4-2.3c0.3,0.1,0.6,0.4,0.6,0.7c0.1,0.3,0.1,0.8-0.1,1.3c-2.3,2.9-5.5,4.7-9.7,5.7
							c-4.1,0.8-7.6,0.4-10.3-1.7c-3.1-2.4-4.2-5.9-3.6-10.8c0.3-1,0.5-2.3,1-3.7c0.5-1.5,1.5-3.6,2.8-5.9c1.3-2.3,3-4.5,5-6.4
							s4-3.2,6.2-4.2c2.2-0.8,4.2-1,6.1-0.5c1.8,0.5,3.6,2,5.2,4.6c0.8,1.3,1.3,2.5,1.6,3.9c0.3,1.4,0.3,2.5-0.1,3.7
							c-0.1,0.2-0.2,0.7-0.3,1c-0.9,3-2.4,4.4-4.5,4.9c-0.9,0-1.9,0-2.9-0.2l-6.8-2.3c-2.3-0.6-4.3-0.3-5.9,0.8
							c-0.9,0.6-1.8,1.7-2.6,3.3C428.3,138.3,429.7,141.1,432.9,141.9z M448.4,121.8c-0.4-0.9-1.1-1.6-1.7-2.3
							c-0.7-0.5-1.3-0.9-1.8-1c-0.5-0.1-1.4-0.1-2.7,0.1c-1.3,0.2-2.4,0.4-3.6,0.9c-2.6,0.9-4.2,2.3-4.8,4.1c2.5,0.9,4.2,1.6,5.5,2
							c3.5,0.9,6,1,7.6,0.4c1-0.3,1.4-0.7,1.7-1.4C448.9,123.8,448.9,122.7,448.4,121.8z"/>
						<path d="M457.6,123.4c0.9-2.7,1.4-5,2-6.9s0.9-3.5,1.2-4.5s0.8-3.5,1.5-7.3c0.5-0.4,0.9-1.1,1.4-1.5c0.5-0.4,0.9-0.6,1.4-0.4
							c1.1,0.3-0.3,7.6-4.1,21.8c-2.2,8.2-4.7,16.6-7.3,24.7c-0.7,2.2-2,2.9-4.1,2.4l-0.3-0.1c0.8-2.5,1.8-5.7,2.9-9.6
							c1.1-4,2.2-7.4,3-10.1C456.1,128.9,456.8,126.1,457.6,123.4z"/>
						<path d="M490.2,136.3c0.2,0-0.1,0.8-0.5,2c-0.4,1.2-0.7,2.2-0.7,2.7l-17-1.3l-4.3,16.2l-3.8-1.3c1.4-4.4,2.6-9.4,3.7-15
							l-7.3,2.1c-0.5-0.1-0.7-0.5-0.7-1.2c-0.1-1.4,0-2.7,0.3-3.7l8.5-2c2-8.5,3.8-15.3,5.4-20.4c1.6-5.2,3.2-9,4.6-11.8
							c1.6-2.8,3-4.5,4.3-5.3c1.4-0.7,2.7-0.9,4-0.5c1.3,0.3,2.3,1.1,3.3,2.2c1.1,1.1,1.8,2.6,2.7,4.2c0.7,1.5,1.2,3.3,1.6,4.9
							c0.3,1.7,0.3,3.5-0.2,5c-0.4,1.2-0.6,2-0.9,2.4c-0.4-3-1.1-5.9-2.3-8.3c-1.3-3-3-4.8-4.8-5.3c-1.8-0.5-3.7,1.2-5.4,5
							c-0.9,1.9-2,4.8-3.2,8.5s-2.3,7.1-3,10.1c-0.8,3-1.5,6.3-1.8,9.4c1.9,0.5,4.3,0.9,6.8,1C484.5,135.6,488.1,135.8,490.2,136.3z
							"/>
						<path d="M495.4,158.5c2.7,0.7,7.6-0.1,14.4-2.3c0.3,0.1,0.6,0.4,0.6,0.7c0.1,0.3,0.1,0.8-0.1,1.3c-2.3,2.9-5.6,4.9-9.7,5.7
							c-4.1,0.8-7.6,0.4-10.3-1.7c-3.1-2.4-4.2-5.9-3.6-10.8c0.3-1,0.5-2.3,1-3.7c0.5-1.5,1.5-3.6,2.8-5.9s3-4.5,5-6.4
							c2-1.9,4-3.2,6.2-4.2c2.2-0.8,4.2-1,6.1-0.5c1.8,0.5,3.6,2,5.2,4.6c0.8,1.3,1.3,2.5,1.6,3.9c0.3,1.4,0.3,2.5-0.1,3.7
							c-0.1,0.2-0.2,0.7-0.3,1c-0.9,3-2.4,4.4-4.5,4.9c-0.9,0-1.9,0-2.9-0.2l-6.6-2.3c-2.3-0.6-4.3-0.3-5.9,0.8
							c-0.9,0.6-1.8,1.7-2.6,3.3C490.8,154.9,492.2,157.7,495.4,158.5z M510.9,138.4c-0.4-0.9-1.1-1.6-1.7-2.3
							c-0.7-0.5-1.3-0.9-1.8-1c-0.5-0.1-1.4-0.1-2.7,0.1c-1.3,0.2-2.4,0.4-3.6,0.9c-2.6,0.9-4.2,2.3-4.8,4.1c2.5,0.9,4.2,1.6,5.5,2
							c3.5,0.9,6,1,7.6,0.4c1-0.3,1.4-0.7,1.7-1.4C511.4,140.4,511.3,139.3,510.9,138.4z"/>
						<path d="M533.6,156.9c1.8-5.7,3-9.9,3.3-12.7c0.6-0.7,0.2-1-0.8-1.3c-1.1-0.3-2.6-0.1-4.6,0.1s-3.6,0.9-5,1.3
							c-3.2,1.3-5.2,2.6-5.9,4.3l-6.2,19.7l-3.2-0.9c0.1-1.8,1.3-6.3,3.7-13.9c2.1-6.6,3.8-11.5,5-14.7s1.9-4.8,2-5.3
							c1-0.5,1.8-0.8,2.3-0.7c0.8,0.2,0.7,1.8-0.2,4.5c-0.3,1-0.7,2.2-1.2,3.2c-0.3,1-0.7,1.7-0.9,2.2c6.9-4.3,11.7-6.2,14.6-5.4
							c3.2,0.9,3.7,5.3,1.7,13.3c-0.7,2.7-1.8,6.7-3.3,11.4l-1.8,5.7c-0.7,2.2-1.3,4.2-1.8,6.2c-0.4,0.2-0.8,0.3-1,0.3
							c-0.2,0-0.3-0.1-0.6-0.4c-0.3-0.1-0.7-0.5-1.2-0.6c0.3-2.1,0.8-4.1,1.4-6s1.2-3.9,1.7-5.4L533.6,156.9z"/>
						<path d="M552.6,157.7c-5-1.3-7-3.2-6.2-5.7c0.2-0.5,0.2-0.7,0.6-1.2c5.3-2.3,8.8-4.1,10.5-5c5.3-2.9,8.4-5.5,9.2-8.2
							c0.7-2.2-0.4-4.4-3.4-6.5c-1.3-0.3-3.1-0.6-5.4-0.6c-2.3-0.1-3.9,0-5.1,0c-1.2-0.1-2.3-0.1-3.4-0.4c-0.3-0.1-0.7-0.5-0.8-1.3
							c-0.2-0.9-0.2-1.6-0.1-2.4c4.7-0.9,8.7-0.9,12.4,0.1c2.6,0.7,4.7,1.8,6,3.2c2.8,2.6,3.8,5.8,2.6,9.5c-1,3.2-4,6.4-8.7,9.4
							c-2.6,1.7-5.7,3-9.4,4.4l4.7,3.9l-0.5,1.7C554.8,158.3,553.9,158,552.6,157.7z M546.3,177.6c-1.1-0.3-1.5-1.2-1-2.9
							s1.4-2.3,2.6-2c0.2,0,0.6-0.1,0.9,0c0.3,0.1,0.4,0.4,0.6,1c0.2,0.6,0.1,1.4-0.1,2.1c-0.2,0.7-0.6,1.4-1.1,1.8
							c-0.5,0.4-0.7,0.6-1,0.5C546.8,177.7,546.4,177.7,546.3,177.6z"/>
					</g>
				</g>
			</g>
		</g>
	</g>
	<g>
		<path d="M558.3,109.7c-7.9-1.4-15.2-2.9-21.7-4.5c-9.1-2.3-13.5-4-13.2-5.2c0.1-0.3,0.3-0.5,0.7-0.6l26.2-17.7
			c-1.2-0.4-2.3-0.7-3.1-0.9c-0.8-0.2-1.7-0.4-2.7-0.7c-1-0.2-2.3-0.5-3.9-0.8c-4.7-0.8-8-1.4-9.8-1.7c-0.5-0.1-0.7-0.3-0.8-0.6
			c0-0.3,0-1,0.2-2.1c7.2,1,15.4,2.5,24.5,4.5c0.4,0.1,0.9,0.3,1.2,0.5c0.4,0.2,0.5,0.6,0.4,1.1c-1.5,2.2-5.6,5.5-12.2,9.7
			c-7.8,5-12.3,8-13.6,9c1.6,0.8,3.6,1.5,6,2.1s4.7,1.1,7.2,1.6c2.4,0.5,5,0.9,7.6,1.3c2.6,0.4,5.2,0.9,7.5,1.3L558.3,109.7z"/>
		<path d="M562.3,104.8c0.1-0.5,0.3-1.2,0.4-2.1c0.1-0.9,0.3-1.9,0.5-3c0.2-1.1,0.5-2.2,0.7-3.3c0.3-1.1,0.6-2.1,1-3
			c0.9-1.9,2-2.8,3.3-2.4c0.8,0.5,1.3,0.9,1.5,1.4c0.2,0.5,0.2,1,0.1,1.5c-0.1,0.6-0.5,1.2-0.9,2c-1.7,2.5-2.9,4.8-3.4,7
			c-0.2,0.7-0.3,1.5-0.4,2.4c0,2.2,1.4,3.7,4.4,4.5c1.5,0.4,3.1,0.5,4.6,0.3c2.9-0.3,5-1,6.3-2.1c0.7-1.4,1.1-2.6,1.4-3.7
			s0.5-2.1,0.6-2.9c0.1-0.9,0.3-1.8,0.4-2.9s0.4-2.2,0.6-3.4c0.5-0.1,0.9-0.1,1.3,0s0.8,0.4,1.1,0.9c0.3,0.5,0.5,1.4,0.5,2.6
			c0,1.2-0.1,2.6-0.4,4.1c-0.3,1.6-0.6,3.2-1,4.8c-0.4,1.6-0.8,3.2-1.2,4.8c-0.4,1.5-0.7,2.9-0.8,4c-0.5,0.3-0.9,0.3-1.2,0.2
			c-1.3-0.3-1.9-1.8-1.8-4.5c-0.5,0.2-1.3,0.5-2.4,0.8c-2.4,0.6-5,0.7-8,0.4c-0.6-0.1-1.2-0.2-1.8-0.4c-0.7-0.2-1.5-0.5-2.4-1
			c-0.9-0.5-1.7-1.3-2.4-2.5C562.3,108.1,562.1,106.6,562.3,104.8z"/>
		<path d="M626.3,113.7c-1.3,2.1-2.4,4.1-3.3,6c-1,1.8-1.8,3.4-2.6,4.5c-1.2,1.7-2.2,2.4-3.1,2.2c-0.5-0.1-1-0.5-1.4-1.1
			c-1.1-1.9-2.2-5.9-3.6-11.8c-1.3-5.8-1.8-9.4-1.4-10.7c0.1-0.6,0.4-0.9,0.8-0.9c0.4-0.1,0.8,0,1.2,0.3c1,0.6,1.6,1.3,1.9,2
			c0.1,0.4,0.3,1,0.4,1.9l0.4,3.2c0.5,3.6,1,7,1.6,10.1c1-0.9,2-2.1,3-3.7l2.5-3.7c2.2-3.2,3.8-4.8,4.8-4.6c0.9-0.3,2.6,3.1,5,10.2
			c1,3,1.7,4.8,2,5.4c0.3,0.1,0.9-0.8,1.7-2.6s1.6-3.3,2.3-4.5c0.6-1.2,1.3-2.4,2-3.4c1.7-2.4,3.2-3.4,4.6-3.1
			c0.4,0.1,0.7,0.3,0.8,0.7c0.1,0.3,0.1,0.6,0.1,0.8c0,0.2-0.1,0.3-0.1,0.4c-0.7,1-1.4,2.1-2.1,3.4s-1.5,2.6-2.4,3.9
			c-0.8,1.3-1.6,2.6-2.4,3.9c-0.8,1.3-1.6,2.4-2.3,3.5c-1.7,2.2-2.9,3.3-3.6,3.3c-0.6,0.1-1.3-0.7-2.1-2.5c-0.4-0.8-0.7-1.8-1.1-2.9
			c-0.4-1.1-0.7-2.2-1.2-3.4C627.7,117.6,626.9,115.3,626.3,113.7z"/>
		<path d="M654.7,131.3c2.8,0.7,7.3,0.5,13.5-0.6c0.3,0.1,0.6,0.3,0.8,0.6c0.2,0.3,0.2,0.6,0.1,0.9c-1.8,1.8-4.6,2.9-8.5,3.2
			c-3.9,0.3-7.3-0.3-10.1-1.9c-3.3-1.8-4.9-4.3-4.9-7.5c0.1-0.6,0.3-1.4,0.5-2.4c0.3-1,0.9-2.3,1.8-3.8c0.9-1.5,2.2-2.9,3.9-4
			c1.6-1.2,3.4-2,5.3-2.4c1.9-0.4,3.8-0.4,5.8,0.1c1.8,0.5,3.7,1.6,5.7,3.4c0.9,0.9,1.6,1.8,2,2.7c0.4,0.9,0.6,1.8,0.4,2.6
			c-0.1,0.2-0.1,0.4-0.2,0.6c-0.5,1.9-1.8,2.9-3.7,2.9c-0.8,0-1.8-0.1-2.8-0.4l-6.7-2c-2.3-0.6-4.1-0.5-5.6,0.2
			c-0.8,0.4-1.5,1-2.1,2C649.8,128.5,651.4,130.5,654.7,131.3z M666.8,118.8c-0.6-0.7-1.2-1.2-1.9-1.6c-0.7-0.4-1.3-0.7-1.8-0.8
			c-0.5-0.1-1.4-0.2-2.6-0.1c-1.2,0-2.3,0.2-3.3,0.3c-2.4,0.5-3.8,1.2-4.1,2.3c2.5,0.9,4.3,1.4,5.6,1.8c3.5,0.9,5.9,1.2,7.3,0.9
			c0.8-0.1,1.3-0.4,1.4-0.9C667.6,120.1,667.4,119.5,666.8,118.8z"/>
		<path d="M675.9,120.6c0.4-1.7,0.7-3.3,1-4.6c0.3-1.4,0.5-2.4,0.6-3c0.1-0.7,0.3-2.3,0.4-5c0.4-0.3,0.7-0.6,1.1-0.9
			c0.4-0.3,0.8-0.4,1.3-0.2c1.1,0.3,0.8,5.1-1,14.6c-1,5.5-2.3,10.9-3.6,16.3c-0.4,1.5-1.6,1.9-3.6,1.4l-0.4-0.1
			c0.4-1.6,0.9-3.8,1.4-6.3c0.6-2.6,1-4.8,1.5-6.7S675.5,122.3,675.9,120.6z"/>
		<path d="M698.5,140.5c1.4-0.2,2.8-0.4,4.1-0.5c1.3-0.1,2.6-0.1,3.7,0.2c1.1,0.3,1.6,0.8,1.4,1.5c0,0.2-0.1,0.4-0.3,0.7
			s-0.7,0.6-1.6,0.9c-0.9,0.3-1.9,0.5-3.2,0.6s-2.5,0.2-4,0.2c-1.4,0-2.8,0-4.1-0.1c-2.8-0.1-4.7-0.3-5.8-0.6s-2.3-0.7-3.5-1.3
			s-2.3-1.3-3.3-2.1c-2.2-2-3-4.3-2.4-6.8c0-0.2,0.1-0.6,0.3-1.1c0.1-0.6,0.6-1.3,1.3-2.3s1.7-1.8,2.9-2.6c1.2-0.8,2.6-1.5,4-2.1
			c3.1-1.2,6.2-1.8,9.3-1.6c1.1,0,1.9,0.1,2.6,0.3c0.7,0.2,1.2,0.3,1.7,0.4c0.4,0.1,0.9,0.3,1.3,0.4c0.5,0.2,0.8,0.4,1.1,0.7
			c0.7,0.6,0.9,1.5,0.6,2.7c-0.2,0.8-0.9,1.4-2.2,1.8c-0.3,0.1-0.6,0.2-0.9,0.3c0-0.8,0-1.4-0.1-2c-0.1-0.6-0.6-1-1.5-1.2
			c-3.9-0.2-7.4,0.2-10.5,1.1c-3.5,1-5.5,2.5-6,4.5c-0.1,0.2-0.1,0.5-0.1,0.7c-0.5,2-0.1,3.7,1.2,4.9c1,0.9,2.4,1.6,4.3,2.1
			c1.8,0.5,3.5,0.7,5,0.6C695.6,140.9,697,140.7,698.5,140.5z"/>
		<path d="M731.1,153.4c-0.4,0.5-1.2,0.5-2.4,0.2c-1.2-0.3-1.7-0.9-1.5-1.7c0.9-3.7,1.5-6.3,1.7-7.7c0.5-3.1,0.3-4.9-0.6-5.4
			c-2.2-1-4-1.7-5.4-2.1c-1.4-0.4-2.7-0.2-3.9,0.4c-1.2,0.6-2.2,1.9-3.2,3.8c-1,1.9-2.1,4.6-3.2,8.2l-3.6-0.9c0.5-1.8,1-3.4,1.4-5
			c0.4-1.5,0.8-3.4,1.3-5.5c0.5-2.1,1-4.5,1.5-7c0.6-2.9,1.1-5.4,1.6-7.4c0.5-2,1.1-3.8,1.8-5.4c0.5-0.5,1-0.7,1.6-0.6
			c0.7,0.2,1.2,0.6,1.5,1.2c0.3,0.6,0.4,1.1,0.3,1.6l-2.2,7.8c-0.7,2.9-1.2,5.2-1.2,6.7c3.3-1.2,6.5-1.4,9.5-0.6c1,0.2,2,0.6,3.1,1
			c2.1,1.8,3.3,3.5,3.6,5.1c0.2,0.8,0.2,1.6,0.1,2.5c-0.1,0.8-0.3,1.8-0.5,2.8C731.7,148.9,731.3,151.6,731.1,153.4z"/>
		<path d="M743.2,153.6c2.8,0.7,7.3,0.5,13.5-0.6c0.3,0.1,0.6,0.3,0.8,0.6c0.2,0.3,0.2,0.6,0.1,0.9c-1.8,1.8-4.6,2.9-8.5,3.2
			c-3.9,0.3-7.3-0.3-10.1-1.9c-3.3-1.8-4.9-4.3-4.9-7.5c0.1-0.6,0.3-1.4,0.5-2.4s0.9-2.3,1.8-3.8c0.9-1.5,2.2-2.9,3.9-4
			c1.6-1.2,3.4-2,5.3-2.4c1.9-0.4,3.8-0.4,5.8,0.1c1.8,0.5,3.7,1.6,5.7,3.4c0.9,0.9,1.6,1.8,2,2.7c0.4,0.9,0.6,1.8,0.4,2.6
			c-0.1,0.2-0.1,0.4-0.2,0.7c-0.5,1.9-1.8,2.9-3.7,2.9c-0.8,0-1.8-0.1-2.8-0.4l-6.7-2c-2.3-0.6-4.1-0.5-5.6,0.2
			c-0.8,0.4-1.5,1-2.1,2C738.3,150.9,740,152.8,743.2,153.6z M755.4,141.1c-0.6-0.7-1.2-1.2-1.9-1.6c-0.7-0.4-1.3-0.7-1.8-0.8
			c-0.5-0.1-1.4-0.2-2.6-0.1s-2.3,0.2-3.3,0.3c-2.4,0.5-3.8,1.2-4.1,2.3c2.5,0.9,4.3,1.4,5.6,1.8c3.5,0.9,5.9,1.2,7.3,0.9
			c0.8-0.1,1.3-0.4,1.4-0.9C756.2,142.5,755.9,141.8,755.4,141.1z"/>
		<path d="M780,155.4c0.9-3.8,1.4-6.6,1.5-8.4c0.4-0.4,0.1-0.7-1-1c-1.1-0.3-2.5-0.4-4.4-0.2s-3.4,0.3-4.6,0.6
			c-2.9,0.6-4.6,1.4-5.2,2.5l-3.3,12.9l-3.2-0.8c-0.1-1.2,0.4-4.2,1.7-9.2c1.1-4.4,2-7.6,2.7-9.7c0.7-2,1.1-3.2,1.3-3.4
			c1-0.3,1.7-0.4,2.2-0.3c0.8,0.2,0.9,1.2,0.5,3.1c-0.2,0.7-0.4,1.4-0.7,2.1c-0.3,0.7-0.4,1.1-0.5,1.4c6.1-2.5,10.5-3.3,13.3-2.6
			c3.2,0.8,4.4,3.8,3.5,9.1c-0.3,1.8-0.8,4.4-1.6,7.6l-1,3.7c-0.4,1.4-0.7,2.7-0.9,4c-0.4,0.1-0.6,0.1-0.8,0.1
			c-0.1-0.1-0.3-0.2-0.6-0.3c-0.3-0.1-0.7-0.3-1.2-0.5c0-1.3,0.2-2.7,0.5-4c0.3-1.3,0.6-2.5,0.9-3.6L780,155.4z"/>
		<path d="M581.9,153.6l-4.2-1.2c-1.1-0.3-2.4-0.5-3.9-0.6c-0.4,1.2-0.9,2.8-1.6,4.7c-2.4,6.8-3.9,11.2-4.4,13.3
			c-0.5,2.1-0.9,3.5-1,4.4l-4.5-0.8l7.4-23l-9.9-3.1c-0.3-0.1-0.4-0.3-0.4-0.8s0-0.8,0.1-1.2s0.3-0.7,0.7-1s0.8-0.5,1.2-0.4
			c2.3,0.7,4.6,1.4,6.8,2.2c4.2,1.5,7.9,2.6,10.9,3.4l3,0.6c2.3,0.5,4.7,0.8,7.1,1c0.5,0.2,0.6,1.1,0.3,2.6c0,0.3-0.1,0.6-0.1,0.8
			C586.9,154.5,584.4,154.2,581.9,153.6z"/>
		<path d="M606.7,183.9c-0.4,0.5-1.2,0.5-2.4,0.2c-1.2-0.3-1.7-0.9-1.5-1.7c0.9-3.7,1.5-6.3,1.7-7.7c0.5-3.1,0.3-4.9-0.6-5.4
			c-2.2-1-4-1.7-5.4-2.1s-2.7-0.2-3.9,0.4s-2.2,1.9-3.2,3.8c-1,1.9-2.1,4.6-3.2,8.2l-3.6-0.9c0.5-1.8,1-3.4,1.4-5
			c0.4-1.5,0.8-3.4,1.3-5.5c0.5-2.1,1-4.5,1.5-7c0.6-2.9,1.1-5.4,1.6-7.4c0.5-2,1.1-3.8,1.8-5.4c0.5-0.5,1-0.7,1.6-0.6
			c0.7,0.2,1.2,0.6,1.5,1.2c0.3,0.6,0.4,1.1,0.3,1.6l-2.2,7.8c-0.7,2.9-1.2,5.2-1.2,6.7c3.3-1.2,6.5-1.4,9.5-0.6c1,0.2,2,0.6,3.1,1
			c2.1,1.8,3.3,3.5,3.6,5.1c0.2,0.8,0.2,1.6,0.1,2.5c-0.1,0.8-0.3,1.8-0.5,2.8C607.3,179.4,606.8,182.1,606.7,183.9z"/>
		<path d="M618.8,184.1c2.8,0.7,7.3,0.5,13.5-0.6c0.3,0.1,0.6,0.3,0.8,0.6c0.2,0.3,0.2,0.6,0.1,0.9c-1.8,1.8-4.6,2.9-8.5,3.2
			s-7.3-0.3-10.1-1.9c-3.3-1.8-4.9-4.3-4.9-7.5c0.1-0.6,0.3-1.4,0.5-2.4c0.3-1,0.9-2.3,1.8-3.8s2.2-2.9,3.9-4s3.4-2,5.3-2.4
			c1.9-0.4,3.8-0.4,5.8,0.1c1.8,0.5,3.7,1.6,5.7,3.4c0.9,0.9,1.6,1.8,2,2.7c0.4,0.9,0.6,1.8,0.4,2.6c-0.1,0.2-0.1,0.4-0.2,0.7
			c-0.6,1.9-1.8,2.9-3.7,2.9c-0.8,0-1.8-0.1-2.8-0.4l-6.7-2c-2.3-0.6-4.1-0.5-5.6,0.2c-0.8,0.4-1.5,1-2.1,2
			C613.9,181.3,615.5,183.3,618.8,184.1z M630.9,171.6c-0.6-0.7-1.2-1.2-1.9-1.6c-0.7-0.4-1.3-0.7-1.8-0.8c-0.5-0.1-1.4-0.2-2.6-0.1
			c-1.2,0-2.3,0.2-3.3,0.3c-2.4,0.5-3.8,1.2-4.1,2.3c2.5,0.9,4.3,1.4,5.6,1.8c3.5,0.9,5.9,1.2,7.3,0.9c0.8-0.1,1.3-0.4,1.4-0.9
			C631.7,172.9,631.5,172.3,630.9,171.6z"/>
		<path d="M638.6,191.8c-1.4,0.2-2.4,0.3-2.8,0.2c-0.4-0.1-0.7-0.2-0.8-0.4s-0.3-0.4-0.4-0.8c0.3-1,0.6-2.3,1.1-3.9
			c0.5-1.6,1-3.2,1.5-5c0.5-1.8,1-3.6,1.5-5.4c0.5-1.8,0.8-3.5,1-5.1c0.3-1,1.1-1.3,2.4-1c0.3,0.1,0.4,0.7,0.3,1.9
			c-0.1,1.2-0.2,2.1-0.3,2.7c-0.1,0.7-0.1,1.1-0.1,1.4c1.2-1.3,3.1-2,5.8-2.3c1.4-0.1,2.7,0,3.8,0.3s2.1,0.7,2.9,1.2
			c0.8,0.5,1.4,1.2,1.9,2c0.4,0.9,0.5,1.9,0.2,3c1.2-1.3,3.4-2.3,6.6-2.8c2.9-0.5,5.4-0.5,7.5,0c3,0.8,4.2,2.3,3.5,4.5l-3.5,17.9
			c0,0.2-0.5,0.2-1.5,0c-1.8-0.3-2.6-0.7-2.5-1.1c0.1-0.6,0.3-1.3,0.4-1.9l2.2-7.6c0.9-3.6,1.3-6.5,1.1-8.7
			c-2.1-0.4-3.8-0.4-5.1-0.2s-2.4,0.6-3.4,1.2c-1,0.6-2.1,1.4-3.1,2.5c-2.2,2.5-3.9,6.2-5.1,11c-0.4,0.6-1.1,0.8-2.1,0.5
			c-0.7-0.2-1.2-0.4-1.6-0.8c-0.4-0.3-0.5-0.6-0.4-0.8c1.4-3.2,2.4-5.7,2.9-7.6c0.4-1.5,0.6-2.9,0.6-4.4c0-1.4,0.1-3,0.1-4.9
			c-4.5-1.1-8.1-0.1-10.6,3.1c-1.1,1.4-1.9,2.8-2.3,4.2c-0.4,1.4-0.8,2.6-1,3.6C639,189.6,638.8,190.7,638.6,191.8z"/>
		<path d="M682.7,200.2c2.8,0.7,7.3,0.5,13.5-0.6c0.3,0.1,0.6,0.3,0.8,0.6c0.2,0.3,0.2,0.6,0.1,0.9c-1.8,1.8-4.6,2.9-8.5,3.2
			c-3.9,0.3-7.3-0.3-10.1-1.9c-3.3-1.8-4.9-4.3-4.9-7.5c0.1-0.6,0.3-1.4,0.5-2.4c0.3-1,0.9-2.3,1.8-3.8c0.9-1.5,2.2-2.9,3.9-4
			c1.6-1.2,3.4-2,5.3-2.4s3.8-0.4,5.8,0.1c1.8,0.5,3.7,1.6,5.7,3.4c0.9,0.9,1.6,1.8,2,2.7c0.4,0.9,0.6,1.8,0.4,2.6
			c-0.1,0.2-0.1,0.4-0.2,0.7c-0.5,1.9-1.8,2.9-3.7,2.9c-0.8,0-1.8-0.1-2.8-0.4l-6.7-2c-2.3-0.6-4.1-0.5-5.6,0.2
			c-0.8,0.4-1.5,1-2.1,2C677.8,197.5,679.5,199.4,682.7,200.2z M694.9,187.7c-0.6-0.7-1.2-1.2-1.9-1.6c-0.7-0.4-1.3-0.7-1.8-0.8
			c-0.5-0.1-1.4-0.2-2.6-0.1c-1.2,0-2.3,0.2-3.3,0.3c-2.4,0.5-3.8,1.2-4.1,2.3c2.5,0.9,4.3,1.4,5.6,1.8c3.5,0.9,5.9,1.2,7.3,0.9
			c0.8-0.1,1.3-0.4,1.4-0.9C695.7,189.1,695.5,188.4,694.9,187.7z"/>
		<path d="M719.5,202c0.9-3.8,1.4-6.6,1.5-8.4c0.4-0.4,0.1-0.7-1-1c-1.1-0.3-2.5-0.4-4.4-0.2c-1.8,0.1-3.4,0.3-4.6,0.6
			c-2.9,0.6-4.6,1.4-5.2,2.5l-3.3,12.9l-3.2-0.8c-0.1-1.2,0.4-4.2,1.7-9.2c1.1-4.4,2-7.6,2.7-9.7c0.7-2,1.1-3.2,1.3-3.4
			c1-0.3,1.7-0.4,2.2-0.3c0.8,0.2,0.9,1.2,0.5,3.1c-0.2,0.7-0.4,1.4-0.7,2.1c-0.3,0.7-0.4,1.1-0.5,1.4c6.1-2.5,10.5-3.3,13.3-2.6
			c3.2,0.8,4.4,3.8,3.5,9.1c-0.3,1.8-0.8,4.4-1.6,7.6l-1,3.7c-0.4,1.4-0.7,2.7-0.9,4c-0.4,0.1-0.6,0.1-0.8,0.1
			c-0.1-0.1-0.3-0.2-0.6-0.3c-0.3-0.1-0.7-0.3-1.2-0.5c0-1.3,0.2-2.7,0.5-4c0.3-1.3,0.6-2.5,0.9-3.6L719.5,202z"/>
		<path d="M485.4,215c-1.4,0.2-2.4,0.3-2.8,0.2c-0.4-0.1-0.7-0.2-0.8-0.4s-0.3-0.4-0.4-0.8c0.3-1,0.6-2.3,1.1-3.9
			c0.5-1.6,1-3.2,1.5-5c0.5-1.8,1-3.6,1.5-5.4c0.5-1.8,0.8-3.5,1-5.1c0.3-1,1.1-1.3,2.4-1c0.3,0.1,0.4,0.7,0.3,1.9
			c-0.1,1.2-0.2,2.1-0.3,2.7s-0.1,1.1-0.1,1.4c1.2-1.3,3.1-2,5.8-2.3c1.4-0.1,2.7,0,3.8,0.3c1.1,0.3,2.1,0.7,2.9,1.2
			c0.8,0.5,1.4,1.2,1.9,2c0.4,0.9,0.5,1.9,0.2,3c1.2-1.3,3.4-2.3,6.6-2.8c2.9-0.5,5.4-0.5,7.5,0c3,0.8,4.2,2.3,3.5,4.5l-3.5,17.9
			c0,0.2-0.5,0.2-1.5,0c-1.8-0.3-2.6-0.7-2.5-1.1c0.1-0.6,0.3-1.3,0.4-1.9l2.2-7.6c0.9-3.6,1.3-6.5,1.1-8.7
			c-2.1-0.4-3.8-0.4-5.1-0.2s-2.4,0.6-3.4,1.2c-1,0.6-2.1,1.4-3.1,2.5c-2.2,2.5-3.9,6.2-5.1,11c-0.4,0.6-1.1,0.8-2.1,0.5
			c-0.7-0.2-1.2-0.4-1.6-0.8c-0.4-0.3-0.5-0.6-0.4-0.8c1.4-3.2,2.4-5.7,2.9-7.6c0.4-1.5,0.6-2.9,0.6-4.4c0-1.4,0.1-3,0.1-4.9
			c-4.5-1.1-8.1-0.1-10.6,3.1c-1.1,1.4-1.9,2.8-2.3,4.2s-0.8,2.6-1,3.6C485.8,212.8,485.5,213.8,485.4,215z"/>
		<path d="M522.4,215.6c0.9-3.7,3.3-6.3,7.1-7.8c3-1.2,6.4-1.5,10.1-0.9c0.2,0,0.6,0.2,1.3,0.3c0.7,0.2,1.6,0.6,2.6,1.3
			c2.4,1.5,3.7,3.5,4.1,6c0.2,1,0.2,1.8,0,2.4c-0.2,0.6-0.3,1-0.4,1.3c-1,3.9-3.3,6.7-6.9,8.2c-3.3,1.4-7,1.5-11.2,0.5
			c-3-0.8-5.1-2-6.3-3.8C521.8,221.4,521.6,218.8,522.4,215.6z M525.4,217.6c-0.5,2-0.3,3.4,0.6,4.4c0.7,0.7,1.9,1.3,3.8,1.8
			c1.9,0.5,3.5,0.7,5,0.8c1.5,0.1,2.9-0.1,4.2-0.5c2.8-0.9,4.5-3,5.3-6.2c0.5-1.9,0.4-3.6-0.3-5c-0.8-1.6-2.1-2.6-3.9-3
			c-1.3-0.1-2.6-0.2-3.9-0.2c-1.3-0.1-2.6,0.1-3.9,0.6C529.5,211.1,527.2,213.5,525.4,217.6z M534.1,198c-0.8-0.2-1-0.8-0.7-1.9
			c0.1-0.4,1-0.7,2.8-1c0.7,0.2,1.1,0.4,1.2,0.8c0.2,0.3,0.2,0.7,0.1,1.2c-0.1,0.4-0.3,0.7-0.5,0.9c-0.2,0.2-0.5,0.2-0.8,0.3
			C535.7,198.4,535,198.3,534.1,198z M540.9,199.8c-0.8-0.2-1-0.8-0.7-1.9c0.1-0.4,1-0.7,2.8-1c1.1,0.3,1.6,1,1.3,2
			c-0.2,1-1,1.3-2.4,1C541.6,199.9,541.2,199.8,540.9,199.8z"/>
		<path d="M566.6,231c1.4-0.2,2.8-0.4,4.1-0.5c1.3-0.1,2.6-0.1,3.7,0.2c1.1,0.3,1.6,0.8,1.4,1.5c0,0.2-0.1,0.4-0.3,0.7
			c-0.2,0.3-0.7,0.6-1.6,0.9c-0.9,0.3-1.9,0.5-3.2,0.6c-1.2,0.1-2.5,0.2-4,0.2c-1.4,0-2.8,0-4.1-0.1c-2.8-0.1-4.7-0.3-5.8-0.6
			c-1.1-0.3-2.3-0.7-3.5-1.3c-1.2-0.6-2.3-1.3-3.3-2.1c-2.2-2-3-4.3-2.4-6.8c0-0.2,0.1-0.6,0.3-1.1c0.1-0.6,0.6-1.3,1.3-2.3
			c0.7-0.9,1.7-1.8,2.9-2.6c1.2-0.8,2.6-1.5,4-2.1c3.1-1.2,6.2-1.8,9.3-1.6c1.1,0,1.9,0.1,2.6,0.3c0.7,0.2,1.2,0.3,1.7,0.4
			c0.4,0.1,0.9,0.3,1.3,0.4c0.5,0.2,0.8,0.4,1.1,0.7c0.7,0.6,0.9,1.5,0.6,2.7c-0.2,0.8-0.9,1.4-2.2,1.8c-0.3,0.1-0.6,0.2-0.9,0.3
			c0-0.8,0-1.4-0.1-2c-0.1-0.6-0.6-1-1.5-1.2c-3.9-0.2-7.4,0.2-10.5,1.1c-3.5,1-5.5,2.5-6,4.5c-0.1,0.2-0.1,0.5-0.1,0.7
			c-0.5,2-0.1,3.7,1.2,4.9c1,0.9,2.4,1.6,4.3,2.1s3.5,0.7,5,0.6C563.8,231.4,565.2,231.2,566.6,231z"/>
		<path d="M599.3,243.9c-0.4,0.5-1.2,0.5-2.4,0.2c-1.2-0.3-1.7-0.9-1.5-1.7c0.9-3.7,1.5-6.3,1.7-7.7c0.5-3.1,0.3-4.9-0.6-5.4
			c-2.2-1-4-1.7-5.4-2.1c-1.4-0.4-2.7-0.2-3.9,0.4s-2.2,1.9-3.2,3.8c-1,1.9-2.1,4.6-3.2,8.2l-3.6-0.9c0.5-1.8,1-3.4,1.4-5
			c0.4-1.5,0.8-3.4,1.3-5.5c0.5-2.1,1-4.5,1.5-7c0.6-2.9,1.1-5.4,1.6-7.4s1.1-3.8,1.8-5.4c0.5-0.5,1-0.7,1.6-0.6
			c0.7,0.2,1.2,0.6,1.5,1.2c0.3,0.6,0.4,1.1,0.3,1.6l-2.2,7.8c-0.7,2.9-1.2,5.2-1.2,6.7c3.3-1.2,6.5-1.4,9.5-0.6c1,0.2,2,0.6,3.1,1
			c2.1,1.8,3.3,3.5,3.6,5.1c0.2,0.8,0.2,1.6,0.1,2.5c-0.1,0.8-0.3,1.8-0.5,2.8C599.9,239.4,599.5,242.1,599.3,243.9z"/>
		<path d="M609.2,242.2l2-7.6c0.3-1.2,0.5-2.3,0.4-3.2l-7.3-1.9l0.7-3.3l7.1,1.8l3.1-12.2c0.2-0.3,0.4-0.5,0.8-0.7
			c0.6-0.3,1-0.5,1.3-0.4c0.3,0.1,0.6,0.2,0.8,0.3c0.2,0.1,0.4,0.4,0.5,0.8c0,2.2-0.6,5.4-1.6,9.6c-0.3,1-0.5,2.1-0.6,3.1
			c1,0.1,2.1,0.3,3.1,0.6l2.5,0.6c0.6,0.2,1.2,0.3,1.7,0.3l-1,3.4l-6.9-1.9l-3.9,16.4c-0.6,0.1-1.2,0.1-1.6,0
			C608.7,247.7,608.3,245.7,609.2,242.2z"/>
		<path d="M631,249.1c2.8,0.7,7.3,0.5,13.5-0.6c0.3,0.1,0.6,0.3,0.8,0.6c0.2,0.3,0.2,0.6,0.1,0.9c-1.8,1.8-4.6,2.9-8.5,3.2
			c-3.9,0.3-7.3-0.3-10.1-1.9c-3.3-1.8-4.9-4.3-4.9-7.5c0.1-0.6,0.3-1.4,0.5-2.4c0.3-1,0.9-2.3,1.8-3.8c0.9-1.5,2.2-2.9,3.9-4
			c1.6-1.2,3.4-2,5.3-2.4s3.8-0.4,5.8,0.1c1.8,0.5,3.7,1.6,5.7,3.4c0.9,0.9,1.6,1.8,2,2.7c0.4,0.9,0.6,1.8,0.4,2.6
			c-0.1,0.2-0.1,0.4-0.2,0.7c-0.6,1.9-1.8,2.9-3.7,2.9c-0.8,0-1.8-0.1-2.8-0.4l-6.7-2c-2.3-0.6-4.1-0.5-5.6,0.2
			c-0.8,0.4-1.5,1-2.1,2C626.1,246.3,627.8,248.2,631,249.1z M643.2,236.6c-0.6-0.7-1.2-1.2-1.9-1.6c-0.7-0.4-1.3-0.7-1.8-0.8
			c-0.5-0.1-1.4-0.2-2.6-0.1c-1.2,0-2.3,0.2-3.3,0.3c-2.4,0.5-3.8,1.2-4.1,2.3c2.5,0.9,4.3,1.4,5.6,1.8c3.5,0.9,5.9,1.2,7.3,0.9
			c0.8-0.1,1.3-0.4,1.4-0.9C644,237.9,643.7,237.3,643.2,236.6z"/>
		<path d="M666,248.4c3.5,0.9,5,2.2,4.5,4c-0.3,1.3-1.7,2.6-4.1,3.9c-3.5,1.9-7.9,3-13.2,3.4c-0.2-0.1-0.4-0.3-0.6-0.8
			c-0.2-0.5-0.3-0.9-0.4-1.2c-0.1-0.3-0.1-0.4-0.2-0.5c3.9-0.3,7.3-1,10-2.1c1.9-0.7,2.9-1.5,3.1-2.2c0.2-0.7-0.7-1.3-2.5-1.8
			c-1.9-0.5-4.7-0.7-8.5-0.7c-1.6-0.5-2.9-1.4-3.8-2.8c-0.8-1.2-1.1-2.4-0.8-3.4c0.3-1,0.8-1.8,1.5-2.5c0.8-0.7,1.7-1.3,2.9-1.8
			c1.1-0.5,2.4-0.9,3.8-1.2c3.5-0.7,6.9-0.6,10.2,0.2c1,0.2,1.9,0.6,2.8,1c0.8,0.2,1.1,0.6,1.1,1.3s-0.3,1.8-0.6,3.3
			c-1.6-1.3-3.6-2.3-6-2.9c-2.9-0.7-5.4-0.8-7.6-0.1c-2.2,0.6-3.6,1.9-4.2,3.7c-0.2,0.9,0.3,1.5,1.6,1.8l3.6,0.5
			C661.8,247.7,664.2,248,666,248.4z"/>
		<path d="M679.4,260l2-7.5c0.3-1.2,0.5-2.3,0.4-3.2l-7.3-1.9l0.7-3.3l7.1,1.8l3.1-12.2c0.2-0.3,0.4-0.5,0.8-0.7
			c0.6-0.3,1-0.5,1.3-0.4c0.3,0.1,0.6,0.2,0.8,0.3c0.2,0.1,0.4,0.4,0.5,0.8c0,2.2-0.6,5.4-1.6,9.6c-0.3,1-0.5,2.1-0.6,3.1
			c1,0.1,2.1,0.3,3.1,0.6l2.5,0.6c0.6,0.2,1.2,0.3,1.7,0.3l-1,3.4l-6.9-1.9l-3.9,16.4c-0.6,0.1-1.2,0.1-1.6,0
			C678.8,265.4,678.5,263.5,679.4,260z"/>
		<path d="M721.1,244.4c2.5-0.2,5.7,0.1,9.6,1.1c7,1.8,11.4,4.7,13.1,8.9c0.7,1.6,0.8,3.4,0.2,5.4c0,0.3-0.1,0.6-0.2,0.9
			c-0.8,3.2-3.5,5.9-8,8.2c-4.2,2.2-8.9,3.6-14.4,4.2c-3.6,0.4-6.5,0.4-8.6-0.2c-0.9-0.2-1.6-0.5-2.2-1l7.5-29.5l0.7,0.2
			c0.7,0.2,1.3,0.5,1.7,0.8C720.9,243.8,721.1,244.1,721.1,244.4z M740.8,259.4c0.4-2.9-0.6-5.4-3.1-7.4c-1.9-1.5-4.4-2.7-7.6-3.5
			l-0.9-0.2c-3-0.7-5.7-0.9-8.1-0.5l-5.7,22.6c2.2,0.6,5.2,0.5,8.9-0.3c6.5-1.4,11.2-3.7,14.3-6.9
			C739.8,262,740.5,260.7,740.8,259.4z"/>
		<path d="M742.9,274.1c0.1-0.5,0.3-1.2,0.4-2.1s0.3-1.9,0.5-3c0.2-1.1,0.5-2.2,0.7-3.3s0.6-2.1,1-3c0.9-1.9,2-2.8,3.3-2.4
			c0.8,0.5,1.3,0.9,1.5,1.4c0.2,0.5,0.2,1,0.1,1.5c-0.1,0.6-0.5,1.2-0.9,2c-1.7,2.5-2.9,4.8-3.4,7c-0.2,0.7-0.3,1.5-0.4,2.4
			c0,2.2,1.4,3.7,4.4,4.5c1.5,0.4,3.1,0.5,4.6,0.3c2.9-0.3,5-1,6.3-2.1c0.7-1.4,1.1-2.6,1.4-3.7s0.5-2.1,0.6-2.9
			c0.1-0.9,0.3-1.8,0.4-2.9c0.1-1.1,0.4-2.2,0.6-3.4c0.5-0.1,0.9-0.1,1.3,0s0.8,0.4,1.1,0.9c0.3,0.5,0.5,1.4,0.5,2.6
			c0,1.2-0.1,2.6-0.4,4.2c-0.3,1.6-0.6,3.2-1,4.8s-0.8,3.2-1.2,4.8s-0.7,2.9-0.8,4c-0.5,0.3-0.9,0.3-1.2,0.2
			c-1.3-0.3-1.9-1.8-1.8-4.5c-0.5,0.2-1.3,0.5-2.4,0.8c-2.4,0.6-5,0.7-8,0.4c-0.6-0.1-1.2-0.2-1.8-0.4c-0.7-0.2-1.5-0.5-2.4-1
			c-0.9-0.5-1.7-1.3-2.4-2.5C742.8,277.5,742.6,276,742.9,274.1z"/>
		<path d="M555.8,294.7c-1.4,0.2-2.4,0.3-2.8,0.2c-0.4-0.1-0.7-0.2-0.8-0.4c-0.1-0.1-0.3-0.4-0.4-0.8c0.3-1,0.6-2.3,1.1-3.9
			c0.5-1.6,1-3.2,1.5-5c0.5-1.8,1-3.6,1.5-5.4c0.5-1.8,0.8-3.5,1-5.1c0.3-1,1.1-1.3,2.4-1c0.3,0.1,0.4,0.7,0.3,1.9
			c-0.1,1.2-0.2,2.1-0.3,2.7c-0.1,0.7-0.1,1.1-0.1,1.4c1.2-1.3,3.1-2,5.8-2.3c1.4-0.1,2.7,0,3.8,0.3c1.1,0.3,2.1,0.7,2.9,1.2
			c0.8,0.5,1.4,1.2,1.9,2s0.5,1.9,0.2,3.1c1.2-1.3,3.4-2.3,6.6-2.8c2.9-0.5,5.4-0.5,7.5,0c3,0.8,4.2,2.3,3.5,4.5l-3.5,17.9
			c0,0.2-0.5,0.2-1.5,0c-1.8-0.3-2.6-0.7-2.5-1.1c0.1-0.6,0.3-1.3,0.4-1.9l2.2-7.6c0.9-3.6,1.3-6.5,1.1-8.7
			c-2.1-0.4-3.8-0.4-5.1-0.2c-1.3,0.2-2.4,0.6-3.4,1.2s-2.1,1.4-3.1,2.5c-2.2,2.5-3.9,6.2-5.1,11c-0.4,0.6-1.1,0.8-2.1,0.5
			c-0.7-0.2-1.2-0.4-1.6-0.8c-0.4-0.3-0.5-0.6-0.4-0.8c1.4-3.2,2.4-5.7,2.9-7.6c0.4-1.5,0.6-2.9,0.6-4.4c0-1.4,0.1-3,0.1-4.9
			c-4.5-1.1-8.1-0.1-10.6,3.1c-1.1,1.4-1.9,2.8-2.3,4.2c-0.4,1.4-0.8,2.6-1,3.6C556.2,292.4,556,293.5,555.8,294.7z"/>
		<path d="M599.9,303.1c2.8,0.7,7.3,0.5,13.5-0.6c0.3,0.1,0.6,0.3,0.8,0.6c0.2,0.3,0.2,0.6,0.1,0.9c-1.8,1.8-4.6,2.9-8.5,3.2
			s-7.3-0.3-10.1-1.9c-3.3-1.8-4.9-4.3-4.9-7.5c0.1-0.6,0.3-1.4,0.5-2.4c0.3-1,0.9-2.3,1.8-3.8c0.9-1.5,2.2-2.9,3.9-4
			c1.6-1.2,3.4-2,5.3-2.4c1.9-0.4,3.8-0.4,5.8,0.1c1.8,0.5,3.7,1.6,5.7,3.4c0.9,0.9,1.6,1.8,2,2.7c0.4,0.9,0.6,1.8,0.4,2.6
			c-0.1,0.2-0.1,0.4-0.2,0.7c-0.6,1.9-1.8,2.9-3.7,2.9c-0.8,0-1.8-0.1-2.8-0.4l-6.7-2c-2.3-0.6-4.1-0.5-5.6,0.2
			c-0.8,0.4-1.5,1-2.1,2C595,300.3,596.6,302.3,599.9,303.1z M612,290.6c-0.6-0.7-1.2-1.2-1.9-1.6c-0.7-0.4-1.3-0.7-1.8-0.8
			c-0.5-0.1-1.4-0.2-2.6-0.1c-1.2,0-2.3,0.2-3.3,0.3c-2.4,0.5-3.8,1.2-4.1,2.3c2.5,0.9,4.3,1.4,5.6,1.8c3.5,0.9,5.9,1.2,7.3,0.9
			c0.8-0.1,1.3-0.4,1.4-0.9C612.8,291.9,612.6,291.3,612,290.6z"/>
		<path d="M638,315.5c-0.4,0.5-1.2,0.5-2.4,0.2s-1.7-0.9-1.5-1.7c0.9-3.7,1.5-6.3,1.7-7.7c0.5-3.1,0.3-4.9-0.6-5.4
			c-2.2-1-4-1.7-5.4-2.1c-1.4-0.4-2.7-0.2-3.9,0.4c-1.2,0.6-2.2,1.9-3.2,3.8c-1,1.9-2.1,4.6-3.2,8.2l-3.6-0.9c0.5-1.8,1-3.4,1.4-5
			c0.4-1.5,0.8-3.4,1.3-5.5c0.5-2.1,1-4.5,1.5-7c0.6-2.9,1.1-5.4,1.6-7.4c0.5-2,1.1-3.8,1.8-5.4c0.5-0.5,1-0.7,1.6-0.6
			c0.7,0.2,1.2,0.6,1.5,1.2c0.3,0.6,0.4,1.1,0.3,1.6l-2.2,7.8c-0.7,2.9-1.2,5.2-1.2,6.7c3.3-1.2,6.5-1.4,9.5-0.6c1,0.2,2,0.6,3.1,1
			c2.1,1.8,3.3,3.5,3.6,5.1c0.2,0.8,0.2,1.6,0.1,2.5c-0.1,0.8-0.3,1.8-0.5,2.8C638.6,311,638.2,313.8,638,315.5z"/>
		<path d="M667.2,305.2c-1.1-1.3-2.7-2.2-4.8-2.7c-2-0.5-3.9-0.6-5.7-0.3c-3.5,0.5-6.1,1.7-7.8,3.5c-0.7,0.8-1.3,1.8-1.5,2.8
			c0,0.2-0.2,0.7-0.4,1.6c-0.2,0.9-0.4,2.1-0.4,3.6c-0.1,1.5-0.3,3.1-0.7,4.6c-0.7-0.1-1.2-0.2-1.7-0.2c-0.4,0-0.8,0-1.1-0.1
			c-0.3-0.1-0.5-0.3-0.6-0.6c-0.1-0.3-0.2-0.9-0.3-1.6c0-0.2,0.1-0.8,0.2-1.7c0.1-0.9,0.3-2,0.5-3.3c0.2-1.3,0.4-2.7,0.6-4.3
			c0.2-1.5,0.4-3.1,0.6-4.6c0.4-3.2,0.8-5.6,1-7.2c0.2-0.8,0.8-1,1.9-0.7c0.7,0.2,1.1,0.6,1.4,1.2s0.4,1.4,0.4,2.1
			c0,0.8,0,1.5-0.1,2.2c-0.1,0.7-0.1,1.2-0.2,1.5c5.1-2.7,10.8-3.2,16.9-1.7c0.7,0.2,1.4,0.4,2.2,0.6c0.2,0,0.4,0.1,0.7,0.1
			c0.3,0.1,0.5,0.3,0.7,0.8c0.2,0.5,0.3,1.1,0.1,1.7C668.8,304.5,668.1,305.3,667.2,305.2z"/>
		<path d="M498.4,339.3c2.8,0.7,7.3,0.5,13.5-0.6c0.3,0.1,0.6,0.3,0.8,0.6c0.2,0.3,0.2,0.6,0.1,0.9c-1.8,1.8-4.6,2.9-8.5,3.2
			c-3.9,0.3-7.3-0.3-10.1-1.9c-3.3-1.8-4.9-4.3-4.9-7.5c0.1-0.6,0.3-1.4,0.5-2.4c0.3-1,0.9-2.3,1.8-3.8c0.9-1.5,2.2-2.9,3.9-4
			c1.6-1.2,3.4-2,5.3-2.4c1.9-0.4,3.8-0.4,5.8,0.1c1.8,0.5,3.7,1.6,5.7,3.4c0.9,0.9,1.6,1.8,2,2.7c0.4,0.9,0.6,1.8,0.4,2.6
			c-0.1,0.2-0.1,0.4-0.2,0.7c-0.5,1.9-1.8,2.9-3.7,2.9c-0.8,0-1.8-0.1-2.8-0.4l-6.7-2c-2.3-0.6-4.1-0.5-5.6,0.2
			c-0.8,0.4-1.5,1-2.1,2C493.5,336.6,495.2,338.5,498.4,339.3z M510.6,326.8c-0.6-0.7-1.2-1.2-1.9-1.6s-1.3-0.7-1.8-0.8
			c-0.5-0.1-1.4-0.2-2.6-0.1c-1.2,0-2.3,0.2-3.3,0.3c-2.4,0.5-3.8,1.2-4.1,2.3c2.5,0.9,4.3,1.4,5.6,1.8c3.5,0.9,5.9,1.2,7.3,0.9
			c0.8-0.1,1.3-0.4,1.4-0.9C511.4,328.2,511.1,327.5,510.6,326.8z"/>
		<path d="M541.8,335.4c-1.1-1.3-2.7-2.2-4.8-2.7c-2-0.5-3.9-0.6-5.7-0.3c-3.5,0.5-6.1,1.7-7.8,3.5c-0.7,0.8-1.3,1.8-1.5,2.8
			c0,0.2-0.2,0.7-0.4,1.6c-0.2,0.9-0.4,2.1-0.4,3.6c-0.1,1.5-0.3,3.1-0.7,4.6c-0.7-0.1-1.2-0.2-1.7-0.2c-0.4,0-0.8,0-1.1-0.1
			c-0.3-0.1-0.5-0.3-0.6-0.6c-0.1-0.3-0.2-0.9-0.3-1.6c0-0.2,0.1-0.7,0.2-1.7s0.3-2,0.5-3.3c0.2-1.3,0.4-2.7,0.6-4.3
			s0.4-3.1,0.6-4.6c0.4-3.2,0.8-5.6,1-7.2c0.2-0.8,0.8-1,1.9-0.7c0.7,0.2,1.1,0.6,1.4,1.2c0.2,0.6,0.4,1.4,0.4,2.1
			c0,0.8,0,1.5-0.1,2.2c-0.1,0.7-0.1,1.2-0.2,1.5c5.1-2.7,10.8-3.2,16.9-1.7c0.7,0.2,1.4,0.4,2.2,0.6c0.2,0,0.4,0.1,0.7,0.1
			c0.3,0.1,0.5,0.3,0.7,0.8c0.2,0.5,0.3,1.1,0.1,1.7C543.4,334.7,542.7,335.5,541.8,335.4z"/>
		<path d="M572.1,344.6c0.2,0,0.1,0.5-0.1,1.3c-0.2,0.9-0.3,1.4-0.3,1.8l-16.7-2.1l-1.8,10.7l-3.8-1.2c0.7-2.8,1.2-6.2,1.5-10
			l-6.8,0.8c-0.4-0.1-0.7-0.4-0.9-1c-0.3-0.9-0.4-1.8-0.2-2.4l7.8-0.7c0.7-5.6,1.5-10.1,2.4-13.5c0.9-3.4,1.8-6,2.9-7.7
			c1-1.8,2.2-2.8,3.4-3.2c1.3-0.4,2.5-0.4,3.7-0.1s2.4,0.9,3.6,1.8c1.1,0.9,2.2,1.8,3.2,3s1.7,2.3,2.3,3.5c0.6,1.2,0.7,2.3,0.5,3.3
			c-0.2,0.8-0.4,1.3-0.6,1.5c-0.8-2.1-1.9-4.1-3.4-5.9c-1.7-2.2-3.5-3.5-5.4-4c-1.8-0.5-3.3,0.5-4.6,2.9c-0.6,1.3-1.2,3.1-1.8,5.5
			c-0.6,2.4-1.1,4.6-1.5,6.7c-0.4,2-0.5,4.1-0.4,6.3c2,0.5,4.2,0.9,6.7,1.1C566.5,343.7,570,344.2,572.1,344.6z"/>
		<path d="M590.3,357.7c-3.3,3.1-7,4.6-11.2,4.5c-1,0-1.8-0.2-2.6-0.3c-0.7-0.2-1.4-0.4-1.8-0.5c-0.5-0.1-1-0.3-1.6-0.6
			c-0.6-0.3-1.1-0.6-1.5-1c-1-1-1.3-2-1-3.2c0-0.6,0.1-1.3,0.3-2s0.6-1.6,1.2-2.7c0.6-1.1,1.5-2.2,2.7-3.4c1.2-1.1,2.5-2.1,4-3
			c3.1-1.8,6.2-2.6,9.3-2.6c0.9,0,1.7,0.1,2.4,0.3c0.7,0.2,1.3,0.4,1.9,0.6c1.8,0.5,2.7,2,2.7,4.7c0,1.7-0.3,3.9-0.9,6.8
			c-0.6,2.8-1.1,5-1.4,6.6c-0.3,1.6-0.5,3-0.5,4.3l-2.8-0.7c0.1-0.9,0.2-1.7,0.3-2.3s0.2-1.3,0.3-1.9
			C590.1,359.9,590.2,358.7,590.3,357.7z M591.9,350.3c0.5-1.8-0.2-3-2-3.4c-0.2-0.1-0.4-0.2-0.7-0.2c-2.3-0.6-5-0.1-8.1,1.5
			c-1.5,0.7-2.8,1.6-3.9,2.6c-1.7,1.5-2.8,2.9-3.1,4.4c-0.5,1.9,0.3,3.2,2.4,4.1c2.9,0.7,5.9,0,9.1-1.8c1.4-0.8,2.6-1.8,3.7-2.9
			C590.7,353,591.6,351.6,591.9,350.3z"/>
		<path d="M616.8,372.1c-0.4,0.5-1.2,0.5-2.4,0.2s-1.7-0.9-1.5-1.7c0.9-3.7,1.5-6.3,1.7-7.7c0.5-3.1,0.3-4.9-0.6-5.4
			c-2.2-1-4-1.7-5.4-2.1c-1.4-0.4-2.7-0.2-3.9,0.4c-1.2,0.6-2.2,1.9-3.2,3.8c-1,1.9-2.1,4.6-3.2,8.2l-3.6-0.9c0.5-1.8,1-3.4,1.4-5
			s0.8-3.4,1.3-5.5c0.5-2.1,1-4.5,1.5-7c0.6-2.9,1.1-5.4,1.6-7.4c0.5-2,1.1-3.8,1.8-5.4c0.5-0.5,1-0.7,1.6-0.6
			c0.7,0.2,1.2,0.6,1.5,1.2c0.3,0.6,0.4,1.1,0.3,1.6l-2.2,7.8c-0.7,2.9-1.2,5.2-1.2,6.7c3.3-1.2,6.5-1.4,9.5-0.6c1,0.2,2,0.6,3.1,1
			c2.1,1.8,3.3,3.5,3.6,5.1c0.2,0.8,0.2,1.6,0.1,2.5c-0.1,0.8-0.3,1.8-0.5,2.8C617.3,367.6,616.9,370.3,616.8,372.1z"/>
		<path d="M646,361.7c-1.1-1.3-2.7-2.2-4.8-2.7c-2-0.5-3.9-0.6-5.7-0.3c-3.5,0.5-6.1,1.7-7.8,3.5c-0.7,0.8-1.3,1.8-1.5,2.8
			c0,0.2-0.2,0.7-0.4,1.6c-0.2,0.9-0.4,2.1-0.4,3.6c-0.1,1.5-0.3,3.1-0.7,4.6c-0.7-0.1-1.2-0.2-1.7-0.2c-0.4,0-0.8,0-1.1-0.1
			c-0.3-0.1-0.5-0.3-0.6-0.6c-0.1-0.3-0.2-0.9-0.3-1.6c0-0.2,0.1-0.7,0.2-1.7c0.1-0.9,0.3-2,0.5-3.3c0.2-1.3,0.4-2.7,0.6-4.3
			c0.2-1.5,0.4-3.1,0.6-4.6c0.5-3.2,0.8-5.6,1-7.2c0.2-0.8,0.8-1,1.9-0.7c0.7,0.2,1.1,0.6,1.4,1.2c0.2,0.6,0.4,1.4,0.4,2.1
			s0,1.5-0.1,2.2c-0.1,0.7-0.1,1.2-0.2,1.5c5.1-2.7,10.8-3.2,16.9-1.7c0.7,0.2,1.4,0.4,2.2,0.6c0.2,0,0.4,0.1,0.7,0.1
			c0.3,0.1,0.5,0.3,0.7,0.8c0.2,0.5,0.3,1.1,0.1,1.7C647.6,361,646.9,361.8,646,361.7z"/>
		<path d="M655.6,379c2.8,0.7,7.3,0.5,13.5-0.6c0.3,0.1,0.6,0.3,0.8,0.6c0.2,0.3,0.2,0.6,0.1,0.9c-1.8,1.8-4.6,2.9-8.5,3.2
			c-3.9,0.3-7.3-0.3-10.1-1.9c-3.3-1.8-4.9-4.3-4.9-7.5c0.1-0.6,0.3-1.4,0.5-2.4c0.3-1,0.9-2.3,1.8-3.8c0.9-1.5,2.2-2.9,3.9-4
			c1.6-1.2,3.4-2,5.3-2.4c1.9-0.4,3.8-0.4,5.8,0.1c1.8,0.5,3.7,1.6,5.7,3.4c0.9,0.9,1.6,1.8,2,2.7c0.4,0.9,0.6,1.8,0.4,2.6
			c-0.1,0.2-0.1,0.4-0.2,0.7c-0.6,1.9-1.8,2.9-3.7,2.9c-0.8,0-1.8-0.1-2.8-0.4l-6.7-2c-2.3-0.6-4.1-0.5-5.6,0.2
			c-0.8,0.4-1.5,1-2.1,2C650.7,376.3,652.3,378.2,655.6,379z M667.7,366.5c-0.6-0.7-1.2-1.2-1.9-1.6c-0.7-0.4-1.3-0.7-1.8-0.8
			c-0.5-0.1-1.4-0.2-2.6-0.1c-1.2,0-2.3,0.2-3.3,0.3c-2.4,0.5-3.8,1.2-4.1,2.3c2.5,0.9,4.3,1.4,5.6,1.8c3.5,0.9,5.9,1.2,7.3,0.9
			c0.8-0.1,1.3-0.4,1.4-0.9C668.5,367.9,668.3,367.2,667.7,366.5z"/>
		<path d="M692.4,380.8c0.9-3.8,1.4-6.6,1.5-8.4c0.4-0.4,0.1-0.7-1-1c-1.1-0.3-2.5-0.4-4.4-0.2c-1.8,0.1-3.4,0.3-4.6,0.6
			c-2.9,0.6-4.6,1.4-5.2,2.5l-3.3,12.9l-3.2-0.8c-0.1-1.2,0.4-4.2,1.7-9.2c1.1-4.4,2-7.6,2.7-9.7c0.7-2,1.1-3.2,1.3-3.4
			c1-0.3,1.7-0.4,2.2-0.3c0.8,0.2,0.9,1.2,0.5,3.1c-0.2,0.7-0.4,1.4-0.7,2.1c-0.3,0.7-0.4,1.1-0.5,1.4c6.1-2.5,10.5-3.3,13.3-2.6
			c3.2,0.8,4.4,3.8,3.5,9.1c-0.3,1.8-0.8,4.4-1.6,7.6l-1,3.7c-0.4,1.4-0.7,2.7-0.9,4c-0.4,0.1-0.6,0.1-0.8,0.1
			c-0.1-0.1-0.3-0.2-0.6-0.3c-0.3-0.1-0.7-0.3-1.2-0.5c0-1.3,0.2-2.7,0.5-4c0.3-1.3,0.6-2.5,0.9-3.6L692.4,380.8z"/>
		<path d="M710.8,382.8c-5-1.3-7.2-2.7-6.8-4.2c0.1-0.3,0.2-0.5,0.4-0.8c4.8-1.3,8-2.1,9.5-2.6c4.8-1.6,7.3-3.2,7.8-4.8
			c0.4-1.5-1-3-4.1-4.7c-1.4-0.3-3.1-0.6-5.3-0.7c-2.1-0.2-3.8-0.3-4.9-0.4c-1.1-0.1-2.2-0.3-3.3-0.6c-0.3-0.1-0.7-0.4-1-1
			c-0.3-0.6-0.5-1.1-0.5-1.6c4.3-0.3,8.3,0,11.9,0.9c2.6,0.7,4.7,1.5,6.3,2.6c3.1,2.1,4.4,4.3,3.8,6.6c-0.5,2.1-2.9,4-7.1,5.7
			c-2.2,0.9-5.1,1.7-8.5,2.3l5,2.9l-0.3,1.1C713,383.3,712,383.1,710.8,382.8z M707.4,395.8c-1.1-0.3-1.6-1-1.3-2.1s1-1.5,2.1-1.2
			c0.2,0,0.5,0,0.8,0.1c0.3,0.1,0.5,0.3,0.7,0.7c0.2,0.4,0.2,0.9,0.1,1.4c-0.1,0.5-0.4,0.9-0.7,1.1s-0.7,0.4-1,0.3
			C707.9,396,707.6,395.9,707.4,395.8z"/>
	</g>
</g>
</svg>
