<?xml version="1.0" encoding="utf-8"?>
<!-- Generator: Adobe Illustrator 24.0.0, SVG Export Plug-In . SVG Version: 6.00 Build 0)  -->
<svg version="1.1" xmlns="http://www.w3.org/2000/svg" xmlns:xlink="http://www.w3.org/1999/xlink" x="0px" y="0px"
	 viewBox="0 0 500 500" style="enable-background:new 0 0 500 500;" xml:space="preserve">
<style type="text/css">
	.st0{display:none;}
	.st1{display:inline;fill:#FFFFFF;stroke:#003064;stroke-width:5;stroke-miterlimit:10;}
	.st2{fill:#00A2AB;}
	.st3{fill:#003064;}
	.st4{fill:#FFFFFF;stroke:#003064;stroke-width:5;stroke-miterlimit:10;}
	.st5{fill:#EEEEEE;stroke:#003064;stroke-width:5;stroke-miterlimit:10;}
</style>
<g id="Ebene_7" class="st0">
	<path class="st1" d="M308.5,97.5h-100c-49.7,0-90,40.3-90,90v58c0,49.7,40.3,90,90,90h41v44.2c-48.5,3.4-89,36-104.1,80.2
		c29.9,23.2,67.5,36.9,108.2,36.9c43.9,0,84.1-16,115-42.5c-16.6-41.8-56.2-71.9-103.2-74.8v-44.1h43c49.7,0,90-40.3,90-90v-58
		C398.5,137.8,358.2,97.5,308.5,97.5z"/>
</g>
<g id="kreise">
	<g>
		<circle class="st2" cx="249" cy="323" r="174.5"/>
		<path class="st3" d="M249,151c45.9,0,89.1,17.9,121.6,50.4C403.1,233.9,421,277.1,421,323s-17.9,89.1-50.4,121.6
			S294.9,495,249,495s-89.1-17.9-121.6-50.4C94.9,412.1,77,368.9,77,323s17.9-89.1,50.4-121.6C159.8,168.9,203,151,249,151 M249,146
			c-97.8,0-177,79.2-177,177s79.2,177,177,177s177-79.2,177-177S346.7,146,249,146L249,146z"/>
	</g>
</g>
<g id="leib" class="st0">
	<path class="st1" d="M248.9,496.4c42.3,0,81.2-14.9,111.7-39.7c-16.8-45.4-60.4-77.8-111.7-77.8h0c-51.2,0-94.9,32.4-111.7,77.8
		C167.7,481.6,206.5,496.4,248.9,496.4z"/>
</g>
<g id="ohren">
	<path class="st4" d="M131.9,271.3c-30.3,0-54.9-21-54.9-46.9s24.6-46.9,54.9-46.9"/>
	<path class="st4" d="M365.1,177.6c30.3,0,54.9,21,54.9,46.9s-24.6,46.9-54.9,46.9"/>
</g>
<g id="verbunden">
	<path class="st4" d="M298.6,81.6h-100c-49.7,0-90,40.3-90,90v58c0,49.7,40.3,90,90,90h36.9V380c-45.4,5.1-83,35.6-98.3,77.1
		c30.5,24.8,69.3,39.7,111.7,39.7s81.2-14.9,111.7-39.7c-15.1-41-52.2-71.4-97-76.9v-60.6h35.1c49.7,0,90-40.3,90-90v-58
		C388.6,121.9,348.3,81.6,298.6,81.6z"/>
</g>
<g id="aussenkopf" class="st0">
	<path class="st1" d="M298.6,319.3h-100c-49.7,0-90-40.3-90-90v-58c0-49.7,40.3-90,90-90h100c49.7,0,90,40.3,90,90v58
		C388.6,279,348.3,319.3,298.6,319.3z"/>
</g>
<g id="innenkopf">
	<path class="st5" d="M301.5,302.5h-107c-34.8,0-63-28.2-63-63v-31c0-34.8,28.2-63,63-63h107c34.8,0,63,28.2,63,63v31
		C364.5,274.3,336.3,302.5,301.5,302.5z"/>
</g>
<g id="hals" class="st0">
	<rect x="235.5" y="312.9" class="st1" width="28" height="81.6"/>
</g>
<g id="gesicht">
	<ellipse class="st3" cx="317.6" cy="199.5" rx="25.4" ry="17.5"/>
	<ellipse class="st3" cx="178.4" cy="199.5" rx="25.4" ry="17.5"/>
	<g>
		<g>
			<path class="st3" d="M272.5,245c-0.3,12.5-10.2,23-23,23c-12.8,0-22.7-10.4-23-23c-0.2-6.4-10.2-6.4-10,0c0.4,17.9,14.7,33,33,33
				c18.3,0,32.6-15.1,33-33C282.6,238.6,272.6,238.6,272.5,245L272.5,245z"/>
		</g>
	</g>
</g>
<g id="antenne">
	
		<rect x="258.5" y="19.3" transform="matrix(0.9336 0.3584 -0.3584 0.9336 35.9423 -90.3635)" class="st3" width="6.5" height="65"/>
	<circle class="st5" cx="272.3" cy="25.8" r="17.5"/>
</g>
</svg>
