<?xml version="1.0" encoding="utf-8"?>
<!-- Generator: Adobe Illustrator 25.0.0, SVG Export Plug-In . SVG Version: 6.00 Build 0)  -->
<svg version="1.1" id="_3" xmlns="http://www.w3.org/2000/svg" xmlns:xlink="http://www.w3.org/1999/xlink" x="0px" y="0px"
	 viewBox="0 0 68 68" style="enable-background:new 0 0 68 68;" xml:space="preserve">
<style type="text/css">
	.st0{fill:#FFFFFF;}
	.st1{fill:none;stroke:#FFFFFF;stroke-width:2;stroke-linecap:round;stroke-miterlimit:10;}
	.st2{fill:none;stroke:#FFFFFF;stroke-linecap:round;stroke-miterlimit:10;}
</style>
<path class="st0" d="M47.5,49h-1c-0.3,0-0.6,0.4-0.6,0.8v17.1l1.5-5.9l1.5,5.9V49.8c0-0.5-0.3-0.8-0.6-0.8H47.5z"/>
<path class="st1" d="M42,58H16.3c-0.7,0-1.3-0.5-1.3-1.2c0,0,0,0,0,0V3.3C15,2.6,15.6,2,16.3,2l0,0h37.5C54.4,2,55,2.6,55,3.3v53.5
	c0,0.7-0.6,1.3-1.3,1.3H52"/>
<line class="st2" x1="18.5" y1="11.5" x2="47.5" y2="11.5"/>
<line class="st2" x1="18.5" y1="14.5" x2="47.5" y2="14.5"/>
<line class="st2" x1="18.5" y1="17.5" x2="47.5" y2="17.5"/>
<line class="st2" x1="18.5" y1="22.5" x2="47.5" y2="22.5"/>
<line class="st2" x1="18.5" y1="25.5" x2="47.5" y2="25.5"/>
<line class="st2" x1="18.5" y1="28.5" x2="47.5" y2="28.5"/>
<line class="st2" x1="18.5" y1="33.5" x2="47.5" y2="33.5"/>
<line class="st2" x1="18.5" y1="36.5" x2="47.5" y2="36.5"/>
<line class="st2" x1="18.5" y1="39.5" x2="47.5" y2="39.5"/>
</svg>
