<?xml version="1.0" encoding="utf-8"?>
<!-- Generator: Adobe Illustrator 25.0.0, SVG Export Plug-In . SVG Version: 6.00 Build 0)  -->
<svg version="1.1" id="_1" xmlns="http://www.w3.org/2000/svg" xmlns:xlink="http://www.w3.org/1999/xlink" x="0px" y="0px"
	 viewBox="0 0 68 68" style="enable-background:new 0 0 68 68;" xml:space="preserve">
<style type="text/css">
	.st0{fill:none;stroke:#FFFFFF;stroke-width:2;stroke-miterlimit:10;}
	.st1{fill:none;stroke:#FFFFFF;stroke-linecap:round;stroke-miterlimit:10;}
	.st2{fill:none;stroke:#FFFFFF;stroke-width:2;stroke-linecap:round;stroke-miterlimit:10;}
	.st3{fill:#FFFFFF;}
	.st4{fill:none;stroke:#FFFFFF;stroke-width:2;stroke-linecap:round;stroke-linejoin:bevel;}
</style>
<path class="st0" d="M2.6,17h62.9c0.9,0,1.6,0.7,1.6,1.6v37.9c0,0.9-0.7,1.6-1.6,1.6H2.6C1.7,58,1,57.3,1,56.4V18.6
	C1,17.7,1.7,17,2.6,17z"/>
<g>
	<line class="st1" x1="37.1" y1="34.1" x2="66.9" y2="27.9"/>
</g>
<g>
	<line class="st1" x1="1.1" y1="27.9" x2="30.9" y2="34.1"/>
</g>
<path class="st2" d="M24,12V7.2C24,6.5,24.8,6,25.7,6h16.5c1,0,1.7,0.6,1.7,1.2V12"/>
<polygon class="st3" points="50.1,50.9 50.7,52.1 52,52.3 51.1,53.2 51.3,54.5 50.1,53.9 49,54.5 49.2,53.2 48.3,52.3 49.6,52.1 "/>
<polygon class="st3" points="55.9,50.9 56.5,52.1 57.8,52.3 56.8,53.2 57.1,54.5 55.9,53.9 54.7,54.5 55,53.2 54,52.3 55.3,52.1 "/>
<polygon class="st3" points="61.7,50.9 62.2,52.1 63.5,52.3 62.6,53.2 62.8,54.5 61.7,53.9 60.5,54.5 60.7,53.2 59.8,52.3 
	61.1,52.1 "/>
<path class="st4" d="M31.7,30h4.6c0.4,0,0.7,0.3,0.7,0.7v7.6c0,0.4-0.3,0.7-0.7,0.7h-4.6c-0.4,0-0.7-0.3-0.7-0.7v-7.6
	C31,30.3,31.3,30,31.7,30z"/>
</svg>
