<svg id="Ebene_1" data-name="Ebene 1" xmlns="http://www.w3.org/2000/svg" width="297.7" height="186.6" viewBox="0 0 297.7 186.6"><defs><style>.cls-1{fill:#fff;}.cls-2{fill:#00a1aa;}.cls-3{opacity:0.7;}.cls-4{isolation:isolate;}</style></defs><title>launcher_speechballoon</title><g id="Ebene_1-2" data-name="Ebene 1"><g id="Sprechblase-2"><path class="cls-1" d="M274.77,46.91c-2.25-3.42-6.21-5.94-12-7.78C247,34.08,219.06,31.49,186.14,32l-4.53.06-.12-1.43-1.84-20.44L147.46,32.35l-2.88,1.93-5.81.65c-10.1,1.09-19,2.42-26.5,4C49.05,51.81-12,110.23,14.27,150.07c1,1.46,2.13,2.9,3.31,4.38,34.52,39.71,118.86,32.32,183.55,19.11,6.41-1.31,12.71-2.49,19-3.67,42.4-7.91,73.13-13.65,68.77-56.51,2.37-9.95-4.83-30-5-30.52h0l-1.5-2.27c-4.26-6.45-4.41-13-4.59-19.24-.23-5.39-.39-10.36-3.08-14.44Z"/><path class="cls-2" d="M266.52,48.59c2.6,3.94,2.7,8.82,3,14,.26,6.08.45,13,4.83,19.62l1.51,2.27c.54,1.78,7.11,20.56,5,29.7l-.05.23.12.19c4,40.72-21.91,45.58-61.34,52.94-6.3,1.18-12.77,2.4-19.37,3.74-61,12.47-140.9,19.37-174-18.75-1.12-1.39-2.27-2.82-3.21-4.24C-2.42,110.59,54.64,53,113.64,41c6.42-1.31,14.58-2.5,23.66-3.55L149,36.18l5.58-3.83,17.33-11.88,1,11.63L173.1,35l9.06-.13c31.48-.51,58.26,1.93,73.27,6.72,5.6,1.55,9,3.87,11.09,7h0M283,45.22c-2.23-3.36-6-6.3-13.08-8.46-18.21-5.86-48.93-8-80.2-7.46L187.25,0,140.2,32.38c-10.86,1.19-20.7,2.66-29.13,4.39C40,51.29-19.82,112.26,6.21,151.71c1,1.52,2.19,3,3.34,4.43,34,39.18,119.08,34.54,193.11,19.42,53-10.82,99.64-12.56,94.61-63.67,2.28-10.1-5.24-30.63-5.24-30.63l-1.62-2.46C282.65,67,289,54.33,283,45.22Z"/></g></g><g id="text_adjustable" data-name="text adjustable"><g id="sprechblase_text" data-name="sprechblase text" class="cls-3"><g class="cls-4"><path d="M56.79,98.59l.8,0a3.48,3.48,0,0,1,1,0,.65.65,0,0,1,.54.58c.14.79-.24,1.21-1.35,1.17a2,2,0,0,1-.8-.06l-.6,0c-.2,0-.19.11-.19.21.23.59.46,1.18.7,1.87s.57,1.37.81,2.06a18,18,0,0,0,2.2,3.69,3,3,0,0,1-1.15,1.06,2.8,2.8,0,0,1-.68.44H58l-4.55-8.47-7.88,2.41-.24,1.22a14.32,14.32,0,0,1-1.65,4.79c-.09.21-.39.22-.69.14-.61-.17-.92-.36-.93-.55,0,0,.16-.61.51-1.73l1-3.36c.34-1.12.78-2.35,1.12-3.57s.77-2.44,1.11-3.56.69-2.14.94-3,.52-1.53.6-1.94.16-.81.24-1.11a2,2,0,0,1,.16-.81,1.56,1.56,0,0,1,1.46-.78,5.53,5.53,0,0,1,2,1.7c.54.77.88,1.56,1.32,2.33s.69,1.67,1.13,2.55a7,7,0,0,0,1.43,2.33.81.81,0,0,0,.82.36A3,3,0,0,0,56.79,98.59Zm-7.72-5.91a13.84,13.84,0,0,1-.9,3.76c-.44,1.22-.89,2.25-1.15,3s-.53,1.33-.7,1.94a13.31,13.31,0,0,0,4.83-1.46c.49-.22,1-.45,1.37-.67C51.42,95.36,50.3,93.12,49.07,92.68Z"/><path d="M75,108c-.19.31-.58.53-1.38.57s-1.11-.24-1.14-.74c-.12-2.3-.2-3.9-.34-4.69-.3-1.89-.65-2.87-1.26-2.94a17.39,17.39,0,0,0-3.41-.22,3.31,3.31,0,0,0-2.16.91,5,5,0,0,0-1.16,2.77,39.23,39.23,0,0,0-.42,5.23l-2.3.12c-.06-1.1,0-2.1-.06-3.1s-.11-2.1-.28-3.39-.25-2.79-.32-4.29c-.2-1.79-.28-3.29-.34-4.59a32,32,0,0,1,0-3.41.94.94,0,0,1,.76-.64,1.61,1.61,0,0,1,1.13.45,1.24,1.24,0,0,1,.45.87l.15,4.8a20.26,20.26,0,0,0,.51,4.08,9.68,9.68,0,0,1,5.3-2.08,13.37,13.37,0,0,1,1.9,0,7.28,7.28,0,0,1,3,2.25,3.25,3.25,0,0,1,.48,1.37,10.76,10.76,0,0,1,.19,1.7A26.12,26.12,0,0,0,75,108Z"/><path d="M76.53,102.66a6.56,6.56,0,0,1,2.7-5.75,11.8,11.8,0,0,1,5.59-2.29l.8-.05a4.58,4.58,0,0,1,1.72.31,5.1,5.1,0,0,1,3.45,2.73A4.46,4.46,0,0,1,91.26,99l0,.8a6.84,6.84,0,0,1-2.49,5.94A10.32,10.32,0,0,1,82.52,108a5.75,5.75,0,0,1-4.27-1.07C77.11,106.13,76.64,104.76,76.53,102.66Zm2,.69a2.81,2.81,0,0,0,1.13,2.45,5,5,0,0,0,2.52.37,13.07,13.07,0,0,0,3-.46,7,7,0,0,0,2.25-1,4.75,4.75,0,0,0,2-4.51,4.56,4.56,0,0,0-1-2.85,3.42,3.42,0,0,0-2.76-1c-.79.14-1.48.37-2.28.52a8.46,8.46,0,0,0-2.15,1C79.74,98.89,78.83,100.74,78.57,103.35Z"/><path d="M91.88,89.74c0-.7.34-1,1.14-1.06a1.84,1.84,0,0,1,1.32.33,1.24,1.24,0,0,1,.13.59,1.4,1.4,0,0,1-.17.61.9.9,0,0,1-.68.34,2.94,2.94,0,0,1-.91-.15A6.79,6.79,0,0,1,91.88,89.74Zm3,3.75c.49,3.68.91,7.86,1.26,12.65-.07.6-.55.93-1.35,1a2,2,0,0,1-.7-.06c-.21-.09-.41-.18-.42-.38L93,93.59Z"/><path d="M98,104.64c.09-.3.28-.41.38-.42s.3-.11.5-.13a.88.88,0,0,1,.5.08.76.76,0,0,1,.63.47v.2a.79.79,0,0,1-.08.4,6,6,0,0,1-.36.72c-.19.31-.27.62-.46.93l-.55.93a6,6,0,0,0-.36.72,1.45,1.45,0,0,1-.28.41,1.85,1.85,0,0,1-1.26.77.83.83,0,0,1-.41-.08Z"/><path d="M113.75,88.59c0-.7.34-1,1.14-1.06a1.89,1.89,0,0,1,1.32.33,1.3,1.3,0,0,1,.13.6,1.44,1.44,0,0,1-.17.61.86.86,0,0,1-.68.33,2.94,2.94,0,0,1-.91-.15A6.79,6.79,0,0,1,113.75,88.59Zm2.9,3.76c.49,3.68.91,7.86,1.26,12.65-.07.6-.55.93-1.35,1a2,2,0,0,1-.7-.06c-.21-.09-.41-.18-.42-.38l-.69-13.08Z"/><path d="M131,102.31c.78-.34,1.56-.68,2.25-1a5.88,5.88,0,0,1,2.17-.51c.7,0,1,.14,1,.54a1.32,1.32,0,0,1-.07.51c0,.2-.28.41-.76.74a7.61,7.61,0,0,1-1.76.89,14.67,14.67,0,0,1-2.26.82l-2.36.73a24.66,24.66,0,0,1-3.47.68,19,19,0,0,1-2.21-.09,8.09,8.09,0,0,1-2.24-.68,3.84,3.84,0,0,1-2.58-3.47l0-.7a3.36,3.36,0,0,1,.32-1.52,7.58,7.58,0,0,1,1.19-2.06,9.13,9.13,0,0,1,2-1.91,13.32,13.32,0,0,1,5.07-2.57,9.36,9.36,0,0,1,1.59-.28l1-.06a2,2,0,0,1,.8.06,2.65,2.65,0,0,1,.81.16,1.66,1.66,0,0,1,.88,1.46c0,.5-.26.91-.93,1.45-.19.11-.29.21-.48.32a3.36,3.36,0,0,0-.46-1.07,1.08,1.08,0,0,0-1-.45,18.64,18.64,0,0,0-5.78,2.5c-1.84,1.2-2.68,2.45-2.61,3.65l0,.4a3.07,3.07,0,0,0,1.54,2.62,5.8,5.8,0,0,0,2.82.45,9.46,9.46,0,0,0,3-.56C129.42,103,130.2,102.65,131,102.31Z"/><path d="M152,103.91c-.18.31-.57.53-1.37.57s-1.12-.24-1.14-.74c-.12-2.29-.21-3.89-.35-4.68-.3-1.89-.65-2.87-1.25-2.94a16.07,16.07,0,0,0-3.42-.22,3.24,3.24,0,0,0-2.15.91,4.8,4.8,0,0,0-1.16,2.76,39.23,39.23,0,0,0-.43,5.23l-2.29.12c-.06-1.09,0-2.1-.07-3.1s-.11-2.09-.28-3.39-.24-2.79-.32-4.29c-.19-1.79-.27-3.29-.34-4.58s0-2.41,0-3.41a1,1,0,0,1,.87-.65,1.6,1.6,0,0,1,1.12.44,1.24,1.24,0,0,1,.45.88l.15,4.8a20.87,20.87,0,0,0,.52,4.08,9.65,9.65,0,0,1,5.29-2.08,12.18,12.18,0,0,1,1.91,0,7.28,7.28,0,0,1,3,2.25,3.24,3.24,0,0,1,.47,1.37,8.82,8.82,0,0,1,.19,1.69A29.31,29.31,0,0,0,152,103.91Z"/><path d="M164.41,86.64l-.29-3.79a.76.76,0,0,1,.26-.72,1.15,1.15,0,0,1,.78-.34A2,2,0,0,1,166,82c.31.19.42.38.34.68l.86,12.68A14.8,14.8,0,0,1,172,91a10.38,10.38,0,0,1,4.52-1.64,3.54,3.54,0,0,1,2.75,1,3.46,3.46,0,0,1,.82,2.26,5.91,5.91,0,0,1-.37,2.52,12.67,12.67,0,0,1-1.28,2.17,11.07,11.07,0,0,1-1.91,1.9,14.3,14.3,0,0,1-2.21,1.62,22.35,22.35,0,0,1-4.29,2.33l-.6,0-1,.05a7.75,7.75,0,0,1-2.81-.25c-.3-1.89-.55-4.68-.75-8.47Zm3.15,14.25c0,.2.22.29.62.27a10.65,10.65,0,0,0,1.49-.28,13.44,13.44,0,0,0,2.05-.91,16.48,16.48,0,0,0,2.42-1.62,13.72,13.72,0,0,0,4.14-5.13,2.12,2.12,0,0,0-2.39-1.57,7.24,7.24,0,0,0-3.83,1.5A10.83,10.83,0,0,0,167.91,98a4.55,4.55,0,0,0-.48,2.23l0,.5A.36.36,0,0,0,167.56,100.89Z"/><path d="M181,85.07c0-.7.35-1,1.15-1.06a1.85,1.85,0,0,1,1.32.33,1.3,1.3,0,0,1,.13.6,1.4,1.4,0,0,1-.17.6.89.89,0,0,1-.68.34,2.89,2.89,0,0,1-.91-.15A1.9,1.9,0,0,1,181,85.07Zm2.9,3.75c.5,3.68.92,7.87,1.27,12.66-.07.6-.55.93-1.35,1a1.9,1.9,0,0,1-.71-.07c-.2-.08-.41-.17-.42-.37L182,88.92Z"/><path d="M197.52,95.52a22,22,0,0,0-.66-5.07c.18-.31-.12-.4-.72-.37a10.56,10.56,0,0,0-2.57.64A19.09,19.09,0,0,0,191,91.85c-1.55.89-2.41,1.63-2.48,2.34l.42,8-2,.1c-.33-.68-.53-2.48-.69-5.57-.14-2.7-.15-4.7-.11-6a9.65,9.65,0,0,1,.18-2.22,2.86,2.86,0,0,1,1.17-.56c.5,0,.73.56.79,1.66a5.76,5.76,0,0,1,0,1.31c0,.4-.06.7-.05.9,3.07-2.46,5.41-3.79,7.2-3.88,2-.11,3.18,1.43,3.65,4.61.16,1.1.34,2.69.44,4.59l.12,2.29a20.9,20.9,0,0,0,.23,2.49,1.35,1.35,0,0,1-.49.23.69.69,0,0,1-.4-.08c-.2,0-.41-.08-.81-.06a9.75,9.75,0,0,1-.42-2.38l-.12-2.19Z"/><path d="M215.18,96.19c-1.11-.14-1.62-.31-1.64-.71s.18-.51.56-.93.66-.74,1-1.06a19.14,19.14,0,0,0-.7-3.87c-.48-1.47-.74-2.56-1-3.35a8.37,8.37,0,0,1-.31-2.19,1.86,1.86,0,0,1,.23-1.31,1.26,1.26,0,0,1,.88-.35,1.54,1.54,0,0,1,.81.16.51.51,0,0,1,.22.39c0,.2.12.3.13.5a.91.91,0,0,0,.12.49.8.8,0,0,0,.93.55,25.59,25.59,0,0,0,3.88-.5l3.87-.81a42.63,42.63,0,0,1,5.36-.88,17.84,17.84,0,0,1,2.5,0c0,.4.14.7.15,1a1.83,1.83,0,0,1,.14.69c0,.3-.28.41-1,.45-10.17.93-15.22,1.9-15.16,3.1a16.08,16.08,0,0,0,.47,3.28,14.59,14.59,0,0,0,.49,1.67c.11.2.22.39.32.39a21,21,0,0,0,3.38-.48l3.37-.78,3.36-.77a19.92,19.92,0,0,1,3.38-.48v.2l0,.5c-.08.5-.07.7,0,.7a11.79,11.79,0,0,1-4.53,1.34c-1,.15-1.88.4-2.88.55a24.28,24.28,0,0,0-2.77.54c-1.89.4-3.07.77-3.34,1.28v5.71a1.08,1.08,0,0,1-.69.33l-1.1,0-.3,0Z"/><path d="M248.76,98.74c0,.4-.27.52-.87.55a2,2,0,0,1-.8-.06,1.56,1.56,0,0,0-.51-.17l.1-3.81a26.86,26.86,0,0,1-3.75,3.1,9.46,9.46,0,0,1-3.94,1.2l-.8,0c-2.91-.15-4.4-1.88-4.58-5.27a43.7,43.7,0,0,1,.79-7.85,19.85,19.85,0,0,0,.34-3.13l.4,0,.4,0h.3c.6,0,.92.45,1,1.35a8.49,8.49,0,0,1-.28,2.42,31,31,0,0,0-.85,6.55,4,4,0,0,0,1.15,2.94,2.93,2.93,0,0,0,2,.8l.4,0a6.06,6.06,0,0,0,6.05-4.93,24.22,24.22,0,0,0,.66-6.54c0-1.2,0-2.3-.09-3.5.17-.61.45-.93.85-1a2.11,2.11,0,0,1,1.23.44c.16,1.09.21,2.19.27,3.29l.29,11.2A19.13,19.13,0,0,0,248.76,98.74Z"/><path d="M251.59,99.09c-.4,0-.71-.16-.74-.56a1.53,1.53,0,0,1,.64-1.23c.2-.11.29-.22.49-.23h.2a1.27,1.27,0,0,1,.81.16,1.48,1.48,0,0,1,.24.69.91.91,0,0,1-.17.61c-.1.1-.29.21-.39.32S252.08,99.07,251.59,99.09Z"/><path d="M44.34,145.6a.66.66,0,0,1,.07-.4c0-.2.07-.6,0-1.2s0-1.41,0-2.31,0-1.9-.06-3,0-2.2-.07-3.3,0-2.2-.07-3.3a26.81,26.81,0,0,1,0-3c.1-2,.24-3.11.52-3.53s.66-.73,1.56-.78l.4,0c0,.7,0,2.3,0,4.7s-.1,3.81-.08,4.21a26.58,26.58,0,0,0,3.59-2.29c1.16-.86,2.22-1.52,3.18-2.27s1.94-1.3,2.72-1.74a4.89,4.89,0,0,1,1.86-.7c.7,0,1,.25,1,.75a2.06,2.06,0,0,1-.82,1.44c-.58.53-1.35,1.07-2.22,1.72s-1.94,1.2-3,1.76-2,1.21-3,1.76a16.22,16.22,0,0,0-2.22,1.62c-.58.43-.85.84-.83,1.24.41.18.92.46,1.74.81s1.74.71,2.76,1.06,2.14.79,3.17,1.34a19.94,19.94,0,0,1,3.08,1.44c2.06,1.09,3.11,1.94,3.15,2.74,0,.3-.18.41-.47.52-.1,0-.3.12-.4.12l-.3,0a4.82,4.82,0,0,1-2.63-.57A23.53,23.53,0,0,1,54.41,143c-.93-.55-2.06-1.19-3.19-1.73a20.5,20.5,0,0,0-4.29-1.48l.31,5.89c0,.1-.19.21-.48.33a6.23,6.23,0,0,1-1.39.27C44.66,146,44.35,145.9,44.34,145.6Z"/><path d="M73.26,139.68a9.08,9.08,0,0,1-7.15,4.88l-1.1.06c-.3,0-.6-.07-1-.05a3.06,3.06,0,0,1-1-.34,2,2,0,0,1-1.19-1.64,4.36,4.36,0,0,1-.16-1.2,6.91,6.91,0,0,1,.21-1.71,9.22,9.22,0,0,1,1-2.35,9.84,9.84,0,0,1,1.77-2.4,11.07,11.07,0,0,1,4.85-3.16,8.39,8.39,0,0,1,1.48-.28,4.92,4.92,0,0,1,1.21,0c1.1-.06,1.94.7,2.41,2.18a18.64,18.64,0,0,1,.72,4.06c.09,1.7.26,3.1.31,4a10.64,10.64,0,0,0,.53,2.58l-1.7.09c-.12-.5-.15-1-.27-1.39S74,142.25,74,142C73.63,141,73.5,140.27,73.26,139.68Zm-.34-4.59a1.53,1.53,0,0,0-1.78-1.61l-.4,0a7.08,7.08,0,0,0-4.39,2.33A9.44,9.44,0,0,0,64.57,138a5.28,5.28,0,0,0-1,3.06c.06,1.2.79,1.76,2.1,2a7,7,0,0,0,4.87-2.66,11.56,11.56,0,0,0,1.58-2.29A6,6,0,0,0,72.92,135.09Z"/><path d="M88.36,137.29a21.34,21.34,0,0,0-.67-5.07c.19-.31-.12-.4-.72-.37a10.67,10.67,0,0,0-2.57.64,18.89,18.89,0,0,0-2.54,1.13c-1.56.89-2.42,1.63-2.48,2.34l.42,8-2,.1c-.34-.68-.53-2.47-.69-5.57-.14-2.7-.15-4.7-.12-6s.1-2,.09-2.21a2.62,2.62,0,0,1,1.17-.56c.5,0,.73.56.79,1.66a6.28,6.28,0,0,1,0,1.3c0,.4-.07.71-.06.91,3.08-2.47,5.41-3.79,7.21-3.89,2-.1,3.18,1.44,3.65,4.62.15,1.09.34,2.68.44,4.58l.12,2.3a19,19,0,0,0,.23,2.49,2,2,0,0,1-.49.23.83.83,0,0,1-.41-.08c-.2,0-.4-.08-.8-.06a9.84,9.84,0,0,1-.42-2.38l-.12-2.2Z"/><path d="M103.34,136.5a21.42,21.42,0,0,0-.67-5.07c.19-.31-.12-.39-.72-.36a11.06,11.06,0,0,0-2.57.63,17.6,17.6,0,0,0-2.54,1.14c-1.56.88-2.42,1.63-2.48,2.33l.42,8-2,.11c-.34-.69-.53-2.48-.69-5.58-.14-2.69-.15-4.69-.12-6s.1-2,.09-2.21a2.86,2.86,0,0,1,1.17-.56c.5,0,.73.56.79,1.66a6.39,6.39,0,0,1,0,1.31c0,.4-.07.7-.06.9,3.08-2.46,5.41-3.79,7.21-3.88,2-.11,3.18,1.43,3.65,4.61.15,1.1.34,2.69.44,4.59l.12,2.29a19.33,19.33,0,0,0,.23,2.5,1.57,1.57,0,0,1-.49.22.73.73,0,0,1-.41-.08c-.2,0-.5-.07-.8-.06a10.27,10.27,0,0,1-.43-2.38l-.11-2.19Z"/><path d="M118.23,124.41c0-.7.34-1,1.14-1.06a1.79,1.79,0,0,1,1.32.33,1.24,1.24,0,0,1,.13.59,1.54,1.54,0,0,1-.16.61.94.94,0,0,1-.69.34,3.27,3.27,0,0,1-.91-.15A6.79,6.79,0,0,1,118.23,124.41Zm2.9,3.75c.49,3.68.91,7.86,1.26,12.65-.07.61-.55.93-1.35,1a1.8,1.8,0,0,1-.7-.06c-.31-.08-.41-.18-.42-.38l-.69-13.08Z"/><path d="M135.47,138.12c.78-.34,1.57-.68,2.25-1a6,6,0,0,1,2.17-.52c.7,0,1,.15,1,.55a1.26,1.26,0,0,1-.07.5c0,.2-.28.42-.76.74a7.62,7.62,0,0,1-1.76.9,17.1,17.1,0,0,1-2.26.82l-2.36.72a23,23,0,0,1-3.47.68,16.92,16.92,0,0,1-2.21-.08,8.1,8.1,0,0,1-2.24-.69,3.83,3.83,0,0,1-2.58-3.47l0-.69a3.34,3.34,0,0,1,.32-1.52,7.48,7.48,0,0,1,1.19-2.07,9.37,9.37,0,0,1,2-1.91,13.3,13.3,0,0,1,5.07-2.56,9.45,9.45,0,0,1,1.59-.29l1-.05a1.84,1.84,0,0,1,.8.06,2.16,2.16,0,0,1,.81.16,1.65,1.65,0,0,1,.88,1.45c0,.5-.26.92-.93,1.45-.19.11-.29.22-.48.33a3.42,3.42,0,0,0-.46-1.08,1.1,1.1,0,0,0-1-.45,18.64,18.64,0,0,0-5.78,2.51c-1.84,1.2-2.68,2.44-2.61,3.64l0,.4a3,3,0,0,0,1.54,2.62,5.8,5.8,0,0,0,2.82.46,9.46,9.46,0,0,0,3-.56C133.9,138.81,134.69,138.47,135.47,138.12Z"/><path d="M156.48,139.73c-.18.31-.57.53-1.37.57s-1.11-.24-1.14-.74c-.12-2.3-.21-3.9-.35-4.69-.3-1.89-.65-2.87-1.25-2.94a17.52,17.52,0,0,0-3.42-.22,3.29,3.29,0,0,0-2.15.91,4.8,4.8,0,0,0-1.16,2.77,38.92,38.92,0,0,0-.43,5.23l-2.29.12c-.06-1.1,0-2.1-.07-3.1s-.11-2.1-.27-3.39-.25-2.79-.33-4.29c-.19-1.79-.27-3.29-.34-4.59s0-2.4,0-3.41a1,1,0,0,1,.87-.64,1.6,1.6,0,0,1,1.12.44,1.22,1.22,0,0,1,.45.88l.15,4.8a20.75,20.75,0,0,0,.52,4.07,9.72,9.72,0,0,1,5.29-2.08,13.5,13.5,0,0,1,1.91,0,7.45,7.45,0,0,1,3,2.25,3.19,3.19,0,0,1,.47,1.38,8.64,8.64,0,0,1,.19,1.69A29.31,29.31,0,0,0,156.48,139.73Z"/><path d="M183.34,138.32c-.18.31-.57.53-1.37.57s-1.11-.24-1.14-.74c-.12-2.3-.2-3.89-.34-4.69-.3-1.88-.65-2.87-1.26-2.94a17.48,17.48,0,0,0-3.42-.22,3.32,3.32,0,0,0-2.15.92A4.87,4.87,0,0,0,172.5,134a39.23,39.23,0,0,0-.42,5.23l-2.3.12c-.06-1.1,0-2.1-.06-3.1s-.11-2.1-.28-3.39-.25-2.79-.33-4.29c-.19-1.79-.27-3.29-.34-4.59s0-2.4,0-3.4a.93.93,0,0,1,.77-.64,1.56,1.56,0,0,1,1.13.44,1.2,1.2,0,0,1,.44.87l.15,4.8a20.87,20.87,0,0,0,.52,4.08,9.73,9.73,0,0,1,5.3-2.08,13.37,13.37,0,0,1,1.9,0,7.28,7.28,0,0,1,3,2.25,3.2,3.2,0,0,1,.47,1.37,8.84,8.84,0,0,1,.19,1.7A28.37,28.37,0,0,0,183.34,138.32Z"/><path d="M190.25,136.35c1.7-.08,4.25-1,7.67-2.7a.68.68,0,0,1,.74.66,7.92,7.92,0,0,1-4.34,3.33,11.06,11.06,0,0,1-6.17.73,5.08,5.08,0,0,1-4.18-3.49c0-.4-.15-.89-.18-1.49a9.81,9.81,0,0,1,.37-2.52,7.78,7.78,0,0,1,1.54-3,10.07,10.07,0,0,1,2.68-2.34,8,8,0,0,1,3.36-1,7.84,7.84,0,0,1,3.85,1,5.5,5.5,0,0,1,1.67,1.21,2.16,2.16,0,0,1,.67,1.37l0,.4a2.26,2.26,0,0,1-1.57,2.39,10.24,10.24,0,0,1-1.69.29l-4.21,0a4.93,4.93,0,0,0-3.15,1.06,2.82,2.82,0,0,0-.82,1.55A3.26,3.26,0,0,0,190.25,136.35Zm4.82-9.36a6.47,6.47,0,0,0-1.44-.63,7.14,7.14,0,0,0-1.21-.13,5.93,5.93,0,0,0-1.48.38,10.1,10.1,0,0,0-1.86.79c-1.27.67-1.93,1.41-1.89,2.11,1.6,0,2.71.05,3.5,0a10.75,10.75,0,0,0,4.37-.83c.49-.22.67-.43.66-.73A1.4,1.4,0,0,0,195.07,127Z"/><path d="M200.54,126.4c0-1.1-.2-2-.24-2.79s-.18-1.39-.2-1.79a23.53,23.53,0,0,0-.65-2.87c.19-.21.28-.52.47-.73a.86.86,0,0,1,.68-.33c.7,0,1.35,2.83,2.05,8.5.37,3.29.65,6.68.82,10,.05.9-.53,1.33-1.83,1.4h-.2c-.05-1-.12-2.3-.3-3.89s-.26-3-.32-4.09S200.7,127.5,200.54,126.4Z"/><path d="M221.6,126.9c.1,0,.11.3.14.79a3.27,3.27,0,0,0,.16,1.1L212,130.51l.84,6.46-2.4,0a33.83,33.83,0,0,0-.91-6l-3.72,1.7a.56.56,0,0,1-.62-.37,3,3,0,0,1-.57-1.37l4.41-1.84a72.54,72.54,0,0,1-1-8.15,20.82,20.82,0,0,1,.24-4.92,4.53,4.53,0,0,1,1.38-2.48,4.3,4.3,0,0,1,2.16-.71,6.4,6.4,0,0,1,2.33.38,13.26,13.26,0,0,1,2.36,1.17,9.66,9.66,0,0,1,1.89,1.61,3.18,3.18,0,0,1,.9,1.85,2.65,2.65,0,0,1,0,1,12.84,12.84,0,0,0-3-2.75,6.39,6.39,0,0,0-3.77-1.31c-1.1.06-1.86.9-2.07,2.52a15.3,15.3,0,0,0-.12,3.51c.08,1.49.15,2.89.31,4.09a16,16,0,0,0,.9,3.65,30.71,30.71,0,0,0,4.07-.51A32.61,32.61,0,0,1,221.6,126.9Z"/><path d="M229,134.32c1.7-.08,4.25-1,7.67-2.7a.67.67,0,0,1,.73.66,7.85,7.85,0,0,1-4.33,3.33,11.07,11.07,0,0,1-6.17.73,5.1,5.1,0,0,1-4.19-3.49c0-.4-.14-.89-.18-1.49a10.28,10.28,0,0,1,.37-2.52,8,8,0,0,1,1.55-3,9.92,9.92,0,0,1,2.68-2.34,8,8,0,0,1,3.35-1,7.85,7.85,0,0,1,3.86,1,5.5,5.5,0,0,1,1.67,1.21,2.21,2.21,0,0,1,.67,1.37l0,.4a2.27,2.27,0,0,1-1.58,2.39,9.2,9.2,0,0,1-1.68.28l-4.31,0a4.85,4.85,0,0,0-3.15,1.07,2.73,2.73,0,0,0-.82,1.54C225.66,133.6,227,134.43,229,134.32Zm4.71-9.36a6.18,6.18,0,0,0-1.43-.62,8.62,8.62,0,0,0-1.21-.14,6.43,6.43,0,0,0-1.48.38,10.85,10.85,0,0,0-1.86.8c-1.27.67-1.93,1.4-1.89,2.1,1.6,0,2.7.06,3.5,0a10.82,10.82,0,0,0,4.36-.83c.49-.23.68-.44.67-.74S234.23,125.24,233.71,125Z"/><path d="M250.44,128.79a21.5,21.5,0,0,0-.67-5.07c.19-.31-.12-.39-.72-.36a10.56,10.56,0,0,0-2.57.64,16.65,16.65,0,0,0-2.54,1.13c-1.56.88-2.42,1.63-2.48,2.33l.41,8-2,.11c-.34-.69-.53-2.48-.7-5.57-.14-2.7-.14-4.7-.11-6s.1-2,.09-2.2a2.78,2.78,0,0,1,1.17-.57c.5,0,.73.57.79,1.66a5.76,5.76,0,0,1,0,1.31c0,.4-.06.7-.05.9,3.08-2.46,5.41-3.79,7.21-3.88,2-.11,3.18,1.43,3.64,4.61.16,1.1.34,2.69.44,4.59l.12,2.29a19.28,19.28,0,0,0,.24,2.5,1.57,1.57,0,0,1-.49.22.73.73,0,0,1-.41-.08c-.2,0-.5-.07-.8-.05a9.93,9.93,0,0,1-.43-2.39l-.11-2.19Z"/><path d="M261.34,126.62c-3.1.16-4.62-.26-4.67-1.26a.88.88,0,0,1,.07-.5c2.52-1.53,4.17-2.62,4.94-3.16,2.41-1.73,3.64-3.1,3.59-4.2,0-.9-1.09-1.54-3.21-1.93a21.8,21.8,0,0,0-3.18.47c-1.29.26-2.17.51-2.87.65a15,15,0,0,1-2,.3.86.86,0,0,1-.72-.36,2,2,0,0,1-.55-.87,22.94,22.94,0,0,1,7-1.57,11,11,0,0,1,4,.39c2.14.58,3.29,1.63,3.37,3.12.07,1.3-.95,2.86-3.06,4.57a27.52,27.52,0,0,1-4.46,2.84l3.45.82,0,.7A8.88,8.88,0,0,0,261.34,126.62Zm.32,8.1c-.7,0-1.11-.25-1.15-.95s.35-1,1.05-1.05a3.28,3.28,0,0,1,.49-.13c.2,0,.31.09.52.28a1.13,1.13,0,0,1,.34.78,1.15,1.15,0,0,1-.26.81c-.19.21-.28.32-.48.33A1,1,0,0,0,261.66,134.72Z"/></g></g></g></svg>