<?xml version="1.0" encoding="utf-8"?>
<!-- Generator: Adobe Illustrator 24.0.0, SVG Export Plug-In . SVG Version: 6.00 Build 0)  -->
<svg version="1.1" xmlns="http://www.w3.org/2000/svg" xmlns:xlink="http://www.w3.org/1999/xlink" x="0px" y="0px"
	 viewBox="0 0 336.3 158.5" style="enable-background:new 0 0 336.3 158.5;" xml:space="preserve">
<style type="text/css">
	.st0{fill:#FFFFFF;}
	.st1{fill:#00A1AA;}
	.st2{display:none;opacity:0.7;}
	.st3{display:inline;enable-background:new    ;}
	.st4{opacity:0.7;}
	.st5{enable-background:new    ;}
	.st6{display:inline;}
	.st7{font-family:'ArchitectsDaughter-Regular';}
	.st8{font-size:30px;}
	.st9{display:none;}
	.st10{display:inline;opacity:0.7;}
</style>
<g id="Ebene_1">
	<g transform="matrix(1, 0, 0, 1, 0, 0)">
		<g id="Sprechblase-2" transform="translate(72.68 60.84) rotate(7)">
			<path class="st0" d="M54.3,84.8c-7.2,0-13.4-1.1-19-3.3c-15.4-6-30.8-18.6-42.3-34.6l-1.6-2.2l-2.7,0.4L-50,50.7l28.9-22.5l2.5-2
				l-1-3c-1.8-5.2-2.7-9.9-2.7-14c0-34.5,85.4-82.4,169.4-82.4c3.1,0,6.2,0.1,9.4,0.2c86.9,4,105.2,46.9,105.2,82.2
				c0,3.5,0.2,6.9,0.4,10.3c1.4,22.9,2.4,39.5-78.9,51c-17.6,4.3-57.6,7.2-58.6,7.3c0,0,0,0,0,0c-0.4,0-3.3,0-4.8,0
				c-13.6,0-25.8,2-37.5,3.9C72.2,83.3,62.9,84.8,54.3,84.8L54.3,84.8z"/>
			<path class="st1" d="M54.3,80.3c8.3,0,17.4-1.5,27.1-3c11.4-1.8,24.3-3.9,38.3-3.9c1.4,0,4,0,4.8,0c3.5-0.3,40.9-3.1,57.1-7
				l0.4-0.1l0.4,0c77.2-11,76.4-25,75.1-46.3c-0.2-3.4-0.4-6.9-0.4-10.5c0-33.3-17.5-73.9-100.9-77.7c-3-0.1-6.1-0.2-9.1-0.2
				C67.4-68.7-17.9-23-17.9,9.2c0,3.5,0.9,7.8,2.4,12.5l2.1,6l-5,3.9l-15.5,12.1l22-3.2l5.4-0.8l3.2,4.4
				c11,15.3,25.7,27.4,40.3,33.1C42,79.4,47.6,80.3,54.3,80.3L54.3,80.3 M54.3,89.3c-7.1,0-14-0.9-20.7-3.6
				c-17.8-6.9-33.4-21-44.3-36.2l-55.4,8.1l42.3-32.9c-1.9-5.6-2.9-10.8-2.9-15.4c0-38.8,90.6-86.9,173.8-86.9
				c3.2,0,6.4,0.1,9.5,0.2C242.3-73.5,266-31.1,266,9.3c0,28.9,14.5,51.9-82.4,65.7c-17.9,4.3-58.9,7.2-58.9,7.2s-3.4,0-5.2,0
				C94.7,82.2,73.5,89.3,54.3,89.3z"/>
		</g>
	</g>
	<g id="sprechblase_text" transform="translate(232.485 181.187) rotate(-3)" class="st2">
		<g class="st3">
			<path d="M-57.7-125.4l0.8,0c0.3,0,0.6,0,1,0.1c0.3,0.1,0.5,0.3,0.5,0.6c0.1,0.8-0.3,1.2-1.4,1.1c-0.3,0-0.6,0-0.8-0.1
				c-0.2,0-0.4,0-0.6,0c-0.2,0-0.2,0.1-0.2,0.2c0.2,0.6,0.4,1.2,0.6,1.9c0.2,0.7,0.5,1.4,0.7,2.1c0.7,1.7,1.4,3,2,3.8
				c-0.3,0.4-0.7,0.8-1.2,1c-0.4,0.3-0.7,0.4-0.7,0.4s-0.1,0-0.1,0l-4.1-8.7l-8,2l-0.3,1.2c-0.6,2.2-1.2,3.8-1.9,4.7
				c-0.1,0.2-0.4,0.2-0.7,0.1c-0.6-0.2-0.9-0.4-0.9-0.6c0,0,0.2-0.6,0.6-1.7c0.4-1.1,0.8-2.2,1.2-3.3c0.4-1.1,0.9-2.3,1.3-3.5
				c0.5-1.2,0.9-2.4,1.3-3.5c0.4-1.1,0.8-2.1,1.1-3c0.3-0.9,0.6-1.5,0.7-1.9c0.1-0.4,0.2-0.8,0.3-1.1c0-0.3,0.1-0.6,0.2-0.8
				c0.2-0.4,0.7-0.7,1.5-0.7c0.8,0.5,1.5,1.1,1.9,1.8c0.5,0.8,0.8,1.6,1.2,2.4c0.3,0.9,0.6,1.7,1,2.6c0.3,0.9,0.7,1.7,1.3,2.4
				c0.2,0.3,0.4,0.4,0.8,0.4S-58-125.4-57.7-125.4z M-65-131.7c-0.2,1.2-0.5,2.4-1.1,3.7c-0.5,1.2-1,2.2-1.3,2.9
				c-0.3,0.7-0.6,1.3-0.8,1.9c1.3,0,3-0.4,4.9-1.2c0.5-0.2,1-0.4,1.4-0.6C-62.9-128.9-63.9-131.2-65-131.7z"/>
			<path d="M-40-115.1c-0.2,0.3-0.6,0.5-1.4,0.5c-0.7,0-1.1-0.3-1.1-0.8c0-2.3,0-3.9-0.1-4.7c-0.2-1.9-0.5-2.9-1.1-3
				c-1.4-0.3-2.6-0.4-3.4-0.4c-0.9,0-1.6,0.3-2.2,0.8c-0.6,0.5-1,1.4-1.3,2.7c-0.3,1.2-0.5,3-0.7,5.2l-2.3,0c0-1.1,0.1-2.1,0.1-3.1
				c0-1,0-2.1-0.1-3.4c0-1.3-0.1-2.8-0.1-4.3c-0.1-1.8-0.1-3.3-0.1-4.6c0-1.2,0.1-2.4,0.2-3.4c0.2-0.4,0.5-0.6,0.8-0.6
				c0.4,0,0.8,0.2,1.1,0.5c0.3,0.3,0.4,0.6,0.4,0.9l-0.1,4.8c0,1.8,0.1,3.2,0.3,4.1c1.8-1.2,3.6-1.8,5.4-1.8c0.6,0,1.3,0,1.9,0.1
				c1.5,0.8,2.4,1.6,2.9,2.4c0.2,0.4,0.4,0.9,0.4,1.4c0.1,0.5,0.1,1.1,0.1,1.7C-40.3-117.8-40.2-116.2-40-115.1z"/>
			<path d="M-38.2-120.3c0-2.3,1-4.2,3-5.6c1.6-1.1,3.5-1.8,5.7-2c0.1,0,0.4,0,0.8,0c0.4,0,1,0.1,1.7,0.4c1.6,0.5,2.7,1.5,3.3,2.9
				c0.2,0.5,0.4,1,0.4,1.4c0,0.4,0,0.6,0,0.8c0,2.4-0.9,4.4-2.8,5.8c-1.7,1.3-3.9,1.9-6.4,1.9c-1.9,0-3.3-0.4-4.2-1.3
				C-37.7-116.8-38.2-118.2-38.2-120.3z M-36.2-119.5c0,1.2,0.3,2,1,2.5c0.5,0.3,1.3,0.5,2.5,0.5c1.2,0,2.2-0.1,3-0.3
				c0.9-0.2,1.7-0.5,2.3-0.9c1.5-0.9,2.2-2.4,2.2-4.4c0-1.2-0.3-2.1-0.9-2.9c-0.7-0.8-1.6-1.2-2.7-1.2c-0.8,0.1-1.5,0.3-2.3,0.4
				c-0.8,0.2-1.5,0.5-2.2,0.9C-34.7-123.9-35.7-122.1-36.2-119.5z"/>
			<path d="M-22.1-132.4c0-0.7,0.4-1,1.2-1c0.5,0,1,0.1,1.3,0.4c0.1,0.2,0.1,0.4,0.1,0.6c0,0.2-0.1,0.4-0.2,0.6
				c-0.2,0.2-0.4,0.3-0.7,0.3c-0.3,0-0.6-0.1-0.9-0.2C-21.7-132-22-132.2-22.1-132.4z M-19.4-128.5c0.3,3.7,0.5,7.9,0.6,12.7
				c-0.1,0.6-0.6,0.9-1.4,0.9c-0.2,0-0.4,0-0.7-0.1c-0.2-0.1-0.4-0.2-0.4-0.4l0-13.1L-19.4-128.5z"/>
			<path d="M-15.1-141.1c-0.1,0.5-0.2,3.7-0.2,9.5c0,5.8-0.1,9.2-0.4,10.1l-2,0c0-2,0.1-4.5,0.2-7.6c0.3-5.9,0.4-9.8,0.4-11.9
				L-15.1-141.1z M-16.4-116.6c0.8,0,1.3,0.1,1.5,0.2c0.2,0.2,0.3,0.3,0.3,0.5c-0.2,0.8-0.7,1.3-1.4,1.4c-0.1,0-0.2,0-0.4,0
				c-0.1,0-0.3,0-0.5-0.1c-0.2-0.1-0.4-0.2-0.5-0.4C-17.6-115.5-17.3-116-16.4-116.6z"/>
			<path d="M-144.6-79.1c0-0.1,0-0.2,0.1-0.4c0-0.2,0.1-0.6,0.1-1.2c0-0.6,0.1-1.4,0.1-2.3c0-0.9,0.1-1.9,0.1-3
				c0-1.1,0.1-2.2,0.1-3.3c0-1.1,0.1-2.2,0.1-3.3c0-1.1,0.1-2.1,0.2-3c0.2-2,0.4-3.1,0.7-3.5c0.2-0.4,0.7-0.7,1.6-0.7l0.4,0
				c0,0.7-0.1,2.3-0.2,4.7c-0.2,2.4-0.3,3.8-0.3,4.2c1.3-0.6,2.5-1.3,3.7-2.1c1.2-0.8,2.3-1.4,3.3-2.1c1-0.6,2-1.2,2.8-1.6
				c0.8-0.4,1.5-0.6,1.9-0.6c0.7,0,1,0.3,1,0.8c0,0.4-0.3,0.9-0.9,1.4c-0.6,0.5-1.4,1-2.3,1.6c-0.9,0.5-2,1.1-3.1,1.6
				c-1.1,0.5-2.1,1.1-3.1,1.6c-0.9,0.5-1.7,1-2.3,1.5c-0.6,0.4-0.9,0.8-0.9,1.2c0.4,0.2,0.9,0.5,1.7,0.9c0.8,0.4,1.7,0.8,2.7,1.2
				c1,0.5,2.1,0.9,3.1,1.5c1.1,0.5,2.1,1,3,1.6c2,1.2,3,2.1,3,2.9c0,0.3-0.2,0.4-0.5,0.5c-0.1,0-0.3,0.1-0.4,0.1l-0.3,0
				c-0.9,0-1.8-0.2-2.6-0.7c-0.8-0.4-1.7-1-2.6-1.6c-0.9-0.6-2-1.3-3.1-1.9c-1.2-0.7-2.6-1.2-4.2-1.7l0,5.9c0,0.1-0.2,0.2-0.5,0.3
				c-0.4,0.1-0.9,0.2-1.4,0.2C-144.3-78.7-144.6-78.8-144.6-79.1z"/>
			<path d="M-115.4-83.5c-1.5,2.3-3.4,3.7-5.9,4.3c-0.6,0.1-1.1,0.2-1.5,0.2c-0.5,0-0.8,0-1.1,0c-0.3,0-0.6-0.1-1-0.1
				c-0.4-0.1-0.7-0.2-1-0.4c-0.7-0.4-1.1-1-1.1-1.7c-0.1-0.4-0.1-0.7-0.1-1.2c0-0.4,0.1-1,0.3-1.7c0.2-0.7,0.6-1.5,1.1-2.3
				c0.5-0.8,1.1-1.6,1.9-2.3c1.5-1.5,3.2-2.4,5-2.9c0.5-0.1,1-0.2,1.5-0.2c0.4,0,0.8,0,1.2,0.1c1.1,0,1.9,0.8,2.3,2.3
				c0.3,1,0.4,2.3,0.5,4.1c0,1.7,0.1,3.1,0.1,4c0,0.9,0.2,1.8,0.4,2.6l-1.7,0c-0.1-0.5-0.1-1-0.2-1.4c0-0.4-0.1-0.8-0.1-1.1
				C-115.1-82.2-115.2-82.9-115.4-83.5z M-115.5-88.1c0-1.1-0.6-1.7-1.7-1.7c-0.1,0-0.3,0-0.4,0c-1.4,0-2.9,0.7-4.5,2.1
				c-0.7,0.6-1.4,1.3-1.9,2.1c-0.8,1.1-1.2,2.1-1.2,3c0,1.2,0.7,1.8,2,2.1c1.8,0,3.4-0.8,5-2.4c0.7-0.7,1.2-1.4,1.7-2.2
				C-115.8-86.3-115.5-87.3-115.5-88.1z"/>
			<path d="M-100.2-85.1c0-2.3-0.1-4-0.4-5.1c0.2-0.3-0.1-0.4-0.7-0.4c-0.7,0-1.5,0.2-2.6,0.5c-1.1,0.3-1.9,0.7-2.6,1
				c-1.6,0.8-2.5,1.5-2.6,2.2l0,8l-2,0c-0.3-0.7-0.4-2.5-0.4-5.6c0-2.7,0.1-4.7,0.2-6c0.1-1.3,0.2-2,0.2-2.2
				c0.5-0.3,0.9-0.5,1.2-0.5c0.5,0,0.7,0.6,0.7,1.7c0,0.4,0,0.9-0.1,1.3c0,0.4-0.1,0.7-0.1,0.9c3.2-2.3,5.6-3.5,7.4-3.5
				c2,0,3.1,1.6,3.4,4.8c0.1,1.1,0.2,2.7,0.2,4.6l0,2.3c0,0.9,0,1.7,0.1,2.5c-0.2,0.1-0.4,0.2-0.5,0.2c-0.1,0-0.2,0-0.4-0.1
				c-0.2,0-0.4-0.1-0.8-0.1c-0.2-0.8-0.3-1.6-0.3-2.4c0-0.8,0-1.6,0-2.2L-100.2-85.1z"/>
			<path d="M-85.2-85.1c0-2.3-0.1-4-0.4-5.1c0.2-0.3-0.1-0.4-0.7-0.4c-0.7,0-1.5,0.2-2.6,0.5c-1.1,0.3-1.9,0.7-2.6,1
				c-1.6,0.8-2.5,1.5-2.6,2.2l0,8l-2,0c-0.3-0.7-0.4-2.5-0.4-5.6c0-2.7,0.1-4.7,0.2-6c0.1-1.3,0.2-2,0.2-2.2
				c0.5-0.3,0.9-0.5,1.2-0.5c0.5,0,0.7,0.6,0.7,1.7c0,0.4,0,0.9-0.1,1.3c0,0.4-0.1,0.7-0.1,0.9c3.2-2.3,5.6-3.5,7.4-3.5
				c2,0,3.1,1.6,3.4,4.8c0.1,1.1,0.2,2.7,0.2,4.6l0,2.3c0,0.9,0,1.7,0.1,2.5c-0.2,0.1-0.4,0.2-0.5,0.2c-0.1,0-0.2,0-0.4-0.1
				c-0.2,0-0.5-0.1-0.8-0.1c-0.2-0.8-0.3-1.6-0.3-2.4c0-0.8,0-1.6,0-2.2L-85.2-85.1z"/>
			<path d="M-69.7-96.4c0-0.7,0.4-1,1.2-1c0.5,0,1,0.1,1.3,0.4c0.1,0.2,0.1,0.4,0.1,0.6c0,0.2-0.1,0.4-0.2,0.6s-0.4,0.3-0.7,0.3
				c-0.3,0-0.6-0.1-0.9-0.2C-69.3-96-69.5-96.2-69.7-96.4z M-67-92.5c0.3,3.7,0.5,7.9,0.6,12.7c-0.1,0.6-0.6,0.9-1.4,0.9
				c-0.2,0-0.4,0-0.7-0.1c-0.2-0.1-0.4-0.2-0.4-0.4l0-13.1L-67-92.5z"/>
			<path d="M-53.2-81.8c0.8-0.3,1.6-0.6,2.3-0.9c0.8-0.3,1.5-0.4,2.2-0.4c0.7,0,1,0.2,1,0.6c0,0.1,0,0.2-0.1,0.5
				c0,0.2-0.3,0.4-0.8,0.7c-0.5,0.3-1.1,0.6-1.8,0.8c-0.7,0.3-1.5,0.5-2.3,0.7c-0.8,0.2-1.6,0.4-2.4,0.6c-1.6,0.3-2.8,0.5-3.5,0.5
				c-0.7,0-1.4-0.1-2.2-0.2c-0.8-0.2-1.5-0.4-2.2-0.8c-1.6-0.8-2.4-2-2.4-3.6c0-0.1,0-0.4,0-0.7c0-0.4,0.1-0.9,0.4-1.5
				c0.3-0.7,0.7-1.3,1.3-2c0.6-0.7,1.3-1.3,2.1-1.8c1.6-1.2,3.4-1.9,5.2-2.3c0.6-0.1,1.1-0.2,1.6-0.2c0.4,0,0.8,0,1,0
				c0.3,0,0.6,0,0.8,0.1c0.3,0,0.5,0.1,0.8,0.2c0.5,0.3,0.8,0.8,0.8,1.5c0,0.5-0.3,0.9-1,1.4c-0.2,0.1-0.3,0.2-0.5,0.3
				c-0.1-0.4-0.2-0.8-0.4-1.1c-0.2-0.3-0.5-0.5-1-0.5c-2.3,0.5-4.3,1.2-5.9,2.2c-1.9,1.1-2.8,2.3-2.8,3.5c0,0.1,0,0.3,0,0.4
				c0,1.3,0.5,2.1,1.4,2.7c0.7,0.4,1.7,0.6,2.8,0.6c1.1,0,2.1-0.1,3-0.4C-54.8-81.2-54-81.5-53.2-81.8z"/>
			<path d="M-32.3-79.1c-0.2,0.3-0.6,0.5-1.4,0.5s-1.1-0.3-1.1-0.8c0-2.3,0-3.9-0.1-4.7c-0.2-1.9-0.5-2.9-1.1-3
				c-1.4-0.3-2.6-0.4-3.4-0.4c-0.9,0-1.6,0.3-2.2,0.8c-0.6,0.5-1,1.4-1.3,2.7c-0.3,1.2-0.5,3-0.7,5.2l-2.3,0c0-1.1,0.1-2.1,0.1-3.1
				c0-1,0-2.1-0.1-3.4c0-1.3-0.1-2.8-0.1-4.3c-0.1-1.8-0.1-3.3-0.1-4.6c0-1.2,0.1-2.4,0.2-3.4c0.2-0.4,0.5-0.6,0.9-0.6
				c0.4,0,0.8,0.2,1.1,0.5c0.3,0.3,0.4,0.6,0.4,0.9l-0.1,4.8c0,1.8,0.1,3.2,0.3,4.1c1.8-1.2,3.6-1.8,5.4-1.8c0.6,0,1.2,0,1.9,0.1
				c1.5,0.8,2.4,1.6,2.9,2.4c0.2,0.4,0.4,0.9,0.4,1.4c0.1,0.5,0.1,1.1,0.1,1.7C-32.6-81.8-32.5-80.2-32.3-79.1z"/>
			<path d="M-5.5-79.1c-0.2,0.3-0.6,0.5-1.4,0.5c-0.7,0-1.1-0.3-1.1-0.8c0-2.3,0-3.9-0.1-4.7c-0.2-1.9-0.5-2.9-1.1-3
				c-1.4-0.3-2.6-0.4-3.4-0.4c-0.9,0-1.6,0.3-2.2,0.8c-0.6,0.5-1,1.4-1.3,2.7c-0.3,1.2-0.5,3-0.7,5.2l-2.3,0C-19-80-19-81-19-82
				c0-1,0-2.1-0.1-3.4c0-1.3-0.1-2.8-0.1-4.3c-0.1-1.8-0.1-3.3-0.1-4.6c0-1.2,0.1-2.4,0.2-3.4c0.2-0.4,0.5-0.6,0.8-0.6
				c0.4,0,0.8,0.2,1.1,0.5c0.3,0.3,0.4,0.6,0.4,0.9l-0.1,4.8c0,1.8,0.1,3.2,0.3,4.1c1.8-1.2,3.6-1.8,5.4-1.8c0.6,0,1.2,0,1.9,0.1
				c1.5,0.8,2.4,1.6,2.9,2.4c0.2,0.4,0.4,0.9,0.4,1.4c0.1,0.5,0.1,1.1,0.1,1.7C-5.8-81.8-5.6-80.2-5.5-79.1z"/>
			<path d="M1.6-80.7c1.7,0,4.3-0.8,7.8-2.3c0.2,0,0.4,0.1,0.5,0.2c0.1,0.1,0.2,0.3,0.2,0.5C9.3-81,7.8-80,5.6-79.2
				c-2.2,0.7-4.3,0.9-6.2,0.4c-2.2-0.6-3.5-1.8-4-3.7c0-0.4-0.1-0.9-0.1-1.5c0-0.6,0.2-1.5,0.5-2.5c0.3-1,0.9-2,1.7-2.9
				c0.8-0.9,1.7-1.6,2.8-2.2c1.1-0.5,2.2-0.8,3.4-0.8c1.1,0,2.4,0.4,3.8,1.2c0.7,0.4,1.2,0.8,1.6,1.3c0.4,0.5,0.6,0.9,0.6,1.4
				c0,0.1,0,0.3,0,0.4c0,1.2-0.6,1.9-1.7,2.3c-0.5,0.1-1.1,0.2-1.7,0.2L2-85.8c-1.4,0-2.5,0.3-3.2,0.9c-0.4,0.3-0.7,0.8-0.9,1.5
				C-1.7-81.6-0.4-80.7,1.6-80.7z M6.8-89.8c-0.4-0.3-0.9-0.5-1.4-0.7c-0.5-0.1-0.9-0.2-1.2-0.2c-0.3,0-0.8,0.1-1.5,0.3
				c-0.7,0.2-1.3,0.4-1.9,0.7c-1.3,0.6-2,1.3-2,2c1.6,0.1,2.7,0.2,3.5,0.2c2.2,0,3.6-0.2,4.4-0.6c0.5-0.2,0.7-0.4,0.7-0.7
				C7.5-89.1,7.3-89.5,6.8-89.8z"/>
			<path d="M12.4-90.1c0-1.1-0.1-2-0.1-2.8c0-0.8-0.1-1.4-0.1-1.8c0-0.4-0.2-1.4-0.5-2.9c0.2-0.2,0.3-0.5,0.5-0.7
				c0.2-0.2,0.4-0.3,0.7-0.3c0.7,0,1.2,2.9,1.6,8.6c0.2,3.3,0.3,6.7,0.3,10c0,0.9-0.6,1.3-1.9,1.3l-0.2,0c0-1,0-2.3-0.1-3.9
				c-0.1-1.6-0.1-3-0.1-4.1C12.5-87.9,12.4-89,12.4-90.1z"/>
			<path d="M33.4-88.5c0.1,0,0.1,0.3,0.1,0.8s0,0.9,0.1,1.1l-10,1.2l0.5,6.5L21.7-79c0-1.8-0.2-3.8-0.6-6l-3.8,1.5
				c-0.3,0-0.5-0.1-0.6-0.4c-0.3-0.5-0.5-1-0.5-1.4l4.5-1.6c-0.4-3.4-0.6-6.1-0.6-8.2c0-2.1,0.2-3.7,0.5-4.9c0.4-1.2,0.9-2,1.5-2.4
				c0.7-0.4,1.4-0.6,2.2-0.6c0.8,0,1.5,0.2,2.3,0.5c0.8,0.3,1.5,0.8,2.3,1.3c0.7,0.5,1.3,1.1,1.8,1.7c0.5,0.6,0.8,1.3,0.8,1.9
				c0,0.5,0,0.8-0.1,1c-0.8-1.1-1.7-2.1-2.8-2.9c-1.3-1-2.6-1.5-3.7-1.5c-1.1,0-1.9,0.8-2.2,2.4c-0.2,0.8-0.3,2-0.3,3.5
				c0,1.5,0,2.9,0.1,4.1c0.1,1.2,0.3,2.5,0.7,3.7c1.2,0,2.6-0.1,4.1-0.3C30-88.2,32.1-88.5,33.4-88.5z"/>
			<path d="M40.4-80.7c1.7,0,4.3-0.8,7.8-2.3c0.2,0,0.4,0.1,0.5,0.2c0.1,0.1,0.2,0.3,0.2,0.5c-0.8,1.3-2.3,2.4-4.5,3.1
				c-2.2,0.7-4.3,0.9-6.2,0.4c-2.2-0.6-3.5-1.8-4-3.7c0-0.4-0.1-0.9-0.1-1.5c0-0.6,0.2-1.5,0.5-2.5c0.3-1,0.9-2,1.7-2.9
				c0.8-0.9,1.7-1.6,2.8-2.2c1.1-0.5,2.2-0.8,3.4-0.8c1.1,0,2.4,0.4,3.8,1.2c0.7,0.4,1.2,0.8,1.6,1.3c0.4,0.5,0.6,0.9,0.6,1.4
				c0,0.1,0,0.3,0,0.4c0,1.2-0.6,1.9-1.7,2.3c-0.5,0.1-1.1,0.2-1.7,0.2l-4.2-0.2c-1.4,0-2.5,0.3-3.2,0.9c-0.4,0.3-0.7,0.8-0.9,1.5
				C37.1-81.6,38.4-80.7,40.4-80.7z M45.6-89.8c-0.4-0.3-0.9-0.5-1.4-0.7c-0.5-0.1-0.9-0.2-1.2-0.2c-0.3,0-0.8,0.1-1.5,0.3
				c-0.7,0.2-1.3,0.4-1.9,0.7c-1.3,0.6-2,1.3-2,2c1.6,0.1,2.7,0.2,3.5,0.2c2.2,0,3.6-0.2,4.4-0.6c0.5-0.2,0.7-0.4,0.7-0.7
				C46.3-89.1,46-89.5,45.6-89.8z"/>
			<path d="M62-85.1c0-2.3-0.1-4-0.4-5.1c0.2-0.3-0.1-0.4-0.7-0.4c-0.7,0-1.5,0.2-2.6,0.5c-1.1,0.3-1.9,0.7-2.6,1
				c-1.6,0.8-2.5,1.5-2.6,2.2l0,8l-2,0c-0.3-0.7-0.4-2.5-0.4-5.6c0-2.7,0.1-4.7,0.2-6c0.1-1.3,0.2-2,0.2-2.2
				c0.5-0.3,0.9-0.5,1.2-0.5c0.5,0,0.7,0.6,0.7,1.7c0,0.4,0,0.9-0.1,1.3c0,0.4-0.1,0.7-0.1,0.9c3.2-2.3,5.6-3.5,7.4-3.5
				c2,0,3.1,1.6,3.4,4.8c0.1,1.1,0.2,2.7,0.2,4.6l0,2.3c0,0.9,0,1.7,0.1,2.5c-0.2,0.1-0.4,0.2-0.5,0.2c-0.1,0-0.2,0-0.4-0.1
				c-0.2,0-0.5-0.1-0.8-0.1c-0.2-0.8-0.3-1.6-0.3-2.4c0-0.8,0-1.6,0-2.2L62-85.1z"/>
			<path d="M73-86.7c-3.1,0-4.6-0.5-4.6-1.5c0-0.2,0-0.3,0.1-0.5c2.6-1.4,4.3-2.4,5.1-2.9c2.5-1.6,3.8-2.9,3.8-4
				c0-0.9-1-1.6-3.1-2.1c-0.8,0-1.9,0.1-3.2,0.3c-1.3,0.2-2.2,0.4-2.9,0.5c-0.7,0.1-1.3,0.2-2,0.2c-0.2,0-0.5-0.1-0.7-0.4
				c-0.3-0.3-0.4-0.6-0.5-0.9c2.5-0.8,4.8-1.2,7.1-1.2c1.6,0,3,0.2,4,0.6c2.1,0.7,3.2,1.8,3.2,3.3c0,1.3-1.1,2.8-3.3,4.4
				c-1.2,0.9-2.7,1.7-4.6,2.6l3.4,1l0,0.7C74.4-86.7,73.8-86.7,73-86.7z M73-78.6c-0.7,0-1.1-0.3-1.1-1c0-0.7,0.4-1,1.1-1
				c0.1,0,0.3-0.1,0.5-0.1c0.2,0,0.3,0.1,0.5,0.3c0.2,0.2,0.3,0.5,0.3,0.8c0,0.3-0.1,0.6-0.3,0.8c-0.2,0.2-0.3,0.3-0.5,0.3
				C73.3-78.6,73.1-78.6,73-78.6z"/>
		</g>
	</g>
</g>
<g id="text_adjustable">
	<g id="sprechblase_text_1_" transform="translate(232.485 181.187) rotate(-3)" class="st4">
		<g class="st5">
			<path d="M-129.5-121.2l0.8,0c0.3,0,0.6,0,1,0.1c0.3,0.1,0.5,0.3,0.5,0.6c0.1,0.8-0.3,1.2-1.4,1.1c-0.3,0-0.6,0-0.8-0.1
				c-0.2,0-0.4,0-0.6,0c-0.2,0-0.2,0.1-0.2,0.2c0.2,0.6,0.4,1.2,0.6,1.9c0.2,0.7,0.5,1.4,0.7,2.1c0.7,1.7,1.4,3,2,3.8
				c-0.3,0.4-0.7,0.8-1.2,1c-0.4,0.3-0.7,0.4-0.7,0.4c0,0-0.1,0-0.1,0l-4.1-8.7l-8,2l-0.3,1.2c-0.6,2.2-1.2,3.8-1.9,4.7
				c-0.1,0.2-0.4,0.2-0.7,0.1c-0.6-0.2-0.9-0.4-0.9-0.6c0,0,0.2-0.6,0.6-1.7c0.4-1.1,0.8-2.2,1.2-3.3c0.4-1.1,0.9-2.3,1.3-3.5
				c0.5-1.2,0.9-2.4,1.3-3.5c0.4-1.1,0.8-2.1,1.1-3c0.3-0.9,0.6-1.5,0.7-1.9c0.1-0.4,0.2-0.8,0.3-1.1c0-0.3,0.1-0.6,0.2-0.8
				c0.2-0.4,0.7-0.7,1.5-0.7c0.8,0.5,1.5,1.1,1.9,1.8c0.5,0.8,0.8,1.6,1.2,2.4c0.3,0.9,0.6,1.7,1,2.6c0.3,0.9,0.7,1.7,1.3,2.4
				c0.2,0.3,0.4,0.4,0.8,0.4C-130.1-121.2-129.8-121.2-129.5-121.2z M-136.9-127.5c-0.2,1.2-0.5,2.4-1.1,3.7c-0.5,1.2-1,2.2-1.3,2.9
				c-0.3,0.7-0.6,1.3-0.8,1.9c1.3,0,3-0.4,4.9-1.2c0.5-0.2,1-0.4,1.4-0.6C-134.7-124.7-135.7-127-136.9-127.5z"/>
			<path d="M-111.8-110.9c-0.2,0.3-0.6,0.5-1.4,0.5c-0.7,0-1.1-0.3-1.1-0.8c0-2.3,0-3.9-0.1-4.7c-0.2-1.9-0.5-2.9-1.1-3
				c-1.4-0.3-2.6-0.4-3.4-0.4c-0.9,0-1.6,0.3-2.2,0.8c-0.6,0.5-1,1.4-1.3,2.7c-0.3,1.2-0.5,3-0.7,5.2l-2.3,0c0-1.1,0.1-2.1,0.1-3.1
				c0-1,0-2.1-0.1-3.4c0-1.3-0.1-2.8-0.1-4.3c-0.1-1.8-0.1-3.3-0.1-4.6c0-1.2,0.1-2.4,0.2-3.4c0.2-0.4,0.5-0.6,0.8-0.6
				c0.4,0,0.8,0.2,1.1,0.5c0.3,0.3,0.4,0.6,0.4,0.9l-0.1,4.8c0,1.8,0.1,3.2,0.3,4.1c1.8-1.2,3.6-1.8,5.4-1.8c0.6,0,1.2,0,1.9,0.1
				c1.5,0.8,2.4,1.6,2.9,2.4c0.2,0.4,0.4,0.9,0.4,1.4c0.1,0.5,0.1,1.1,0.1,1.7C-112.2-113.6-112-111.9-111.8-110.9z"/>
			<path d="M-110-116.1c0-2.3,1-4.2,3-5.6c1.6-1.1,3.5-1.8,5.7-2c0.1,0,0.4,0,0.8,0c0.4,0,1,0.1,1.7,0.4c1.6,0.5,2.7,1.5,3.3,2.9
				c0.2,0.5,0.4,1,0.4,1.4c0,0.4,0,0.6,0,0.8c0,2.4-0.9,4.4-2.8,5.8c-1.7,1.3-3.9,1.9-6.4,1.9c-1.9,0-3.3-0.4-4.2-1.3
				C-109.6-112.6-110-114-110-116.1z M-108-115.3c0,1.2,0.3,2,1,2.5c0.5,0.3,1.3,0.5,2.5,0.5c1.2,0,2.2-0.1,3-0.3
				c0.9-0.2,1.7-0.5,2.3-0.9c1.5-0.9,2.2-2.4,2.2-4.4c0-1.2-0.3-2.1-0.9-2.9c-0.7-0.8-1.6-1.2-2.7-1.2c-0.8,0.1-1.5,0.3-2.3,0.4
				c-0.8,0.2-1.5,0.5-2.2,0.9C-106.6-119.7-107.6-117.9-108-115.3z"/>
			<path d="M-94-128.2c0-0.7,0.4-1,1.2-1c0.5,0,1,0.1,1.3,0.4c0.1,0.2,0.1,0.4,0.1,0.6c0,0.2-0.1,0.4-0.2,0.6
				c-0.2,0.2-0.4,0.3-0.7,0.3c-0.3,0-0.6-0.1-0.9-0.2C-93.6-127.8-93.8-128-94-128.2z M-91.2-124.3c0.3,3.7,0.5,7.9,0.6,12.7
				c-0.1,0.6-0.6,0.9-1.4,0.9c-0.2,0-0.4,0-0.7-0.1c-0.2-0.1-0.4-0.2-0.4-0.4l0-13.1L-91.2-124.3z"/>
			<path d="M-88.7-113c0.1-0.3,0.3-0.4,0.4-0.4c0.2,0,0.3-0.1,0.5-0.1c0.2,0,0.3,0,0.5,0.1c0.3,0.1,0.5,0.2,0.6,0.5c0,0,0,0.1,0,0.2
				c0,0.1,0,0.2-0.1,0.4c-0.1,0.2-0.2,0.4-0.4,0.7c-0.2,0.3-0.3,0.6-0.5,0.9c-0.2,0.3-0.4,0.6-0.6,0.9c-0.2,0.3-0.3,0.5-0.4,0.7
				s-0.2,0.3-0.3,0.4c-0.5,0.5-0.9,0.7-1.3,0.7c-0.1,0-0.2,0-0.4-0.1L-88.7-113z"/>
			<path d="M-72.1-128.2c0-0.7,0.4-1,1.2-1c0.5,0,1,0.1,1.3,0.4c0.1,0.2,0.1,0.4,0.1,0.6c0,0.2-0.1,0.4-0.2,0.6
				c-0.2,0.2-0.4,0.3-0.7,0.3c-0.3,0-0.6-0.1-0.9-0.2C-71.7-127.8-71.9-128-72.1-128.2z M-69.4-124.3c0.3,3.7,0.5,7.9,0.6,12.7
				c-0.1,0.6-0.6,0.9-1.4,0.9c-0.2,0-0.4,0-0.7-0.1c-0.2-0.1-0.4-0.2-0.4-0.4l0-13.1L-69.4-124.3z"/>
			<path d="M-55.6-113.6c0.8-0.3,1.6-0.6,2.3-0.9c0.8-0.3,1.5-0.4,2.2-0.4c0.7,0,1,0.2,1,0.6c0,0.1,0,0.2-0.1,0.5
				c0,0.2-0.3,0.4-0.8,0.7c-0.5,0.3-1.1,0.6-1.8,0.8c-0.7,0.3-1.5,0.5-2.3,0.7c-0.8,0.2-1.6,0.4-2.4,0.6c-1.6,0.3-2.8,0.5-3.5,0.5
				c-0.7,0-1.4-0.1-2.2-0.2c-0.8-0.2-1.5-0.4-2.2-0.8c-1.6-0.8-2.4-2-2.4-3.6c0-0.1,0-0.4,0-0.7c0-0.4,0.1-0.9,0.4-1.5
				c0.3-0.7,0.7-1.3,1.3-2c0.6-0.7,1.3-1.3,2.1-1.8c1.6-1.2,3.4-1.9,5.2-2.3c0.6-0.1,1.1-0.2,1.6-0.2c0.4,0,0.8,0,1,0
				c0.3,0,0.6,0,0.8,0.1c0.3,0,0.5,0.1,0.8,0.2c0.5,0.3,0.8,0.8,0.8,1.5c0,0.5-0.3,0.9-1,1.4c-0.2,0.1-0.3,0.2-0.5,0.3
				c-0.1-0.4-0.2-0.8-0.4-1.1c-0.2-0.3-0.5-0.5-1-0.5c-2.3,0.5-4.3,1.2-5.9,2.2c-1.9,1.1-2.8,2.3-2.8,3.5c0,0.1,0,0.3,0,0.4
				c0,1.2,0.5,2.1,1.4,2.7c0.7,0.4,1.7,0.6,2.8,0.6c1.1,0,2.1-0.1,3-0.4C-57.2-113-56.4-113.3-55.6-113.6z"/>
			<path d="M-34.7-110.9c-0.2,0.3-0.6,0.5-1.4,0.5c-0.7,0-1.1-0.3-1.1-0.8c0-2.3,0-3.9-0.1-4.7c-0.2-1.9-0.5-2.9-1.1-3
				c-1.4-0.3-2.6-0.4-3.4-0.4c-0.9,0-1.6,0.3-2.2,0.8c-0.6,0.5-1,1.4-1.3,2.7c-0.3,1.2-0.5,3-0.7,5.2l-2.3,0c0-1.1,0.1-2.1,0.1-3.1
				c0-1,0-2.1-0.1-3.4c0-1.3-0.1-2.8-0.1-4.3c-0.1-1.8-0.1-3.3-0.1-4.6c0-1.2,0.1-2.4,0.2-3.4c0.2-0.4,0.5-0.6,0.9-0.6
				c0.4,0,0.8,0.2,1.1,0.5c0.3,0.3,0.4,0.6,0.4,0.9l-0.1,4.8c0,1.8,0.1,3.2,0.3,4.1c1.8-1.2,3.6-1.8,5.4-1.8c0.6,0,1.3,0,1.9,0.1
				c1.5,0.8,2.4,1.6,2.9,2.4c0.2,0.4,0.4,0.9,0.4,1.4c0.1,0.5,0.1,1.1,0.1,1.7C-35-113.6-34.9-111.9-34.7-110.9z"/>
			<path d="M-21.4-127.5l-0.1-3.8c0-0.3,0.1-0.6,0.3-0.7c0.2-0.2,0.5-0.3,0.8-0.3c0.3,0,0.6,0.1,0.8,0.2c0.3,0.2,0.4,0.4,0.3,0.7
				l0.2,12.7c1.2-1.6,2.9-3,5-4.1c1.7-0.9,3.3-1.4,4.6-1.4c1.2,0,2,0.4,2.7,1.1c0.5,0.6,0.7,1.4,0.7,2.3c0,1-0.2,1.8-0.5,2.5
				c-0.4,0.7-0.8,1.4-1.4,2.1s-1.3,1.3-2,1.8c-0.8,0.6-1.5,1.1-2.3,1.5c-1.5,0.9-2.9,1.6-4.4,2.1c-0.1,0-0.3,0-0.6,0
				c-0.3,0-0.6,0-1,0c-1.1,0-2-0.1-2.8-0.4c-0.2-1.9-0.3-4.7-0.3-8.5L-21.4-127.5z M-19-113.1c0,0.2,0.2,0.3,0.6,0.3
				c0.4,0,0.9-0.1,1.5-0.2c0.6-0.2,1.3-0.4,2.1-0.8c0.8-0.4,1.7-0.9,2.5-1.5c2-1.4,3.4-3,4.4-4.9c-0.3-1.1-1-1.7-2.3-1.7
				c-1.2,0-2.5,0.4-3.9,1.3c-2.1,1.2-3.5,2.8-4.4,4.6c-0.4,0.7-0.6,1.5-0.6,2.2c0,0.2,0,0.4,0,0.5S-19-113.1-19-113.1z"/>
			<path d="M-4.8-128.2c0-0.7,0.4-1,1.2-1c0.5,0,1,0.1,1.3,0.4c0.1,0.2,0.1,0.4,0.1,0.6c0,0.2-0.1,0.4-0.2,0.6
				c-0.2,0.2-0.4,0.3-0.7,0.3c-0.3,0-0.6-0.1-0.9-0.2C-4.5-127.8-4.7-128-4.8-128.2z M-2.1-124.3c0.3,3.7,0.5,7.9,0.6,12.7
				c-0.1,0.6-0.6,0.9-1.4,0.9c-0.2,0-0.4,0-0.7-0.1c-0.2-0.1-0.4-0.2-0.4-0.4l0-13.1L-2.1-124.3z"/>
			<path d="M11.2-116.9c0-2.3-0.1-4-0.4-5.1c0.2-0.3-0.1-0.4-0.7-0.4c-0.7,0-1.5,0.2-2.6,0.5c-1.1,0.3-1.9,0.7-2.6,1
				c-1.6,0.8-2.5,1.5-2.6,2.2l0,8l-2,0c-0.3-0.7-0.4-2.5-0.4-5.6c0-2.7,0.1-4.7,0.2-6c0.1-1.3,0.2-2,0.3-2.2
				c0.5-0.3,0.9-0.5,1.2-0.5c0.5,0,0.7,0.6,0.7,1.7c0,0.4,0,0.9-0.1,1.3c0,0.4-0.1,0.7-0.1,0.9c3.2-2.3,5.6-3.5,7.4-3.5
				c2,0,3.1,1.6,3.4,4.8c0.1,1.1,0.2,2.7,0.2,4.6l0,2.3c0,0.9,0,1.7,0.1,2.5c-0.2,0.1-0.4,0.2-0.5,0.2c-0.1,0-0.2,0-0.4-0.1
				c-0.2,0-0.4-0.1-0.8-0.1c-0.2-0.8-0.3-1.6-0.3-2.4c0-0.8,0-1.6,0-2.2L11.2-116.9z"/>
			<path d="M28.8-115.3c-1.1-0.2-1.6-0.4-1.6-0.8c0-0.3,0.2-0.5,0.6-0.9c0.4-0.3,0.7-0.7,1.1-1c0-1.2-0.2-2.5-0.5-3.9
				c-0.4-1.5-0.6-2.6-0.8-3.4c-0.2-0.8-0.2-1.5-0.2-2.2c0-0.7,0.1-1.1,0.3-1.3c0.2-0.2,0.5-0.3,0.9-0.3c0.4,0,0.6,0.1,0.8,0.2
				c0.1,0.1,0.2,0.2,0.2,0.4c0,0.2,0.1,0.3,0.1,0.5c0,0.2,0,0.3,0.1,0.5c0.1,0.4,0.4,0.6,0.9,0.6c1.3,0,2.6-0.1,3.9-0.3
				c1.3-0.2,2.6-0.4,3.9-0.6c2.6-0.4,4.4-0.6,5.4-0.6c1,0,1.9,0,2.5,0.1c0,0.4,0.1,0.7,0.1,1c0.1,0.3,0.1,0.5,0.1,0.7
				c0,0.3-0.3,0.4-1,0.4c-10.2,0.4-15.3,1.1-15.3,2.3c0,1.3,0.1,2.4,0.3,3.3c0.2,0.9,0.3,1.5,0.4,1.7c0.1,0.2,0.2,0.4,0.3,0.4
				c1.1,0,2.2-0.1,3.4-0.3c1.1-0.2,2.3-0.4,3.4-0.6c1.1-0.2,2.3-0.4,3.4-0.6c1.2-0.2,2.3-0.3,3.4-0.3c0,0,0,0.1,0,0.2
				c0,0.1,0,0.3,0,0.5c-0.1,0.5-0.1,0.7,0,0.7c-0.8,0.5-2.4,0.9-4.6,1.1c-1,0.1-1.9,0.3-2.9,0.4c-1,0.1-1.9,0.2-2.8,0.4
				c-1.9,0.3-3.1,0.6-3.4,1.1l-0.3,5.7c-0.2,0.2-0.5,0.3-0.7,0.3l-1.1-0.1c-0.1,0-0.2,0-0.3,0L28.8-115.3z"/>
			<path d="M62.2-111c0,0.4-0.3,0.5-0.9,0.5c-0.3,0-0.6,0-0.8-0.1c-0.2-0.1-0.4-0.2-0.5-0.2l0.3-3.8c-1.8,1.5-3.1,2.5-3.9,2.9
				c-1.3,0.6-2.6,1-4,1c-0.3,0-0.5,0-0.8,0c-2.9-0.3-4.3-2.1-4.3-5.5c0-1.5,0.4-4.1,1.2-7.8c0.3-1.1,0.4-2.2,0.5-3.1
				c0.1,0,0.2,0,0.4,0l0.4,0c0.1,0,0.2,0,0.3,0c0.6,0,0.9,0.5,0.9,1.4c0,0.6-0.1,1.4-0.4,2.4c-0.8,3.1-1.2,5.3-1.2,6.5
				c0,1.3,0.3,2.3,1,3c0.4,0.5,1.1,0.8,2,0.9c0.1,0,0.2,0,0.4,0c3.2,0,5.3-1.5,6.3-4.6c0.6-1.8,0.9-4,1-6.5c0.1-1.2,0.1-2.3,0.1-3.5
				c0.2-0.6,0.5-0.9,0.9-0.9c0.4,0,0.8,0.2,1.2,0.5c0.1,1.1,0.1,2.2,0.1,3.3l-0.3,11.2C62.1-112.6,62.1-111.8,62.2-111z"/>
			<path d="M65-110.5c-0.4,0-0.7-0.2-0.7-0.6c0-0.4,0.2-0.8,0.7-1.2c0.2-0.1,0.3-0.2,0.5-0.2c0.1,0,0.2,0,0.2,0
				c0.4,0,0.7,0.1,0.8,0.2c0.1,0.2,0.2,0.4,0.2,0.7c0,0.3-0.1,0.5-0.2,0.6c-0.1,0.1-0.3,0.2-0.4,0.3C65.9-110.5,65.5-110.5,65-110.5
				z"/>
			<path d="M-144.4-74.9c0-0.1,0-0.2,0.1-0.4c0-0.2,0.1-0.6,0.1-1.2c0-0.6,0.1-1.4,0.1-2.3c0-0.9,0.1-1.9,0.1-3
				c0-1.1,0.1-2.2,0.1-3.3c0-1.1,0.1-2.2,0.1-3.3c0-1.1,0.1-2.1,0.2-3c0.2-2,0.4-3.1,0.7-3.5c0.2-0.4,0.7-0.7,1.6-0.7l0.4,0
				c0,0.7-0.1,2.3-0.2,4.7c-0.2,2.4-0.3,3.8-0.3,4.2c1.3-0.6,2.5-1.3,3.7-2.1c1.2-0.8,2.3-1.4,3.3-2.1c1-0.6,2-1.2,2.8-1.6
				c0.8-0.4,1.5-0.6,1.9-0.6c0.7,0,1,0.3,1,0.8c0,0.4-0.3,0.9-0.9,1.4c-0.6,0.5-1.4,1-2.3,1.6c-0.9,0.5-2,1.1-3.1,1.6
				c-1.1,0.5-2.1,1.1-3.1,1.6c-0.9,0.5-1.7,1-2.3,1.5c-0.6,0.4-0.9,0.8-0.9,1.2c0.4,0.2,0.9,0.5,1.7,0.9c0.8,0.4,1.7,0.8,2.7,1.2
				c1,0.5,2.1,0.9,3.1,1.5c1.1,0.5,2.1,1,3,1.6c2,1.2,3,2.1,3,2.9c0,0.3-0.2,0.4-0.5,0.5c-0.1,0-0.3,0.1-0.4,0.1l-0.3,0
				c-0.9,0-1.8-0.2-2.6-0.7c-0.8-0.4-1.7-1-2.6-1.6c-0.9-0.6-2-1.3-3.1-1.9c-1.2-0.7-2.6-1.2-4.2-1.7l0,5.9c0,0.1-0.2,0.2-0.5,0.3
				c-0.4,0.1-0.9,0.2-1.4,0.2C-144.1-74.5-144.4-74.6-144.4-74.9z"/>
			<path d="M-115.2-79.3c-1.5,2.3-3.4,3.7-5.9,4.3c-0.6,0.1-1.1,0.2-1.5,0.2c-0.5,0-0.8,0-1.1,0c-0.3,0-0.6-0.1-1-0.1
				c-0.4-0.1-0.7-0.2-1-0.4c-0.7-0.4-1.1-1-1.1-1.7c-0.1-0.4-0.1-0.7-0.1-1.2c0-0.4,0.1-1,0.3-1.7c0.2-0.7,0.6-1.5,1.1-2.3
				c0.5-0.8,1.1-1.6,1.9-2.3c1.5-1.5,3.2-2.4,5-2.9c0.5-0.1,1-0.2,1.5-0.2c0.4,0,0.8,0,1.2,0.1c1.1,0,1.9,0.8,2.3,2.3
				c0.3,1,0.4,2.3,0.5,4.1c0,1.7,0.1,3.1,0.1,4c0,0.9,0.2,1.8,0.4,2.6l-1.7,0c-0.1-0.5-0.1-1-0.2-1.4c0-0.4-0.1-0.8-0.1-1.1
				C-114.9-78-115-78.7-115.2-79.3z M-115.3-83.9c0-1.1-0.6-1.7-1.7-1.7c-0.1,0-0.3,0-0.4,0c-1.4,0-2.9,0.7-4.5,2.1
				c-0.7,0.6-1.4,1.3-1.9,2.1c-0.8,1.1-1.2,2.1-1.2,3c0,1.2,0.7,1.8,2,2.1c1.8,0,3.4-0.8,5-2.4c0.7-0.7,1.2-1.4,1.7-2.2
				C-115.6-82.1-115.3-83.1-115.3-83.9z"/>
			<path d="M-100-80.9c0-2.3-0.1-4-0.4-5.1c0.2-0.3-0.1-0.4-0.7-0.4c-0.7,0-1.5,0.2-2.6,0.5c-1.1,0.3-1.9,0.7-2.6,1
				c-1.6,0.8-2.5,1.5-2.6,2.2l0,8l-2,0c-0.3-0.7-0.4-2.5-0.4-5.6c0-2.7,0.1-4.7,0.2-6c0.1-1.3,0.2-2,0.2-2.2
				c0.5-0.3,0.9-0.5,1.2-0.5c0.5,0,0.7,0.6,0.7,1.7c0,0.4,0,0.9-0.1,1.3c0,0.4-0.1,0.7-0.1,0.9c3.2-2.3,5.6-3.5,7.4-3.5
				c2,0,3.1,1.6,3.4,4.8c0.1,1.1,0.2,2.7,0.2,4.6l0,2.3c0,0.9,0,1.7,0.1,2.5c-0.2,0.1-0.4,0.2-0.5,0.2c-0.1,0-0.2,0-0.4-0.1
				c-0.2,0-0.4-0.1-0.8-0.1c-0.2-0.8-0.3-1.6-0.3-2.4c0-0.8,0-1.6,0-2.2L-100-80.9z"/>
			<path d="M-85-80.9c0-2.3-0.1-4-0.4-5.1c0.2-0.3-0.1-0.4-0.7-0.4c-0.7,0-1.5,0.2-2.6,0.5c-1.1,0.3-1.9,0.7-2.6,1
				c-1.6,0.8-2.5,1.5-2.6,2.2l0,8l-2,0c-0.3-0.7-0.4-2.5-0.4-5.6c0-2.7,0.1-4.7,0.2-6c0.1-1.3,0.2-2,0.2-2.2
				c0.5-0.3,0.9-0.5,1.2-0.5c0.5,0,0.7,0.6,0.7,1.7c0,0.4,0,0.9-0.1,1.3c0,0.4-0.1,0.7-0.1,0.9c3.2-2.3,5.6-3.5,7.4-3.5
				c2,0,3.1,1.6,3.4,4.8c0.1,1.1,0.2,2.7,0.2,4.6l0,2.3c0,0.9,0,1.7,0.1,2.5c-0.2,0.1-0.4,0.2-0.5,0.2c-0.1,0-0.2,0-0.4-0.1
				c-0.2,0-0.5-0.1-0.8-0.1c-0.2-0.8-0.3-1.6-0.3-2.4c0-0.8,0-1.6,0-2.2L-85-80.9z"/>
			<path d="M-69.5-92.2c0-0.7,0.4-1,1.2-1c0.5,0,1,0.1,1.3,0.4c0.1,0.2,0.1,0.4,0.1,0.6c0,0.2-0.1,0.4-0.2,0.6
				c-0.2,0.2-0.4,0.3-0.7,0.3c-0.3,0-0.6-0.1-0.9-0.2C-69.1-91.8-69.3-92-69.5-92.2z M-66.8-88.3c0.3,3.7,0.5,7.9,0.6,12.7
				c-0.1,0.6-0.6,0.9-1.4,0.9c-0.2,0-0.4,0-0.7-0.1s-0.4-0.2-0.4-0.4l0-13.1L-66.8-88.3z"/>
			<path d="M-53-77.6c0.8-0.3,1.6-0.6,2.3-0.9c0.8-0.3,1.5-0.4,2.2-0.4c0.7,0,1,0.2,1,0.6c0,0.1,0,0.2-0.1,0.5
				c0,0.2-0.3,0.4-0.8,0.7c-0.5,0.3-1.1,0.6-1.8,0.8c-0.7,0.3-1.5,0.5-2.3,0.7c-0.8,0.2-1.6,0.4-2.4,0.6c-1.6,0.3-2.8,0.5-3.5,0.5
				c-0.7,0-1.4-0.1-2.2-0.2c-0.8-0.2-1.5-0.4-2.2-0.8c-1.6-0.8-2.4-2-2.4-3.6c0-0.1,0-0.4,0-0.7c0-0.4,0.1-0.9,0.4-1.5
				c0.3-0.7,0.7-1.3,1.3-2c0.6-0.7,1.3-1.3,2.1-1.8c1.6-1.2,3.4-1.9,5.2-2.3c0.6-0.1,1.1-0.2,1.6-0.2c0.4,0,0.8,0,1,0
				c0.3,0,0.6,0,0.8,0.1c0.3,0,0.5,0.1,0.8,0.2c0.5,0.3,0.8,0.8,0.8,1.5c0,0.5-0.3,0.9-1,1.4c-0.2,0.1-0.3,0.2-0.5,0.3
				c-0.1-0.4-0.2-0.8-0.4-1.1c-0.2-0.3-0.5-0.5-1-0.5c-2.3,0.5-4.3,1.2-5.9,2.2c-1.9,1.1-2.8,2.3-2.8,3.5c0,0.1,0,0.3,0,0.4
				c0,1.3,0.5,2.1,1.4,2.7c0.7,0.4,1.7,0.6,2.8,0.6c1.1,0,2.1-0.1,3-0.4C-54.6-77-53.8-77.3-53-77.6z"/>
			<path d="M-32.1-74.9c-0.2,0.3-0.6,0.5-1.4,0.5s-1.1-0.3-1.1-0.8c0-2.3,0-3.9-0.1-4.7c-0.2-1.9-0.5-2.9-1.1-3
				c-1.4-0.3-2.6-0.4-3.4-0.4c-0.9,0-1.6,0.3-2.2,0.8c-0.6,0.5-1,1.4-1.3,2.7c-0.3,1.2-0.5,3-0.7,5.2l-2.3,0c0-1.1,0.1-2.1,0.1-3.1
				c0-1,0-2.1-0.1-3.4c0-1.3-0.1-2.8-0.1-4.3c-0.1-1.8-0.1-3.3-0.1-4.6c0-1.2,0.1-2.4,0.2-3.4c0.2-0.4,0.5-0.6,0.9-0.6
				c0.4,0,0.8,0.2,1.1,0.5c0.3,0.3,0.4,0.6,0.4,0.9l-0.1,4.8c0,1.8,0.1,3.2,0.3,4.1c1.8-1.2,3.6-1.8,5.4-1.8c0.6,0,1.2,0,1.9,0.1
				c1.5,0.8,2.4,1.6,2.9,2.4c0.2,0.4,0.4,0.9,0.4,1.4c0.1,0.5,0.1,1.1,0.1,1.7C-32.4-77.6-32.3-75.9-32.1-74.9z"/>
			<path d="M-5.2-74.9c-0.2,0.3-0.6,0.5-1.4,0.5c-0.7,0-1.1-0.3-1.1-0.8c0-2.3,0-3.9-0.1-4.7c-0.2-1.9-0.5-2.9-1.1-3
				c-1.4-0.3-2.6-0.4-3.4-0.4c-0.9,0-1.6,0.3-2.2,0.8c-0.6,0.5-1,1.4-1.3,2.7c-0.3,1.2-0.5,3-0.7,5.2l-2.3,0c0-1.1,0.1-2.1,0.1-3.1
				s0-2.1-0.1-3.4c0-1.3-0.1-2.8-0.1-4.3c-0.1-1.8-0.1-3.3-0.1-4.6c0-1.2,0.1-2.4,0.2-3.4c0.2-0.4,0.5-0.6,0.8-0.6
				c0.4,0,0.8,0.2,1.1,0.5c0.3,0.3,0.4,0.6,0.4,0.9l-0.1,4.8c0,1.8,0.1,3.2,0.3,4.1c1.8-1.2,3.6-1.8,5.4-1.8c0.6,0,1.2,0,1.9,0.1
				c1.5,0.8,2.4,1.6,2.9,2.4c0.2,0.4,0.4,0.9,0.4,1.4c0.1,0.5,0.1,1.1,0.1,1.7C-5.6-77.6-5.4-76-5.2-74.9z"/>
			<path d="M1.8-76.5c1.7,0,4.3-0.8,7.8-2.3c0.2,0,0.4,0.1,0.5,0.2c0.1,0.1,0.2,0.3,0.2,0.5c-0.8,1.3-2.3,2.4-4.5,3.1
				c-2.2,0.7-4.3,0.9-6.2,0.4c-2.2-0.6-3.5-1.8-4-3.7c0-0.4-0.1-0.9-0.1-1.5c0-0.6,0.2-1.5,0.5-2.5c0.3-1,0.9-2,1.7-2.9
				c0.8-0.9,1.7-1.6,2.8-2.2c1.1-0.5,2.2-0.8,3.4-0.8c1.1,0,2.4,0.4,3.8,1.2c0.7,0.4,1.2,0.8,1.6,1.3c0.4,0.5,0.6,0.9,0.6,1.4
				c0,0.1,0,0.3,0,0.4c0,1.2-0.6,1.9-1.7,2.3c-0.5,0.1-1.1,0.2-1.7,0.2l-4.2-0.2c-1.4,0-2.5,0.3-3.2,0.9c-0.4,0.3-0.7,0.8-0.9,1.5
				C-1.4-77.4-0.2-76.5,1.8-76.5z M7.1-85.6c-0.4-0.3-0.9-0.5-1.4-0.7c-0.5-0.1-0.9-0.2-1.2-0.2c-0.3,0-0.8,0.1-1.5,0.3
				c-0.7,0.2-1.3,0.4-1.9,0.7c-1.3,0.6-2,1.3-2,2c1.6,0.1,2.7,0.2,3.5,0.2c2.2,0,3.6-0.2,4.4-0.6c0.5-0.2,0.7-0.4,0.7-0.7
				C7.7-84.9,7.5-85.3,7.1-85.6z"/>
			<path d="M12.6-85.9c0-1.1-0.1-2-0.1-2.8c0-0.8-0.1-1.4-0.1-1.8c0-0.4-0.2-1.4-0.5-2.9c0.2-0.2,0.3-0.5,0.5-0.7
				c0.2-0.2,0.4-0.3,0.7-0.3c0.7,0,1.2,2.9,1.6,8.6c0.2,3.3,0.3,6.7,0.3,10c0,0.9-0.6,1.3-1.9,1.3l-0.2,0c0-1,0-2.3-0.1-3.9
				c-0.1-1.6-0.1-3-0.1-4.1S12.7-84.8,12.6-85.9z"/>
			<path d="M33.6-84.3c0.1,0,0.1,0.3,0.1,0.8s0,0.9,0.1,1.1l-10,1.2l0.5,6.5l-2.4-0.1c0-1.8-0.2-3.8-0.6-6l-3.8,1.5
				c-0.3,0-0.5-0.1-0.6-0.4c-0.3-0.5-0.5-1-0.5-1.4l4.5-1.6c-0.4-3.4-0.6-6.1-0.6-8.2c0-2.1,0.2-3.7,0.5-4.9c0.4-1.2,0.9-2,1.5-2.4
				c0.7-0.4,1.4-0.6,2.2-0.6c0.8,0,1.5,0.2,2.3,0.5c0.8,0.3,1.5,0.8,2.3,1.3c0.7,0.5,1.3,1.1,1.8,1.7c0.5,0.6,0.8,1.3,0.8,1.9
				c0,0.5,0,0.8-0.1,1c-0.8-1.1-1.7-2.1-2.8-2.9c-1.3-1-2.6-1.5-3.7-1.5c-1.1,0-1.9,0.8-2.2,2.4c-0.2,0.8-0.3,2-0.3,3.5
				c0,1.5,0,2.9,0.1,4.1s0.3,2.5,0.7,3.7c1.2,0,2.6-0.1,4.1-0.3C30.3-84,32.3-84.3,33.6-84.3z"/>
			<path d="M40.6-76.5c1.7,0,4.3-0.8,7.8-2.3c0.2,0,0.4,0.1,0.5,0.2c0.1,0.1,0.2,0.3,0.2,0.5c-0.8,1.3-2.3,2.4-4.5,3.1
				c-2.2,0.7-4.3,0.9-6.2,0.4c-2.2-0.6-3.5-1.8-4-3.7c0-0.4-0.1-0.9-0.1-1.5c0-0.6,0.2-1.5,0.5-2.5c0.3-1,0.9-2,1.7-2.9
				c0.8-0.9,1.7-1.6,2.8-2.2c1.1-0.5,2.2-0.8,3.4-0.8c1.1,0,2.4,0.4,3.8,1.2c0.7,0.4,1.2,0.8,1.6,1.3c0.4,0.5,0.6,0.9,0.6,1.4
				c0,0.1,0,0.3,0,0.4c0,1.2-0.6,1.9-1.7,2.3c-0.5,0.1-1.1,0.2-1.7,0.2L41-81.6c-1.4,0-2.5,0.3-3.2,0.9c-0.4,0.3-0.7,0.8-0.9,1.5
				C37.3-77.4,38.6-76.5,40.6-76.5z M45.8-85.6c-0.4-0.3-0.9-0.5-1.4-0.7c-0.5-0.1-0.9-0.2-1.2-0.2c-0.3,0-0.8,0.1-1.5,0.3
				c-0.7,0.2-1.3,0.4-1.9,0.7c-1.3,0.6-2,1.3-2,2c1.6,0.1,2.7,0.2,3.5,0.2c2.2,0,3.6-0.2,4.4-0.6c0.5-0.2,0.7-0.4,0.7-0.7
				C46.5-84.9,46.3-85.3,45.8-85.6z"/>
			<path d="M62.3-80.9c0-2.3-0.1-4-0.4-5.1c0.2-0.3-0.1-0.4-0.7-0.4c-0.7,0-1.5,0.2-2.6,0.5c-1.1,0.3-1.9,0.7-2.6,1
				c-1.6,0.8-2.5,1.5-2.6,2.2l0,8l-2,0c-0.3-0.7-0.4-2.5-0.4-5.6c0-2.7,0.1-4.7,0.2-6c0.1-1.3,0.2-2,0.2-2.2
				c0.5-0.3,0.9-0.5,1.2-0.5c0.5,0,0.7,0.6,0.7,1.7c0,0.4,0,0.9-0.1,1.3c0,0.4-0.1,0.7-0.1,0.9c3.2-2.3,5.6-3.5,7.4-3.5
				c2,0,3.1,1.6,3.4,4.8c0.1,1.1,0.2,2.7,0.2,4.6l0,2.3c0,0.9,0,1.7,0.1,2.5c-0.2,0.1-0.4,0.2-0.5,0.2c-0.1,0-0.2,0-0.4-0.1
				c-0.2,0-0.5-0.1-0.8-0.1c-0.2-0.8-0.3-1.6-0.3-2.4c0-0.8,0-1.6,0-2.2L62.3-80.9z"/>
			<path d="M73.3-82.5c-3.1,0-4.6-0.5-4.6-1.5c0-0.2,0-0.3,0.1-0.5c2.6-1.4,4.3-2.4,5.1-2.9c2.5-1.6,3.8-2.9,3.8-4
				c0-0.9-1-1.6-3.1-2.1c-0.8,0-1.9,0.1-3.2,0.3c-1.3,0.2-2.2,0.4-2.9,0.5c-0.7,0.1-1.3,0.2-2,0.2c-0.2,0-0.5-0.1-0.7-0.4
				c-0.3-0.3-0.4-0.6-0.5-0.9c2.5-0.8,4.8-1.2,7.1-1.2c1.6,0,3,0.2,4,0.6c2.1,0.7,3.2,1.8,3.2,3.3c0,1.3-1.1,2.8-3.3,4.4
				c-1.2,0.9-2.7,1.7-4.6,2.6l3.4,1l0,0.7C74.6-82.5,74-82.5,73.3-82.5z M73.2-74.4c-0.7,0-1.1-0.3-1.1-1c0-0.7,0.4-1,1.1-1
				c0.1,0,0.3-0.1,0.5-0.1c0.2,0,0.3,0.1,0.5,0.3c0.2,0.2,0.3,0.5,0.3,0.8c0,0.3-0.1,0.6-0.3,0.8c-0.2,0.2-0.3,0.3-0.5,0.3
				C73.5-74.4,73.3-74.4,73.2-74.4z"/>
		</g>
	</g>
	<g id="text_adjustable_1_">
		<g id="sprechblase_text_2_" transform="translate(232.485 181.187) rotate(-3)" class="st2">
			<text transform="matrix(1 0 0 1 -166.6309 -106.0303)" class="st6 st7 st8">      Ahoi!</text>
			<text transform="matrix(1 0 0 1 -166.6309 -70.0303)" class="st6 st7 st8">Kann ich helfen?</text>
		</g>
	</g>
</g>
<g id="text" class="st9">
	<g id="sprechblase_text_3_" transform="translate(232.485 181.187) rotate(-3)" class="st10">
		<text transform="matrix(1 0 0 1 -171.5326 -113.5982)" class="st5"><tspan x="0" y="0" class="st7 st8">Ahoi, ich bin FU.</tspan><tspan x="0" y="36" class="st7 st8">Kann ich helfen?</tspan></text>
	</g>
</g>
</svg>
