<svg xmlns="http://www.w3.org/2000/svg" viewBox="0 0 765 20"><defs><style>.a{fill:#d4004b;}</style></defs><circle class="a" cx="5" cy="5" r="5"/><circle class="a" cx="17.4" cy="5" r="5"/><circle class="a" cx="29.9" cy="5" r="4.9"/><circle class="a" cx="42.3" cy="5" r="4.8"/><circle class="a" cx="54.7" cy="5" r="4.8"/><circle class="a" cx="67.1" cy="5" r="4.8"/><circle class="a" cx="79.6" cy="5" r="4.7"/><circle class="a" cx="92" cy="5" r="4.7"/><circle class="a" cx="104.4" cy="5" r="4.6"/><circle class="a" cx="116.8" cy="5" r="4.6"/><circle class="a" cx="129.3" cy="5" r="4.5"/><circle class="a" cx="141.7" cy="5" r="4.5"/><circle class="a" cx="154.1" cy="5" r="4.4"/><circle class="a" cx="166.5" cy="5" r="4.4"/><circle class="a" cx="179" cy="5" r="4.3"/><circle class="a" cx="191.4" cy="5" r="4.3"/><circle class="a" cx="203.8" cy="5" r="4.2"/><circle class="a" cx="216.3" cy="5" r="4.2"/><circle class="a" cx="228.7" cy="5" r="4.1"/><circle class="a" cx="241.1" cy="5" r="4.1"/><circle class="a" cx="253.5" cy="5" r="4"/><circle class="a" cx="266" cy="5" r="4"/><circle class="a" cx="278.4" cy="5" r="3.9"/><circle class="a" cx="290.8" cy="5" r="3.9"/><circle class="a" cx="303.2" cy="5" r="3.8"/><circle class="a" cx="315.7" cy="5" r="3.8"/><circle class="a" cx="328.1" cy="5" r="3.7"/><circle class="a" cx="340.5" cy="5" r="3.7"/><circle class="a" cx="352.9" cy="5" r="3.6"/><circle class="a" cx="365.4" cy="5" r="3.6"/><circle class="a" cx="377.8" cy="5" r="3.5"/><circle class="a" cx="390.2" cy="5" r="3.5"/><circle class="a" cx="402.6" cy="5" r="3.4"/><circle class="a" cx="415.1" cy="5" r="3.4"/><circle class="a" cx="427.5" cy="5" r="3.3"/><circle class="a" cx="439.9" cy="5" r="3.3"/><circle class="a" cx="452.3" cy="5" r="3.2"/><circle class="a" cx="464.8" cy="5" r="3.2"/><circle class="a" cx="477.2" cy="5" r="3.1"/><circle class="a" cx="489.6" cy="5" r="3.1"/><circle class="a" cx="502" cy="5" r="3"/><circle class="a" cx="514.5" cy="5" r="3" transform="translate(365.2 497.4) rotate(-73.7)"/><circle class="a" cx="526.9" cy="5" r="2.9"/><circle class="a" cx="539.3" cy="5" r="2.9"/><circle class="a" cx="551.8" cy="5" r="2.8"/><circle class="a" cx="564.2" cy="5" r="2.8"/><circle class="a" cx="576.6" cy="5" r="2.7"/><circle class="a" cx="589" cy="5" r="2.7"/><circle class="a" cx="601.5" cy="5" r="2.6"/><circle class="a" cx="613.9" cy="5" r="2.6"/><circle class="a" cx="626.3" cy="5" r="2.5"/><circle class="a" cx="638.7" cy="5" r="2.5"/><circle class="a" cx="651.2" cy="5" r="2.4"/><circle class="a" cx="663.6" cy="5" r="2.4"/><circle class="a" cx="676" cy="5" r="2.3"/><circle class="a" cx="688.4" cy="5" r="2.3"/><circle class="a" cx="700.9" cy="5" r="2.3"/><circle class="a" cx="713.3" cy="5" r="2.2"/><circle class="a" cx="725.7" cy="5" r="2.2"/><circle class="a" cx="738.2" cy="5" r="2.1"/><circle class="a" cx="750.6" cy="5" r="2"/><circle class="a" cx="763" cy="5" r="2"/><circle class="a" cx="11" cy="15" r="5"/><circle class="a" cx="23.4" cy="15" r="5"/><circle class="a" cx="35.9" cy="15" r="4.9"/><circle class="a" cx="48.3" cy="15" r="4.8"/><circle class="a" cx="60.7" cy="15" r="4.8"/><circle class="a" cx="73.1" cy="15" r="4.8"/><circle class="a" cx="85.6" cy="15" r="4.7"/><circle class="a" cx="98" cy="15" r="4.7"/><circle class="a" cx="110.4" cy="15" r="4.6"/><circle class="a" cx="122.8" cy="15" r="4.6"/><circle class="a" cx="135.3" cy="15" r="4.5"/><circle class="a" cx="147.7" cy="15" r="4.5"/><circle class="a" cx="160.1" cy="15" r="4.4"/><circle class="a" cx="172.5" cy="15" r="4.4"/><circle class="a" cx="185" cy="15" r="4.3"/><circle class="a" cx="197.4" cy="15" r="4.3"/><circle class="a" cx="209.8" cy="15" r="4.2"/><circle class="a" cx="222.3" cy="15" r="4.2"/><circle class="a" cx="234.7" cy="15" r="4.1"/><circle class="a" cx="247.1" cy="15" r="4.1"/><circle class="a" cx="259.5" cy="15" r="4"/><circle class="a" cx="272" cy="15" r="4"/><circle class="a" cx="284.4" cy="15" r="3.9"/><circle class="a" cx="296.8" cy="15" r="3.9"/><circle class="a" cx="309.2" cy="15" r="3.8"/><circle class="a" cx="321.7" cy="15" r="3.8"/><circle class="a" cx="334.1" cy="15" r="3.7"/><circle class="a" cx="346.5" cy="15" r="3.7"/><circle class="a" cx="358.9" cy="15" r="3.6"/><circle class="a" cx="371.4" cy="15" r="3.6"/><circle class="a" cx="383.8" cy="15" r="3.5"/><circle class="a" cx="396.2" cy="15" r="3.5"/><circle class="a" cx="408.6" cy="15" r="3.4"/><circle class="a" cx="421.1" cy="15" r="3.4"/><circle class="a" cx="433.5" cy="15" r="3.3"/><circle class="a" cx="445.9" cy="15" r="3.3"/><circle class="a" cx="458.3" cy="15" r="3.2"/><circle class="a" cx="470.8" cy="15" r="3.2"/><circle class="a" cx="483.2" cy="15" r="3.1"/><circle class="a" cx="495.6" cy="15" r="3.1"/><circle class="a" cx="508" cy="15" r="3"/><circle class="a" cx="520.5" cy="15" r="3" transform="translate(359.9 510.3) rotate(-73.7)"/><circle class="a" cx="532.9" cy="15" r="2.9"/><circle class="a" cx="545.3" cy="15" r="2.9"/><circle class="a" cx="557.8" cy="15" r="2.8"/><circle class="a" cx="570.2" cy="15" r="2.8"/><circle class="a" cx="582.6" cy="15" r="2.7"/><circle class="a" cx="595" cy="15" r="2.7"/><circle class="a" cx="607.5" cy="15" r="2.6"/><circle class="a" cx="619.9" cy="15" r="2.6"/><circle class="a" cx="632.3" cy="15" r="2.5"/><circle class="a" cx="644.7" cy="15" r="2.5"/><circle class="a" cx="657.2" cy="15" r="2.4"/><circle class="a" cx="669.6" cy="15" r="2.4"/><circle class="a" cx="682" cy="15" r="2.3"/><circle class="a" cx="694.4" cy="15" r="2.3"/><circle class="a" cx="706.9" cy="15" r="2.3"/><circle class="a" cx="719.3" cy="15" r="2.2"/><circle class="a" cx="731.7" cy="15" r="2.2"/><circle class="a" cx="744.2" cy="15" r="2.1"/><circle class="a" cx="756.6" cy="15" r="2"/><path class="a" d="M0,10.3v9.4A5,5,0,0,0,3.5,15,5,5,0,0,0,0,10.3Z"/></svg>