<svg xmlns="http://www.w3.org/2000/svg" viewBox="0 0 573 20"><defs><style>.a{fill:#d4004b;}</style></defs><circle class="a" cx="5" cy="5" r="5"/><circle class="a" cx="18.8" cy="5" r="4.9"/><circle class="a" cx="32.6" cy="5" r="4.8"/><circle class="a" cx="46.4" cy="5" r="4.8"/><circle class="a" cx="60.2" cy="5" r="4.7"/><circle class="a" cx="74" cy="5" r="4.6"/><circle class="a" cx="87.8" cy="5" r="4.6"/><circle class="a" cx="101.6" cy="5" r="4.5"/><circle class="a" cx="115.4" cy="5" r="4.4"/><circle class="a" cx="129.2" cy="5" r="4.3"/><circle class="a" cx="143.1" cy="5" r="4.3"/><circle class="a" cx="156.9" cy="5" r="4.2"/><circle class="a" cx="170.7" cy="5" r="4.1"/><circle class="a" cx="184.5" cy="5" r="4.1"/><circle class="a" cx="198.3" cy="5" r="4"/><circle class="a" cx="212.1" cy="5" r="3.9"/><circle class="a" cx="225.9" cy="5" r="3.8"/><circle class="a" cx="239.7" cy="5" r="3.8"/><circle class="a" cx="253.5" cy="5" r="3.7"/><circle class="a" cx="267.3" cy="5" r="3.6"/><circle class="a" cx="281.1" cy="5" r="3.5"/><circle class="a" cx="294.9" cy="5" r="3.5"/><circle class="a" cx="308.7" cy="5" r="3.4"/><circle class="a" cx="322.5" cy="5" r="3.3"/><circle class="a" cx="336.3" cy="5" r="3.2"/><circle class="a" cx="350.1" cy="5" r="3.2"/><circle class="a" cx="363.9" cy="5" r="3.1"/><circle class="a" cx="377.7" cy="5" r="3"/><circle class="a" cx="391.5" cy="5" r="3"/><circle class="a" cx="405.3" cy="5" r="2.9"/><circle class="a" cx="419.1" cy="5" r="2.8"/><circle class="a" cx="433" cy="5" r="2.7"/><circle class="a" cx="446.8" cy="5" r="2.7"/><circle class="a" cx="460.6" cy="5" r="2.6"/><circle class="a" cx="474.4" cy="5" r="2.5"/><circle class="a" cx="488.2" cy="5" r="2.4"/><circle class="a" cx="502" cy="5" r="2.4"/><circle class="a" cx="515.8" cy="5" r="2.3"/><circle class="a" cx="529.6" cy="5" r="2.2"/><circle class="a" cx="543.4" cy="5" r="2.2"/><circle class="a" cx="557.2" cy="5" r="2.1"/><circle class="a" cx="571" cy="5" r="2"/><circle class="a" cx="12" cy="15" r="5"/><circle class="a" cx="25.8" cy="15" r="4.9"/><circle class="a" cx="39.6" cy="15" r="4.8"/><circle class="a" cx="53.4" cy="15" r="4.8"/><circle class="a" cx="67.2" cy="15" r="4.7"/><circle class="a" cx="81" cy="15" r="4.6"/><circle class="a" cx="94.8" cy="15" r="4.6"/><circle class="a" cx="108.6" cy="15" r="4.5"/><circle class="a" cx="122.4" cy="15" r="4.4"/><circle class="a" cx="136.2" cy="15" r="4.3"/><circle class="a" cx="150.1" cy="15" r="4.3"/><circle class="a" cx="163.9" cy="15" r="4.2"/><circle class="a" cx="177.7" cy="15" r="4.1"/><circle class="a" cx="191.5" cy="15" r="4.1"/><circle class="a" cx="205.3" cy="15" r="4"/><circle class="a" cx="219.1" cy="15" r="3.9"/><circle class="a" cx="232.9" cy="15" r="3.8"/><circle class="a" cx="246.7" cy="15" r="3.8"/><circle class="a" cx="260.5" cy="15" r="3.7"/><circle class="a" cx="274.3" cy="15" r="3.6"/><circle class="a" cx="288.1" cy="15" r="3.5"/><circle class="a" cx="301.9" cy="15" r="3.5"/><circle class="a" cx="315.7" cy="15" r="3.4"/><circle class="a" cx="329.5" cy="15" r="3.3"/><circle class="a" cx="343.3" cy="15" r="3.2"/><circle class="a" cx="357.1" cy="15" r="3.2"/><circle class="a" cx="370.9" cy="15" r="3.1"/><circle class="a" cx="384.7" cy="15" r="3"/><circle class="a" cx="398.5" cy="15" r="3"/><circle class="a" cx="412.3" cy="15" r="2.9"/><circle class="a" cx="426.1" cy="15" r="2.8"/><circle class="a" cx="440" cy="15" r="2.7"/><circle class="a" cx="453.8" cy="15" r="2.7"/><circle class="a" cx="467.6" cy="15" r="2.6"/><circle class="a" cx="481.4" cy="15" r="2.5"/><circle class="a" cx="495.2" cy="15" r="2.4"/><circle class="a" cx="509" cy="15" r="2.4"/><circle class="a" cx="522.8" cy="15" r="2.3"/><circle class="a" cx="536.6" cy="15" r="2.2"/><circle class="a" cx="550.4" cy="15" r="2.2"/><circle class="a" cx="564.2" cy="15" r="2.1"/><path class="a" d="M0,10.4v9.2A5.1,5.1,0,0,0,3,15,5.1,5.1,0,0,0,0,10.4Z"/></svg>