<svg xmlns="http://www.w3.org/2000/svg" viewBox="0 0 1197 20"><defs><style>.a{fill:#d4004b;}</style></defs><circle class="a" cx="5" cy="5" r="5"/><circle class="a" cx="16.8" cy="5" r="5"/><circle class="a" cx="28.6" cy="5" r="4.9"/><circle class="a" cx="40.3" cy="5" r="4.9"/><circle class="a" cx="52.1" cy="5" r="4.9"/><circle class="a" cx="63.9" cy="5" r="4.9"/><circle class="a" cx="75.7" cy="5" r="4.8"/><circle class="a" cx="87.5" cy="5" r="4.8"/><circle class="a" cx="99.3" cy="5" r="4.8"/><circle class="a" cx="111" cy="5" r="4.7"/><circle class="a" cx="122.8" cy="5" r="4.7"/><circle class="a" cx="134.6" cy="5" r="4.7"/><circle class="a" cx="146.4" cy="5" r="4.6"/><circle class="a" cx="158.2" cy="5" r="4.6"/><circle class="a" cx="169.9" cy="5" r="4.6"/><circle class="a" cx="181.7" cy="5" r="4.6"/><circle class="a" cx="193.5" cy="5" r="4.5"/><circle class="a" cx="205.3" cy="5" r="4.5"/><circle class="a" cx="217.1" cy="5" r="4.5"/><circle class="a" cx="228.9" cy="5" r="4.4"/><circle class="a" cx="240.6" cy="5" r="4.4"/><circle class="a" cx="252.4" cy="5" r="4.4"/><circle class="a" cx="264.2" cy="5" r="4.4"/><circle class="a" cx="276" cy="5" r="4.3"/><circle class="a" cx="287.8" cy="5" r="4.3"/><circle class="a" cx="299.5" cy="5" r="4.3"/><circle class="a" cx="311.3" cy="5" r="4.2"/><circle class="a" cx="323.1" cy="5" r="4.2"/><circle class="a" cx="334.9" cy="5" r="4.2"/><circle class="a" cx="346.7" cy="5" r="4.1"/><circle class="a" cx="358.5" cy="5" r="4.1"/><circle class="a" cx="370.3" cy="5" r="4.1"/><circle class="a" cx="382" cy="5" r="4"/><circle class="a" cx="393.8" cy="5" r="4"/><circle class="a" cx="405.6" cy="5" r="4"/><circle class="a" cx="417.4" cy="5" r="4"/><circle class="a" cx="429.2" cy="5" r="3.9"/><circle class="a" cx="440.9" cy="5" r="3.9"/><circle class="a" cx="452.7" cy="5" r="3.9"/><circle class="a" cx="464.5" cy="5" r="3.8"/><circle class="a" cx="476.3" cy="5" r="3.8"/><circle class="a" cx="488.1" cy="5" r="3.8"/><circle class="a" cx="499.9" cy="5" r="3.7"/><circle class="a" cx="511.6" cy="5" r="3.7" transform="translate(421.3 508.6) rotate(-80.4)"/><circle class="a" cx="523.4" cy="5" r="3.7"/><circle class="a" cx="535.2" cy="5" r="3.7"/><circle class="a" cx="547" cy="5" r="3.6"/><circle class="a" cx="558.8" cy="5" r="3.6"/><circle class="a" cx="570.5" cy="5" r="3.6"/><circle class="a" cx="582.3" cy="5" r="3.5"/><circle class="a" cx="594.1" cy="5" r="3.5"/><circle class="a" cx="605.9" cy="5" r="3.5"/><circle class="a" cx="617.7" cy="5" r="3.5"/><circle class="a" cx="629.5" cy="5" r="3.4"/><circle class="a" cx="641.2" cy="5" r="3.4"/><circle class="a" cx="653" cy="5" r="3.4"/><circle class="a" cx="664.8" cy="5" r="3.3"/><circle class="a" cx="676.6" cy="5" r="3.3"/><circle class="a" cx="688.4" cy="5" r="3.3"/><circle class="a" cx="700.2" cy="5" r="3.2"/><circle class="a" cx="711.9" cy="5" r="3.2"/><circle class="a" cx="723.7" cy="5" r="3.2"/><circle class="a" cx="735.5" cy="5" r="3.2"/><circle class="a" cx="747.3" cy="5" r="3.1"/><circle class="a" cx="759.1" cy="5" r="3.1"/><circle class="a" cx="770.8" cy="5" r="3.1"/><circle class="a" cx="782.6" cy="5" r="3"/><circle class="a" cx="794.4" cy="5" r="3"/><circle class="a" cx="806.2" cy="5" r="3"/><circle class="a" cx="818" cy="5" r="3"/><circle class="a" cx="829.8" cy="5" r="2.9"/><circle class="a" cx="841.5" cy="5" r="2.9"/><circle class="a" cx="853.3" cy="5" r="2.9"/><circle class="a" cx="865.1" cy="5" r="2.8"/><circle class="a" cx="876.9" cy="5" r="2.8"/><circle class="a" cx="888.7" cy="5" r="2.8"/><circle class="a" cx="900.5" cy="5" r="2.7"/><circle class="a" cx="912.2" cy="5" r="2.7"/><circle class="a" cx="924" cy="5" r="2.7"/><circle class="a" cx="935.8" cy="5" r="2.7"/><circle class="a" cx="947.6" cy="5" r="2.6"/><circle class="a" cx="959.4" cy="5" r="2.6"/><circle class="a" cx="971.1" cy="5" r="2.6"/><circle class="a" cx="982.9" cy="5" r="2.5"/><circle class="a" cx="994.7" cy="5" r="2.5"/><circle class="a" cx="1006.5" cy="5" r="2.5"/><circle class="a" cx="1018.3" cy="5" r="2.5"/><circle class="a" cx="1030.1" cy="5" r="2.4"/><circle class="a" cx="1041.8" cy="5" r="2.4"/><circle class="a" cx="1053.6" cy="5" r="2.4"/><circle class="a" cx="1065.4" cy="5" r="2.3"/><circle class="a" cx="1077.2" cy="5" r="2.3"/><circle class="a" cx="1089" cy="5" r="2.3"/><circle class="a" cx="1100.7" cy="5" r="2.2"/><circle class="a" cx="1112.5" cy="5" r="2.2"/><circle class="a" cx="1124.3" cy="5" r="2.2"/><circle class="a" cx="1136.1" cy="5" r="2.2"/><circle class="a" cx="1147.9" cy="5" r="2.1"/><circle class="a" cx="1159.7" cy="5" r="2.1"/><circle class="a" cx="1171.4" cy="5" r="2.1"/><circle class="a" cx="1183.2" cy="5" r="2"/><circle class="a" cx="1195" cy="5" r="2"/><circle class="a" cx="11" cy="15" r="5"/><circle class="a" cx="22.8" cy="15" r="5"/><circle class="a" cx="34.6" cy="15" r="4.9"/><circle class="a" cx="46.3" cy="15" r="4.9"/><circle class="a" cx="58.1" cy="15" r="4.9"/><circle class="a" cx="69.9" cy="15" r="4.9"/><circle class="a" cx="81.7" cy="15" r="4.8"/><circle class="a" cx="93.5" cy="15" r="4.8"/><circle class="a" cx="105.3" cy="15" r="4.8"/><circle class="a" cx="117" cy="15" r="4.7"/><circle class="a" cx="128.8" cy="15" r="4.7"/><circle class="a" cx="140.6" cy="15" r="4.7"/><circle class="a" cx="152.4" cy="15" r="4.6"/><circle class="a" cx="164.2" cy="15" r="4.6"/><circle class="a" cx="175.9" cy="15" r="4.6"/><circle class="a" cx="187.7" cy="15" r="4.6"/><circle class="a" cx="199.5" cy="15" r="4.5"/><circle class="a" cx="211.3" cy="15" r="4.5"/><circle class="a" cx="223.1" cy="15" r="4.5"/><circle class="a" cx="234.9" cy="15" r="4.4"/><circle class="a" cx="246.6" cy="15" r="4.4"/><circle class="a" cx="258.4" cy="15" r="4.4"/><circle class="a" cx="270.2" cy="15" r="4.4"/><circle class="a" cx="282" cy="15" r="4.3"/><circle class="a" cx="293.8" cy="15" r="4.3"/><circle class="a" cx="305.5" cy="15" r="4.3"/><circle class="a" cx="317.3" cy="15" r="4.2"/><circle class="a" cx="329.1" cy="15" r="4.2"/><circle class="a" cx="340.9" cy="15" r="4.2"/><circle class="a" cx="352.7" cy="15" r="4.1"/><circle class="a" cx="364.5" cy="15" r="4.1"/><circle class="a" cx="376.3" cy="15" r="4.1"/><circle class="a" cx="388" cy="15" r="4"/><circle class="a" cx="399.8" cy="15" r="4"/><circle class="a" cx="411.6" cy="15" r="4"/><circle class="a" cx="423.4" cy="15" r="4"/><circle class="a" cx="435.2" cy="15" r="3.9"/><circle class="a" cx="446.9" cy="15" r="3.9"/><circle class="a" cx="458.7" cy="15" r="3.9"/><circle class="a" cx="470.5" cy="15" r="3.8"/><circle class="a" cx="482.3" cy="15" r="3.8"/><circle class="a" cx="494.1" cy="15" r="3.8"/><circle class="a" cx="505.9" cy="15" r="3.7"/><circle class="a" cx="517.6" cy="15" r="3.7" transform="translate(416.4 522.9) rotate(-80.4)"/><circle class="a" cx="529.4" cy="15" r="3.7"/><circle class="a" cx="541.2" cy="15" r="3.7"/><circle class="a" cx="553" cy="15" r="3.6"/><circle class="a" cx="564.8" cy="15" r="3.6"/><circle class="a" cx="576.5" cy="15" r="3.6"/><circle class="a" cx="588.3" cy="15" r="3.5"/><circle class="a" cx="600.1" cy="15" r="3.5"/><circle class="a" cx="611.9" cy="15" r="3.5"/><circle class="a" cx="623.7" cy="15" r="3.5"/><circle class="a" cx="635.5" cy="15" r="3.4"/><circle class="a" cx="647.2" cy="15" r="3.4"/><circle class="a" cx="659" cy="15" r="3.4"/><circle class="a" cx="670.8" cy="15" r="3.3"/><circle class="a" cx="682.6" cy="15" r="3.3"/><circle class="a" cx="694.4" cy="15" r="3.3"/><circle class="a" cx="706.2" cy="15" r="3.2"/><circle class="a" cx="717.9" cy="15" r="3.2"/><circle class="a" cx="729.7" cy="15" r="3.2"/><circle class="a" cx="741.5" cy="15" r="3.2"/><circle class="a" cx="753.3" cy="15" r="3.1"/><circle class="a" cx="765.1" cy="15" r="3.1"/><circle class="a" cx="776.8" cy="15" r="3.1"/><circle class="a" cx="788.6" cy="15" r="3"/><circle class="a" cx="800.4" cy="15" r="3"/><circle class="a" cx="812.2" cy="15" r="3"/><circle class="a" cx="824" cy="15" r="3"/><circle class="a" cx="835.8" cy="15" r="2.9"/><circle class="a" cx="847.5" cy="15" r="2.9"/><circle class="a" cx="859.3" cy="15" r="2.9"/><circle class="a" cx="871.1" cy="15" r="2.8"/><circle class="a" cx="882.9" cy="15" r="2.8"/><circle class="a" cx="894.7" cy="15" r="2.8"/><circle class="a" cx="906.5" cy="15" r="2.7"/><circle class="a" cx="918.2" cy="15" r="2.7"/><circle class="a" cx="930" cy="15" r="2.7"/><circle class="a" cx="941.8" cy="15" r="2.7"/><circle class="a" cx="953.6" cy="15" r="2.6"/><circle class="a" cx="965.4" cy="15" r="2.6"/><circle class="a" cx="977.1" cy="15" r="2.6"/><circle class="a" cx="988.9" cy="15" r="2.5"/><circle class="a" cx="1000.7" cy="15" r="2.5"/><circle class="a" cx="1012.5" cy="15" r="2.5"/><circle class="a" cx="1024.3" cy="15" r="2.5"/><circle class="a" cx="1036.1" cy="15" r="2.4"/><circle class="a" cx="1047.8" cy="15" r="2.4"/><circle class="a" cx="1059.6" cy="15" r="2.4"/><circle class="a" cx="1071.4" cy="15" r="2.3"/><circle class="a" cx="1083.2" cy="15" r="2.3"/><circle class="a" cx="1095" cy="15" r="2.3"/><circle class="a" cx="1106.7" cy="15" r="2.2"/><circle class="a" cx="1118.5" cy="15" r="2.2"/><circle class="a" cx="1130.3" cy="15" r="2.2"/><circle class="a" cx="1142.1" cy="15" r="2.2"/><circle class="a" cx="1153.9" cy="15" r="2.1"/><circle class="a" cx="1165.7" cy="15" r="2.1"/><circle class="a" cx="1177.4" cy="15" r="2.1"/><circle class="a" cx="1189.2" cy="15" r="2"/><path class="a" d="M0,10.1v9.8A5,5,0,0,0,4,15,5,5,0,0,0,0,10.1Z"/></svg>