<svg xmlns="http://www.w3.org/2000/svg" viewBox="0 0 989 20"><defs><style>.a{fill:#d4004b;}</style></defs><circle class="a" cx="5" cy="5" r="5"/><circle class="a" cx="17.1" cy="5" r="5"/><circle class="a" cx="29.3" cy="5" r="4.9"/><circle class="a" cx="41.4" cy="5" r="4.9"/><circle class="a" cx="53.5" cy="5" r="4.8"/><circle class="a" cx="65.6" cy="5" r="4.8"/><circle class="a" cx="77.7" cy="5" r="4.8"/><circle class="a" cx="89.9" cy="5" r="4.7"/><circle class="a" cx="102" cy="5" r="4.7"/><circle class="a" cx="114.1" cy="5" r="4.7"/><circle class="a" cx="126.2" cy="5" r="4.6"/><circle class="a" cx="138.4" cy="5" r="4.6"/><circle class="a" cx="150.5" cy="5" r="4.6"/><circle class="a" cx="162.6" cy="5" r="4.5"/><circle class="a" cx="174.7" cy="5" r="4.5"/><circle class="a" cx="186.9" cy="5" r="4.4"/><circle class="a" cx="199" cy="5" r="4.4"/><circle class="a" cx="211.1" cy="5" r="4.4"/><circle class="a" cx="223.2" cy="5" r="4.3"/><circle class="a" cx="235.4" cy="5" r="4.3"/><circle class="a" cx="247.5" cy="5" r="4.3"/><circle class="a" cx="259.6" cy="5" r="4.2"/><circle class="a" cx="271.7" cy="5" r="4.2"/><circle class="a" cx="283.8" cy="5" r="4.1"/><circle class="a" cx="296" cy="5" r="4.1"/><circle class="a" cx="308.1" cy="5" r="4.1"/><circle class="a" cx="320.2" cy="5" r="4"/><circle class="a" cx="332.3" cy="5" r="4"/><circle class="a" cx="344.5" cy="5" r="4"/><circle class="a" cx="356.6" cy="5" r="3.9"/><circle class="a" cx="368.7" cy="5" r="3.9"/><circle class="a" cx="380.8" cy="5" r="3.9"/><circle class="a" cx="393" cy="5" r="3.8"/><circle class="a" cx="405.1" cy="5" r="3.8"/><circle class="a" cx="417.2" cy="5" r="3.7"/><circle class="a" cx="429.3" cy="5" r="3.7"/><circle class="a" cx="441.4" cy="5" r="3.7"/><circle class="a" cx="453.6" cy="5" r="3.6"/><circle class="a" cx="465.7" cy="5" r="3.6"/><circle class="a" cx="477.8" cy="5" r="3.6"/><circle class="a" cx="489.9" cy="5" r="3.5"/><circle class="a" cx="502.1" cy="5" r="3.5"/><circle class="a" cx="514.2" cy="5" r="3.4"/><circle class="a" cx="526.3" cy="5" r="3.4"/><circle class="a" cx="538.4" cy="5" r="3.4"/><circle class="a" cx="550.6" cy="5" r="3.3"/><circle class="a" cx="562.7" cy="5" r="3.3"/><circle class="a" cx="574.8" cy="5" r="3.3"/><circle class="a" cx="586.9" cy="5" r="3.2"/><circle class="a" cx="599" cy="5" r="3.2"/><circle class="a" cx="611.2" cy="5" r="3.2"/><circle class="a" cx="623.3" cy="5" r="3.1"/><circle class="a" cx="635.4" cy="5" r="3.1"/><circle class="a" cx="647.5" cy="5" r="3"/><circle class="a" cx="659.7" cy="5" r="3"/><circle class="a" cx="671.8" cy="5" r="3"/><circle class="a" cx="683.9" cy="5" r="2.9"/><circle class="a" cx="696" cy="5" r="2.9"/><circle class="a" cx="708.2" cy="5" r="2.8"/><circle class="a" cx="720.3" cy="5" r="2.8"/><circle class="a" cx="732.4" cy="5" r="2.8"/><circle class="a" cx="744.5" cy="5" r="2.7"/><circle class="a" cx="756.7" cy="5" r="2.7"/><circle class="a" cx="768.8" cy="5" r="2.7"/><circle class="a" cx="780.9" cy="5" r="2.6"/><circle class="a" cx="793" cy="5" r="2.6"/><circle class="a" cx="805.2" cy="5" r="2.6"/><circle class="a" cx="817.3" cy="5" r="2.5"/><circle class="a" cx="829.4" cy="5" r="2.5"/><circle class="a" cx="841.5" cy="5" r="2.4"/><circle class="a" cx="853.6" cy="5" r="2.4"/><circle class="a" cx="865.8" cy="5" r="2.4"/><circle class="a" cx="877.9" cy="5" r="2.3"/><circle class="a" cx="890" cy="5" r="2.3"/><circle class="a" cx="902.1" cy="5" r="2.3"/><circle class="a" cx="914.3" cy="5" r="2.2"/><circle class="a" cx="926.4" cy="5" r="2.2"/><circle class="a" cx="938.5" cy="5" r="2.2"/><circle class="a" cx="950.6" cy="5" r="2.1"/><circle class="a" cx="962.8" cy="5" r="2.1"/><circle class="a" cx="974.9" cy="5" r="2"/><circle class="a" cx="987" cy="5" r="2"/><circle class="a" cx="11" cy="15" r="5"/><circle class="a" cx="23.1" cy="15" r="5"/><circle class="a" cx="35.3" cy="15" r="4.9"/><circle class="a" cx="47.4" cy="15" r="4.9"/><circle class="a" cx="59.5" cy="15" r="4.8"/><circle class="a" cx="71.6" cy="15" r="4.8"/><circle class="a" cx="83.7" cy="15" r="4.8"/><circle class="a" cx="95.9" cy="15" r="4.7"/><circle class="a" cx="108" cy="15" r="4.7"/><circle class="a" cx="120.1" cy="15" r="4.7"/><circle class="a" cx="132.2" cy="15" r="4.6"/><circle class="a" cx="144.4" cy="15" r="4.6"/><circle class="a" cx="156.5" cy="15" r="4.6"/><circle class="a" cx="168.6" cy="15" r="4.5"/><circle class="a" cx="180.7" cy="15" r="4.5"/><circle class="a" cx="192.9" cy="15" r="4.4"/><circle class="a" cx="205" cy="15" r="4.4"/><circle class="a" cx="217.1" cy="15" r="4.4"/><circle class="a" cx="229.2" cy="15" r="4.3"/><circle class="a" cx="241.4" cy="15" r="4.3"/><circle class="a" cx="253.5" cy="15" r="4.3"/><circle class="a" cx="265.6" cy="15" r="4.2"/><circle class="a" cx="277.7" cy="15" r="4.2"/><circle class="a" cx="289.8" cy="15" r="4.1"/><circle class="a" cx="302" cy="15" r="4.1"/><circle class="a" cx="314.1" cy="15" r="4.1"/><circle class="a" cx="326.2" cy="15" r="4"/><circle class="a" cx="338.3" cy="15" r="4"/><circle class="a" cx="350.5" cy="15" r="4"/><circle class="a" cx="362.6" cy="15" r="3.9"/><circle class="a" cx="374.7" cy="15" r="3.9"/><circle class="a" cx="386.8" cy="15" r="3.9"/><circle class="a" cx="399" cy="15" r="3.8"/><circle class="a" cx="411.1" cy="15" r="3.8"/><circle class="a" cx="423.2" cy="15" r="3.7"/><circle class="a" cx="435.3" cy="15" r="3.7"/><circle class="a" cx="447.4" cy="15" r="3.7"/><circle class="a" cx="459.6" cy="15" r="3.6"/><circle class="a" cx="471.7" cy="15" r="3.6"/><circle class="a" cx="483.8" cy="15" r="3.6"/><circle class="a" cx="495.9" cy="15" r="3.5"/><circle class="a" cx="508.1" cy="15" r="3.5"/><circle class="a" cx="520.2" cy="15" r="3.4"/><circle class="a" cx="532.3" cy="15" r="3.4"/><circle class="a" cx="544.4" cy="15" r="3.4"/><circle class="a" cx="556.6" cy="15" r="3.3"/><circle class="a" cx="568.7" cy="15" r="3.3"/><circle class="a" cx="580.8" cy="15" r="3.3"/><circle class="a" cx="592.9" cy="15" r="3.2"/><circle class="a" cx="605" cy="15" r="3.2"/><circle class="a" cx="617.2" cy="15" r="3.2"/><circle class="a" cx="629.3" cy="15" r="3.1"/><circle class="a" cx="641.4" cy="15" r="3.1"/><circle class="a" cx="653.5" cy="15" r="3"/><circle class="a" cx="665.7" cy="15" r="3"/><circle class="a" cx="677.8" cy="15" r="3"/><circle class="a" cx="689.9" cy="15" r="2.9"/><circle class="a" cx="702" cy="15" r="2.9"/><circle class="a" cx="714.2" cy="15" r="2.8"/><circle class="a" cx="726.3" cy="15" r="2.8"/><circle class="a" cx="738.4" cy="15" r="2.8"/><circle class="a" cx="750.5" cy="15" r="2.7"/><circle class="a" cx="762.7" cy="15" r="2.7"/><circle class="a" cx="774.8" cy="15" r="2.7"/><circle class="a" cx="786.9" cy="15" r="2.6"/><circle class="a" cx="799" cy="15" r="2.6"/><circle class="a" cx="811.2" cy="15" r="2.6"/><circle class="a" cx="823.3" cy="15" r="2.5"/><circle class="a" cx="835.4" cy="15" r="2.5"/><circle class="a" cx="847.5" cy="15" r="2.4"/><circle class="a" cx="859.6" cy="15" r="2.4"/><circle class="a" cx="871.8" cy="15" r="2.4"/><circle class="a" cx="883.9" cy="15" r="2.3"/><circle class="a" cx="896" cy="15" r="2.3"/><circle class="a" cx="908.1" cy="15" r="2.3"/><circle class="a" cx="920.3" cy="15" r="2.2"/><circle class="a" cx="932.4" cy="15" r="2.2"/><circle class="a" cx="944.5" cy="15" r="2.2"/><circle class="a" cx="956.6" cy="15" r="2.1"/><circle class="a" cx="968.8" cy="15" r="2.1"/><circle class="a" cx="980.9" cy="15" r="2"/><path class="a" d="M0,10.1v9.8A5,5,0,0,0,4,15,5,5,0,0,0,0,10.1Z"/></svg>