<svg id="Ebene_1" data-name="Ebene 1" xmlns="http://www.w3.org/2000/svg" viewBox="0 0 519.16 127.21" width="5191.6" height="1272.1"><defs><style>.cls-1{fill:#6f6f6f;}.cls-2{fill:#00395b;}</style></defs><title>logo_eufb</title><path class="cls-1" d="M156.06,81.08V47h16.59v4.21h-10.3v10.3h9.16v4.16h-9.16V76.87h10.3v4.21Z" transform="translate(-14.61 -16.39)"/><path class="cls-1" d="M187.4,81.63c-7,0-10.65-2.78-10.65-9.07V54.39h6V72.76c0,3.12,1.54,4.81,4.71,4.81a9.25,9.25,0,0,0,3.91-.75V54.39h6V79.6A24.69,24.69,0,0,1,187.4,81.63Z" transform="translate(-14.61 -16.39)"/><path class="cls-1" d="M215.05,58.35a7,7,0,0,0-2.73-.55,6.82,6.82,0,0,0-2.87.55V81.08h-6V55.77a23.29,23.29,0,0,1,10-1.88c1.09,0,2.38.1,2.88.15Z" transform="translate(-14.61 -16.39)"/><path class="cls-1" d="M229,81.63c-7.58,0-11.29-5.85-11.29-13.92S221.46,53.84,229,53.84s11.29,5.85,11.29,13.87S236.62,81.63,229,81.63Zm0-24c-3.91,0-5.25,4.4-5.25,10s1.34,10,5.25,10,5.25-4.41,5.25-10S233,57.61,229,57.61Z" transform="translate(-14.61 -16.39)"/><path class="cls-1" d="M255.24,81.48a13.63,13.63,0,0,1-4-.6V91.73h-6v-36a21.22,21.22,0,0,1,9.21-1.93c8,0,12.53,5,12.53,13.57C267,76.18,262.23,81.48,255.24,81.48Zm-.89-24a7.72,7.72,0,0,0-3.12.54V77.32a7.92,7.92,0,0,0,2.68.44c4.75,0,7.08-3.66,7.08-10.2C261,61.27,259.21,57.51,254.35,57.51Z" transform="translate(-14.61 -16.39)"/><path class="cls-1" d="M281.42,81.63c-7,0-10.89-2.83-10.89-8.27,0-6.54,6.48-8.87,14.9-9.66V62.26c0-3.12-1.73-4.51-5.1-4.51a16.66,16.66,0,0,0-6.93,1.69l-1.34-3.57a22.76,22.76,0,0,1,9-2c6.14,0,10,2.77,10,9.21V79.7A22.18,22.18,0,0,1,281.42,81.63Zm4-15c-5.94.64-9.21,2.43-9.21,6.54,0,3.27,1.93,5,5.6,5a8.39,8.39,0,0,0,3.61-.74Z" transform="translate(-14.61 -16.39)"/><path class="cls-1" d="M296.5,67V62.46h12.08V67Z" transform="translate(-14.61 -16.39)"/><path class="cls-1" d="M325.89,81.63c-6.79,0-11.35-4.31-11.35-10.45V47h6.29V71.23a5.28,5.28,0,1,0,10.55,0V47h5.85V71.18C337.23,77.32,332.67,81.63,325.89,81.63Z" transform="translate(-14.61 -16.39)"/><path class="cls-1" d="M358.55,81.08V62.81c0-3.47-1.39-5.16-5.1-5.16a9.63,9.63,0,0,0-3.92.7V81.08h-6V55.82a25.66,25.66,0,0,1,10-1.93c7.77,0,11.14,3.27,11.14,9V81.08Z" transform="translate(-14.61 -16.39)"/><path class="cls-1" d="M373.53,49.83a3.22,3.22,0,0,1-3.37-3,3.38,3.38,0,0,1,6.74,0A3.22,3.22,0,0,1,373.53,49.83Zm-3,31.25V54.39h6V81.08Z" transform="translate(-14.61 -16.39)"/><path class="cls-1" d="M394.85,81.08h-5.64l-8.82-26.69h6.49l4.65,17.33a22.35,22.35,0,0,1,.65,3.81h.1a20.11,20.11,0,0,1,.69-3.81l4.95-17.33h5.75Z" transform="translate(-14.61 -16.39)"/><path class="cls-1" d="M411.29,69.94c.45,4.65,3.07,7.43,7.48,7.43a15.07,15.07,0,0,0,6.59-1.54l1.44,3.87a20.38,20.38,0,0,1-8.87,1.93c-8.07,0-12.53-5.6-12.53-14s4.26-13.82,11.49-13.82c6.93,0,10.85,4.56,10.85,12.88v.79Zm5.4-12.48c-3.81,0-5.74,3.61-5.74,8.86v.55l11-1.74C421.89,60.28,420.31,57.46,416.69,57.46Z" transform="translate(-14.61 -16.39)"/><path class="cls-1" d="M444.11,58.35a7,7,0,0,0-2.72-.55,6.82,6.82,0,0,0-2.87.55V81.08h-6V55.77a23.34,23.34,0,0,1,10-1.88c1.09,0,2.38.1,2.87.15Z" transform="translate(-14.61 -16.39)"/><path class="cls-1" d="M454.81,81.63a16,16,0,0,1-7.73-1.93l1.68-3.77a10.4,10.4,0,0,0,5.35,1.54c2.68,0,4.36-1.64,4.36-3.77,0-5.55-10.75-3.46-10.75-12.08,0-4.56,3.77-7.78,8.77-7.78a13.55,13.55,0,0,1,7.43,1.93l-1.54,3.42a9.4,9.4,0,0,0-4.75-1.49c-2.63,0-4,1.54-4,3.52,0,5.25,11,3.32,11,12.09C464.66,77.91,460.8,81.63,454.81,81.63Z" transform="translate(-14.61 -16.39)"/><path class="cls-1" d="M472.2,49.83a3.22,3.22,0,0,1-3.37-3,3.38,3.38,0,0,1,6.74,0A3.22,3.22,0,0,1,472.2,49.83Zm-3,31.25V54.39h6V81.08Z" transform="translate(-14.61 -16.39)"/><path class="cls-1" d="M489.49,81.43c-4.46,0-7.13-2.68-7.13-7.38V58.2h-3V54.39h3v-5.9l6-1.68v7.58h4.36V58.2H488.4V74.05c0,2,1,3.22,2.87,3.22a4.65,4.65,0,0,0,1.49-.25v3.81A7.49,7.49,0,0,1,489.49,81.43Z" transform="translate(-14.61 -16.39)"/><path class="cls-1" d="M507,81.63c-7,0-10.9-2.83-10.9-8.27,0-6.54,6.49-8.87,14.91-9.66V62.26c0-3.12-1.74-4.51-5.1-4.51A16.67,16.67,0,0,0,499,59.44l-1.34-3.57a22.76,22.76,0,0,1,9-2c6.14,0,10,2.77,10,9.21V79.7A22.14,22.14,0,0,1,507,81.63Zm-3.92-30.51a2.68,2.68,0,1,1,2.68-2.68A2.67,2.67,0,0,1,503.07,51.12ZM511,66.62c-5.95.64-9.22,2.43-9.22,6.54,0,3.27,1.94,5,5.6,5a8.47,8.47,0,0,0,3.62-.74Zm.59-15.5a2.68,2.68,0,1,1,2.68-2.68A2.67,2.67,0,0,1,511.59,51.12Z" transform="translate(-14.61 -16.39)"/><path class="cls-1" d="M530.51,81.43c-4.46,0-7.13-2.68-7.13-7.38V58.2h-3V54.39h3v-5.9l6-1.68v7.58h4.36V58.2h-4.36V74.05c0,2,1,3.22,2.87,3.22a4.65,4.65,0,0,0,1.49-.25v3.81A7.52,7.52,0,0,1,530.51,81.43Z" transform="translate(-14.61 -16.39)"/><path class="cls-1" d="M162.35,102.59v10.3h9.11v4.16h-9.11v15.4h-6.29V98.37H172.6v4.22Z" transform="translate(-14.61 -16.39)"/><path class="cls-1" d="M176.94,132.45V93.57h6v38.88Z" transform="translate(-14.61 -16.39)"/><path class="cls-1" d="M193.81,121.31c.45,4.65,3.07,7.43,7.48,7.43a15.07,15.07,0,0,0,6.59-1.54l1.44,3.86a20.23,20.23,0,0,1-8.87,1.94c-8.07,0-12.53-5.6-12.53-14s4.26-13.82,11.49-13.82c6.93,0,10.85,4.56,10.85,12.88v.79Zm5.4-12.48c-3.81,0-5.74,3.61-5.74,8.86v.55l11-1.74C204.41,111.65,202.83,108.83,199.21,108.83Z" transform="translate(-14.61 -16.39)"/><path class="cls-1" d="M230.05,132.45V114.17c0-3.46-1.38-5.15-5.1-5.15a9.61,9.61,0,0,0-3.91.7v22.73h-6V107.19a25.6,25.6,0,0,1,9.95-1.93c7.78,0,11.14,3.27,11.14,9v18.23Z" transform="translate(-14.61 -16.39)"/><path class="cls-1" d="M247.92,133a15.87,15.87,0,0,1-7.72-1.94l1.68-3.76a10.4,10.4,0,0,0,5.35,1.54c2.68,0,4.36-1.64,4.36-3.77,0-5.55-10.75-3.47-10.75-12.08,0-4.56,3.77-7.78,8.77-7.78a13.47,13.47,0,0,1,7.43,1.93l-1.54,3.42a9.4,9.4,0,0,0-4.75-1.49c-2.63,0-4,1.54-4,3.52,0,5.25,11,3.32,11,12.08C257.78,129.28,253.92,133,247.92,133Z" transform="translate(-14.61 -16.39)"/><path class="cls-1" d="M271,133a18.52,18.52,0,0,1-8.77-1.94V93.57h6V106.4a11.89,11.89,0,0,1,5.06-1c6.48,0,10.69,5,10.69,13C284,127.35,279.37,133,271,133Zm.74-24.08a7.92,7.92,0,0,0-3.52.75v19.07a8.49,8.49,0,0,0,3.07.49c4.71,0,6.69-4.11,6.69-10.35S275.8,108.92,271.74,108.92Z" transform="translate(-14.61 -16.39)"/><path class="cls-1" d="M299.36,133c-7,0-10.65-2.78-10.65-9.07V105.76h6v18.37c0,3.12,1.54,4.8,4.71,4.8a9.25,9.25,0,0,0,3.91-.74V105.76h6V131A24.86,24.86,0,0,1,299.36,133Z" transform="translate(-14.61 -16.39)"/><path class="cls-1" d="M327,109.72a7,7,0,0,0-2.73-.55,6.82,6.82,0,0,0-2.87.55v22.73h-6V107.14a23.29,23.29,0,0,1,10-1.88c1.09,0,2.38.1,2.88.15Z" transform="translate(-14.61 -16.39)"/><path class="cls-1" d="M340.17,143.6a20.33,20.33,0,0,1-9.06-1.94l1.59-4a14.19,14.19,0,0,0,6.43,1.54c4.46,0,6.15-2.53,6.15-6.15v-1.48a10.5,10.5,0,0,1-5,1c-6.53,0-10.74-5-10.74-13.08,0-8.81,4.6-14.31,13.07-14.31a19.32,19.32,0,0,1,8.67,1.93V132.5C351.27,139.68,347.06,143.6,340.17,143.6Zm5.11-34.23a7.3,7.3,0,0,0-3.12-.59c-4.61,0-6.64,4-6.64,10.45,0,6.34,1.93,9.75,6.34,9.75a6.94,6.94,0,0,0,3.42-.84Z" transform="translate(-14.61 -16.39)"/><path class="cls-2" d="M46.3,134.32c4.33-2.37,20.53-17.25,35.24-34.58A92.73,92.73,0,0,0,91,86.55c-.33,0-10,9.88-21.36,9.25-3.91-.22-7.19-3.15-7-6.71-2,1.74-6.49,6.8-12.7,7-1.58,0-5.08-.26-7-3.1a7.2,7.2,0,0,1-1.11-3.27c-6.39,4.69-13.31,7.69-21.29,6.2a8.49,8.49,0,0,1-5.89-3.79v42.19Z" transform="translate(-14.61 -16.39)"/><path class="cls-2" d="M106.39,68.32c5.72-2.58,18.67-10.74,26.15-18.8V33.05q-4,4.41-7.51,9.1C120.6,48.19,114,57,106.39,68.32Z" transform="translate(-14.61 -16.39)"/><path class="cls-2" d="M103.19,75.91l-.62.5-3.41,5.76,12.71-.2c2,0,3.27.37,3.27,2.33,0,.82-.09,1.68-2.87,1.83l-14.83.33c-21.23,30.42-41.95,46.17-44.13,47.86h79.23V55.6c-2.12,1.81-4.27,3.57-6.47,5.28A140.92,140.92,0,0,1,103.19,75.91Z" transform="translate(-14.61 -16.39)"/><path class="cls-2" d="M14.61,16.39V79.46a35.54,35.54,0,0,1,3.65-4.85c3.61-4.09,7.14-6,10.44-6A4.07,4.07,0,0,1,32,69.92a4.93,4.93,0,0,1,1.26,3.64,7.65,7.65,0,0,1-2.15,4.61,28,28,0,0,1-4.84,4,60.25,60.25,0,0,1-7.31,4.5c-.09.86.8,2.06,1.81,2.84a7.53,7.53,0,0,0,4.05.84c3.86,0,9.37-2,16.84-6.84.62-.4,2-1.87,3.41-3.25,2.31-2.19,4.76-5.56,8.85-9.55A14.31,14.31,0,0,1,55.67,69a2,2,0,0,1,2.75.54c.75.88-.31,2.34-.31,2.34-.54.69-6.38,7.59-7.46,9.47-1.59,2.84-1.9,3.58-1.9,5.12,0,1.86,1,2.71,2.22,2.81,1.41.11,2.08-.13,3.93-1.22a39,39,0,0,0,5.23-3.93,97.5,97.5,0,0,0,7.75-7.39c4.38-4.47,5.27-5.46,6.16-6.06s3.3.43,2.9,2c-.19.72-1.06,1.5-4.72,5.6-2.29,2.56-3.42,4.14-4,6.46-.69,2.78,0,5.42,3.49,5.55,2.17.08,5.28-.25,12.21-4.57a120.15,120.15,0,0,0,11.24-8.06c3.45-5.31,9.14-13.86,15.48-23.13C118.8,43.17,126.06,33.8,132.54,27V16.39Z" transform="translate(-14.61 -16.39)"/><path class="cls-2" d="M27.46,73.53A8.94,8.94,0,0,0,22,76.42c-1.32,1.4-3,3.8-3.18,5C20.33,80.94,28,77.31,27.46,73.53Z" transform="translate(-14.61 -16.39)"/></svg>
