<svg id="Ebene_1" data-name="Ebene 1" xmlns="http://www.w3.org/2000/svg" viewBox="0 0 113.39 39.56" width="1133.9" height="395.6"><defs><style>.cls-1{fill:#e4003a;}</style></defs><title>TH_Logo_A4_RGB</title><path class="cls-1" d="M43,28.13a12,12,0,1,1-11.95-12,11.95,11.95,0,0,1,12,12" transform="translate(-16.17 -16.17)"/><path d="M45.23,27.47s-2.88,23-14.17,23-14.18-23-14.18-23a124.76,124.76,0,0,0,.2,28.14H45a124.76,124.76,0,0,0,.2-28.14" transform="translate(-16.17 -16.17)"/><path d="M87.44,55.6h1V52.52l.78-.89,2.66,4h1.23L90,51l2.92-3.43H91.63l-2.47,3c-.21.27-.42.55-.64.87h0v-3.9h-1Zm-1.76-1.09a4.11,4.11,0,0,1-1.72.34,2.93,2.93,0,0,1-3.1-3.25A3,3,0,0,1,84,48.26a3.58,3.58,0,0,1,1.62.34l.26-.86A4.4,4.4,0,0,0,84,47.38a4,4,0,0,0-4.22,4.25,3.77,3.77,0,0,0,4,4.11,5.14,5.14,0,0,0,2.14-.39ZM78.27,51H75.14V48.39h3.32v-.87H74.09V55.6h4.55v-.87h-3.5V51.81h3.13Zm-9.87.78h.86c1.14,0,2.09.47,2.09,1.56s-1,1.57-2.08,1.57a5.07,5.07,0,0,1-.87,0Zm0-3.4a4.9,4.9,0,0,1,.92-.07c1.06,0,1.77.38,1.77,1.32,0,.78-.65,1.37-1.74,1.37H68.4Zm-1.05,7.25a11.75,11.75,0,0,0,1.62.1,4,4,0,0,0,2.79-.76,2.11,2.11,0,0,0,.69-1.62,2.07,2.07,0,0,0-1.66-2v0a1.91,1.91,0,0,0,1.36-1.78A1.72,1.72,0,0,0,71.47,48a3.32,3.32,0,0,0-2.21-.58,9.1,9.1,0,0,0-1.91.18ZM63.45,47a.61.61,0,0,0,0-1.21.6.6,0,0,0-.6.6.58.58,0,0,0,.57.61m-2.23,0a.61.61,0,0,0,0-1.21.59.59,0,0,0-.58.6.58.58,0,0,0,.57.61m-1.88.57v4.76c0,2.52,1.24,3.46,2.9,3.46s3.06-1,3.06-3.5V47.52h-1v4.8c0,1.77-.78,2.56-2,2.56s-1.89-.76-1.89-2.56v-4.8ZM53.87,55.6h4.51v-.87H54.92V47.52H53.87Z" transform="translate(-16.17 -16.17)"/><path d="M129.21,36.3h-3V34.62h3.16v-1.5h-5V41.2h5.15V39.7h-3.33V37.78h3ZM118,41.2h5V39.67h-3.22V33.12H118Zm-8.44-8.08v4.51c0,2.57,1.19,3.71,3.23,3.71s3.37-1.19,3.37-3.69V33.12h-1.82v4.64c0,1.44-.53,2.11-1.49,2.11s-1.46-.71-1.46-2.11V33.12Zm-8.49,0V41.2h1.82V37.82h3V41.2h1.82V33.12H106v3.1h-3v-3.1Zm-1.73,6.43a4.49,4.49,0,0,1-1.54.26,2.41,2.41,0,0,1-2.58-2.64,2.43,2.43,0,0,1,2.57-2.67,3.81,3.81,0,0,1,1.54.3l.38-1.44a4.55,4.55,0,0,0-2-.36,4.1,4.1,0,0,0-4.41,4.28,3.85,3.85,0,0,0,4.23,4.06A5.44,5.44,0,0,0,99.64,41ZM86.69,40.82a5.26,5.26,0,0,0,2.29.5c2.22,0,3.25-1.15,3.25-2.5,0-1.14-.66-1.89-2.09-2.42-1.06-.39-1.5-.62-1.5-1.14s.38-.78,1.18-.78a3.74,3.74,0,0,1,1.68.39l.4-1.47a4.82,4.82,0,0,0-2.06-.4c-1.9,0-3.06,1-3.06,2.42,0,1.18.89,1.92,2.23,2.4,1,.34,1.36.62,1.36,1.13s-.44.87-1.29.87a4.61,4.61,0,0,1-2-.5Zm-8.19-7.7V41.2h1.82V37.82h3V41.2h1.82V33.12H83.34v3.1h-3v-3.1Zm-1.73,6.43a4.47,4.47,0,0,1-1.53.26,2.41,2.41,0,0,1-2.58-2.64,2.42,2.42,0,0,1,2.56-2.67,3.81,3.81,0,0,1,1.54.3l.38-1.44a4.55,4.55,0,0,0-2-.36,4.1,4.1,0,0,0-4.41,4.28A3.86,3.86,0,0,0,75,41.34,5.55,5.55,0,0,0,77,41Zm-11-5.13c1.26,0,1.95,1.25,1.95,2.72s-.71,2.74-1.95,2.74-2-1.11-2-2.71.73-2.75,2-2.75m0-1.45a3.92,3.92,0,0,0-3.94,4.24c0,2.31,1.42,4.13,3.81,4.13s4-1.6,4-4.26c0-2.25-1.36-4.11-3.84-4.11m-12.06.15V41.2h1.82V37.82h3V41.2h1.82V33.12H58.61v3.1h-3v-3.1Z" transform="translate(-16.17 -16.17)"/><path d="M122.71,21.9h-3V20.22h3.16v-1.5h-5V26.8h5.14V25.3h-3.32V23.38h3ZM109.4,18.72V26.8h1.82V23.42h3V26.8h1.82V18.72h-1.82v3.1h-3v-3.1Zm-1.73,6.43a4.47,4.47,0,0,1-1.53.26,2.41,2.41,0,0,1-2.58-2.64,2.42,2.42,0,0,1,2.56-2.67,3.81,3.81,0,0,1,1.54.3L108,19a4.55,4.55,0,0,0-2-.36,4.1,4.1,0,0,0-4.41,4.28,3.86,3.86,0,0,0,4.23,4.06,5.55,5.55,0,0,0,2.07-.35ZM95,26.42a5.26,5.26,0,0,0,2.29.5c2.22,0,3.25-1.15,3.25-2.5,0-1.14-.66-1.89-2.09-2.42-1.05-.39-1.5-.62-1.5-1.14s.39-.78,1.18-.78a3.71,3.71,0,0,1,1.68.39L100.2,19a4.88,4.88,0,0,0-2.07-.4c-1.89,0-3.06,1-3.06,2.42,0,1.18.89,1.92,2.23,2.4,1,.34,1.36.62,1.36,1.13s-.44.87-1.28.87a4.66,4.66,0,0,1-2-.5Zm-3.34.38h1.82V18.72H91.64Zm-6.85,0V24.37c0-1.32,0-2.46-.09-3.54h0a28,28,0,0,0,1.41,2.85l1.73,3.12H89.8V18.72H88.13v2.35a32.84,32.84,0,0,0,.14,3.38h0a27.06,27.06,0,0,0-1.32-2.77l-1.69-3H83.11V26.8ZM74.61,18.72V26.8h1.83V23.42h3V26.8h1.82V18.72H79.45v3.1h-3v-3.1Zm-1.73,6.43a4.47,4.47,0,0,1-1.53.26,2.41,2.41,0,0,1-2.58-2.64,2.43,2.43,0,0,1,2.57-2.67,3.75,3.75,0,0,1,1.53.3L73.26,19a4.64,4.64,0,0,0-2-.36,4.11,4.11,0,0,0-4.41,4.28,3.86,3.86,0,0,0,4.23,4.06,5.51,5.51,0,0,0,2.07-.35Zm-7.5-3.25h-3V20.22h3.15v-1.5h-5V26.8h5.14V25.3H62.41V23.38h3Zm-10,4.9h1.82V20.25h2.21V18.72H53.15v1.53h2.18Z" transform="translate(-16.17 -16.17)"/></svg>
